<?xml version="1.0" standalone="no"?>
<!DOCTYPE svg PUBLIC "-//W3C//DTD SVG 1.1//EN" "http://www.w3.org/Graphics/SVG/1.1/DTD/svg11.dtd" >
<svg xmlns="http://www.w3.org/2000/svg" xmlns:xlink="http://www.w3.org/1999/xlink" version="1.1">
<metadata></metadata>
<defs>
<font id="american_purposeregular" horiz-adv-x="1583" >
<font-face units-per-em="2048" ascent="1536" descent="-512" />
<missing-glyph horiz-adv-x="409" />
<glyph horiz-adv-x="0" />
<glyph unicode="&#xd;" horiz-adv-x="409" />
<glyph unicode=" "  horiz-adv-x="409" />
<glyph unicode="&#x09;" horiz-adv-x="409" />
<glyph unicode="&#xa0;" horiz-adv-x="409" />
<glyph unicode="!" horiz-adv-x="477" d="M53 1335q-2 20 3 52t24.5 63t58.5 52.5t105 21.5t104.5 -21.5t58 -52.5t23.5 -62.5t4 -52.5q-4 -143 -17.5 -260t-28.5 -223.5t-28.5 -209.5t-15.5 -218h-203q-2 111 -14 214t-27.5 210.5t-29 225.5t-17.5 261zM63 147q0 74 52.5 127.5t128.5 53.5t128 -53.5t52 -127.5 q0 -37 -14.5 -69.5t-39 -58t-57 -40t-69.5 -14.5t-70 14.5t-57.5 40t-39 58.5t-14.5 69z" />
<glyph unicode="&#x22;" horiz-adv-x="671" d="M51 1518h240l-41 -619h-160zM385 1518h236l-37 -619h-162z" />
<glyph unicode="#" d="M68 731q0 150 56 282t154.5 230t230.5 155.5t282 57.5t281.5 -57.5t230 -155.5t156 -230t57.5 -282t-57.5 -282t-156 -230t-230 -155.5t-281.5 -57.5t-282 57.5t-230.5 155.5t-154.5 230.5t-56 281.5zM164 731q0 -129 49 -242.5t135 -199.5t200 -135.5t243 -49.5 q131 0 244.5 49.5t197.5 135.5t133 199.5t49 242.5t-49 242.5t-133 198.5t-197.5 134.5t-244.5 49.5q-129 0 -243 -49.5t-200 -134.5t-135 -198.5t-49 -242.5zM207 731q0 119 46 224.5t126 184.5t185.5 124t226.5 45q119 0 225 -45t185 -124t125 -184.5t46 -224.5 q0 -121 -46 -227.5t-125 -185t-185 -125t-225 -46.5q-121 0 -226.5 46.5t-185.5 125t-126 185t-46 227.5zM330 664l112 -177q346 -80 699 0l110 177h-921zM451 1063l151 -189q4 -4 15.5 -0.5t23.5 9.5t20.5 12t8.5 8q-29 57 -47.5 118.5t-53.5 111.5q-6 8 -26.5 -0.5 t-42 -22.5t-38 -28.5t-11.5 -18.5zM463 457q20 -35 51 -74t73 -70.5t92.5 -53t111.5 -21.5q59 0 110 21.5t92 53t73 70.5t52 74q-164 -43 -326.5 -42t-328.5 42zM715 731h155l-77 187zM918 903q-4 -2 4 -8t19 -12t23.5 -9.5t18.5 0.5l147 189q4 4 -11 18.5t-36.5 28.5 t-42 22.5t-26.5 0.5q-39 -49 -55.5 -110.5t-40.5 -119.5zM1290 102v23h84v-23h-31v-77h-22v77h-31zM1384 25v100h31l19 -78l18 78h29v-100h-19v77l-20 -77h-19l-20 77v-77h-19z" />
<glyph unicode="$" horiz-adv-x="915" d="M51 1010q0 160 76 251t238 107l-7 121h197l-6 -119q76 -4 153.5 -39t135.5 -106l-187 -193q-6 29 -24.5 51.5t-42 39t-51 24.5t-54.5 8q-31 0 -58.5 -8t-49 -24.5t-34.5 -43t-11 -59.5q0 -57 30.5 -93t76.5 -60.5t98.5 -40t95.5 -33.5q111 -47 175 -129t60 -211 q0 -63 -21.5 -122t-61.5 -104t-97 -72.5t-127 -29.5l8 -125h-196l6 121q-84 10 -170 56t-146 151l209 147q14 -57 69.5 -97t113.5 -42q37 -4 72.5 12.5t51.5 54.5q20 49 -5 100.5t-99 84.5q-78 35 -152.5 65.5t-134 75.5t-95.5 110.5t-36 170.5z" />
<glyph unicode="%" d="M68 731q0 150 56 282t154.5 230t230.5 155.5t282 57.5t281.5 -57.5t230 -155.5t156 -230t57.5 -282t-57.5 -282t-156 -230t-230 -155.5t-281.5 -57.5t-282 57.5t-230.5 155.5t-154.5 230.5t-56 281.5zM164 731q0 -129 49 -242.5t135 -199.5t200 -135.5t243 -49.5 q131 0 244.5 49.5t197.5 135.5t133 199.5t49 242.5t-49 242.5t-133 198.5t-197.5 134.5t-244.5 49.5q-129 0 -243 -49.5t-200 -134.5t-135 -198.5t-49 -242.5zM207 731q0 119 46 224.5t126 184.5t185.5 124t226.5 45q119 0 225 -45t185 -124t125 -184.5t46 -224.5 q0 -121 -46 -227.5t-125 -185t-185 -125t-225 -46.5q-121 0 -226.5 46.5t-185.5 125t-126 185t-46 227.5zM330 664l112 -177q346 -80 699 0l110 177h-921zM451 1063l151 -189q4 -4 15.5 -0.5t23.5 9.5t20.5 12t8.5 8q-29 57 -47.5 118.5t-53.5 111.5q-6 8 -26.5 -0.5 t-42 -22.5t-38 -28.5t-11.5 -18.5zM463 457q20 -35 51 -74t73 -70.5t92.5 -53t111.5 -21.5q59 0 110 21.5t92 53t73 70.5t52 74q-164 -43 -326.5 -42t-328.5 42zM715 731h155l-77 187zM918 903q-4 -2 4 -8t19 -12t23.5 -9.5t18.5 0.5l147 189q4 4 -11 18.5t-36.5 28.5 t-42 22.5t-26.5 0.5q-39 -49 -55.5 -110.5t-40.5 -119.5zM1290 102v23h84v-23h-31v-77h-22v77h-31zM1384 25v100h31l19 -78l18 78h29v-100h-19v77l-20 -77h-19l-20 77v-77h-19z" />
<glyph unicode="&#x26;" horiz-adv-x="1349" d="M68 488.5q12 80.5 49 149.5t97 122t140 84q-55 61 -88 148t-26 182q6 94 45 162.5t98 112.5t136 63.5t161 13.5q180 -12 271 -128t79 -296q-4 -68 -25.5 -120t-57.5 -92t-83 -71t-102 -57q31 -47 83 -106.5t101 -106.5q27 33 59.5 77t55.5 79l215 -168 q-29 -39 -64.5 -86.5t-66.5 -85.5q102 -102 194 -183l-186 -198q-45 39 -89 78.5t-91 84.5q-66 -74 -156 -116.5t-188 -53.5q-98 -12 -199.5 2.5t-179.5 65.5q-68 47 -115 117.5t-63 161.5q-16 84 -4 164.5zM360 420q4 -88 61.5 -135t141.5 -47q59 0 119.5 24.5t93.5 75.5 q-72 61 -138.5 138t-127.5 163q-74 -23 -113 -82t-37 -137zM514 1116q4 -55 30.5 -111t67.5 -83q76 16 123 72.5t49 125.5q4 68 -32.5 110t-100.5 42q-78 0 -109.5 -44t-27.5 -112z" />
<glyph unicode="'" horiz-adv-x="342" d="M51 1518h240l-41 -619h-160z" />
<glyph unicode="(" d="M68 731q0 150 56 282t154.5 230t230.5 155.5t282 57.5t281.5 -57.5t230 -155.5t156 -230t57.5 -282t-57.5 -282t-156 -230t-230 -155.5t-281.5 -57.5t-282 57.5t-230.5 155.5t-154.5 230.5t-56 281.5zM164 731q0 -129 49 -242.5t135 -199.5t200 -135.5t243 -49.5 q131 0 244.5 49.5t197.5 135.5t133 199.5t49 242.5t-49 242.5t-133 198.5t-197.5 134.5t-244.5 49.5q-129 0 -243 -49.5t-200 -134.5t-135 -198.5t-49 -242.5zM207 731q0 119 46 224.5t126 184.5t185.5 124t226.5 45q119 0 225 -45t185 -124t125 -184.5t46 -224.5 q0 -121 -46 -227.5t-125 -185t-185 -125t-225 -46.5q-121 0 -226.5 46.5t-185.5 125t-126 185t-46 227.5zM330 664l112 -177q346 -80 699 0l110 177h-921zM451 1063l151 -189q4 -4 15.5 -0.5t23.5 9.5t20.5 12t8.5 8q-29 57 -47.5 118.5t-53.5 111.5q-6 8 -26.5 -0.5 t-42 -22.5t-38 -28.5t-11.5 -18.5zM463 457q20 -35 51 -74t73 -70.5t92.5 -53t111.5 -21.5q59 0 110 21.5t92 53t73 70.5t52 74q-164 -43 -326.5 -42t-328.5 42zM715 731h155l-77 187zM918 903q-4 -2 4 -8t19 -12t23.5 -9.5t18.5 0.5l147 189q4 4 -11 18.5t-36.5 28.5 t-42 22.5t-26.5 0.5q-39 -49 -55.5 -110.5t-40.5 -119.5zM1290 102v23h84v-23h-31v-77h-22v77h-31zM1384 25v100h31l19 -78l18 78h29v-100h-19v77l-20 -77h-19l-20 77v-77h-19z" />
<glyph unicode=")" d="M68 731q0 150 56 282t154.5 230t230.5 155.5t282 57.5t281.5 -57.5t230 -155.5t156 -230t57.5 -282t-57.5 -282t-156 -230t-230 -155.5t-281.5 -57.5t-282 57.5t-230.5 155.5t-154.5 230.5t-56 281.5zM164 731q0 -129 49 -242.5t135 -199.5t200 -135.5t243 -49.5 q131 0 244.5 49.5t197.5 135.5t133 199.5t49 242.5t-49 242.5t-133 198.5t-197.5 134.5t-244.5 49.5q-129 0 -243 -49.5t-200 -134.5t-135 -198.5t-49 -242.5zM207 731q0 119 46 224.5t126 184.5t185.5 124t226.5 45q119 0 225 -45t185 -124t125 -184.5t46 -224.5 q0 -121 -46 -227.5t-125 -185t-185 -125t-225 -46.5q-121 0 -226.5 46.5t-185.5 125t-126 185t-46 227.5zM330 664l112 -177q346 -80 699 0l110 177h-921zM451 1063l151 -189q4 -4 15.5 -0.5t23.5 9.5t20.5 12t8.5 8q-29 57 -47.5 118.5t-53.5 111.5q-6 8 -26.5 -0.5 t-42 -22.5t-38 -28.5t-11.5 -18.5zM463 457q20 -35 51 -74t73 -70.5t92.5 -53t111.5 -21.5q59 0 110 21.5t92 53t73 70.5t52 74q-164 -43 -326.5 -42t-328.5 42zM715 731h155l-77 187zM918 903q-4 -2 4 -8t19 -12t23.5 -9.5t18.5 0.5l147 189q4 4 -11 18.5t-36.5 28.5 t-42 22.5t-26.5 0.5q-39 -49 -55.5 -110.5t-40.5 -119.5zM1290 102v23h84v-23h-31v-77h-22v77h-31zM1384 25v100h31l19 -78l18 78h29v-100h-19v77l-20 -77h-19l-20 77v-77h-19z" />
<glyph unicode="*" d="M68 731q0 150 56 282t154.5 230t230.5 155.5t282 57.5t281.5 -57.5t230 -155.5t156 -230t57.5 -282t-57.5 -282t-156 -230t-230 -155.5t-281.5 -57.5t-282 57.5t-230.5 155.5t-154.5 230.5t-56 281.5zM164 731q0 -129 49 -242.5t135 -199.5t200 -135.5t243 -49.5 q131 0 244.5 49.5t197.5 135.5t133 199.5t49 242.5t-49 242.5t-133 198.5t-197.5 134.5t-244.5 49.5q-129 0 -243 -49.5t-200 -134.5t-135 -198.5t-49 -242.5zM207 731q0 119 46 224.5t126 184.5t185.5 124t226.5 45q119 0 225 -45t185 -124t125 -184.5t46 -224.5 q0 -121 -46 -227.5t-125 -185t-185 -125t-225 -46.5q-121 0 -226.5 46.5t-185.5 125t-126 185t-46 227.5zM330 664l112 -177q346 -80 699 0l110 177h-921zM451 1063l151 -189q4 -4 15.5 -0.5t23.5 9.5t20.5 12t8.5 8q-29 57 -47.5 118.5t-53.5 111.5q-6 8 -26.5 -0.5 t-42 -22.5t-38 -28.5t-11.5 -18.5zM463 457q20 -35 51 -74t73 -70.5t92.5 -53t111.5 -21.5q59 0 110 21.5t92 53t73 70.5t52 74q-164 -43 -326.5 -42t-328.5 42zM715 731h155l-77 187zM918 903q-4 -2 4 -8t19 -12t23.5 -9.5t18.5 0.5l147 189q4 4 -11 18.5t-36.5 28.5 t-42 22.5t-26.5 0.5q-39 -49 -55.5 -110.5t-40.5 -119.5zM1290 102v23h84v-23h-31v-77h-22v77h-31zM1384 25v100h31l19 -78l18 78h29v-100h-19v77l-20 -77h-19l-20 77v-77h-19z" />
<glyph unicode="+" d="M68 731q0 150 56 282t154.5 230t230.5 155.5t282 57.5t281.5 -57.5t230 -155.5t156 -230t57.5 -282t-57.5 -282t-156 -230t-230 -155.5t-281.5 -57.5t-282 57.5t-230.5 155.5t-154.5 230.5t-56 281.5zM164 731q0 -129 49 -242.5t135 -199.5t200 -135.5t243 -49.5 q131 0 244.5 49.5t197.5 135.5t133 199.5t49 242.5t-49 242.5t-133 198.5t-197.5 134.5t-244.5 49.5q-129 0 -243 -49.5t-200 -134.5t-135 -198.5t-49 -242.5zM207 731q0 119 46 224.5t126 184.5t185.5 124t226.5 45q119 0 225 -45t185 -124t125 -184.5t46 -224.5 q0 -121 -46 -227.5t-125 -185t-185 -125t-225 -46.5q-121 0 -226.5 46.5t-185.5 125t-126 185t-46 227.5zM330 664l112 -177q346 -80 699 0l110 177h-921zM451 1063l151 -189q4 -4 15.5 -0.5t23.5 9.5t20.5 12t8.5 8q-29 57 -47.5 118.5t-53.5 111.5q-6 8 -26.5 -0.5 t-42 -22.5t-38 -28.5t-11.5 -18.5zM463 457q20 -35 51 -74t73 -70.5t92.5 -53t111.5 -21.5q59 0 110 21.5t92 53t73 70.5t52 74q-164 -43 -326.5 -42t-328.5 42zM715 731h155l-77 187zM918 903q-4 -2 4 -8t19 -12t23.5 -9.5t18.5 0.5l147 189q4 4 -11 18.5t-36.5 28.5 t-42 22.5t-26.5 0.5q-39 -49 -55.5 -110.5t-40.5 -119.5zM1290 102v23h84v-23h-31v-77h-22v77h-31zM1384 25v100h31l19 -78l18 78h29v-100h-19v77l-20 -77h-19l-20 77v-77h-19z" />
<glyph unicode="," horiz-adv-x="485" d="M61 145q0 82 52.5 132.5t128.5 50.5q37 0 69.5 -14.5t58 -39t40 -58.5t14.5 -71q0 -29 -4 -63.5t-19.5 -76.5t-49.5 -90t-91 -99h-59q12 14 24.5 39.5t19.5 51t6 43t-15 15.5q-84 0 -129.5 49t-45.5 131z" />
<glyph unicode="-" horiz-adv-x="649" d="M82 524v269h485v-269h-485z" />
<glyph unicode="." horiz-adv-x="483" d="M61 145q0 76 53.5 129.5t129.5 53.5q74 0 126 -53.5t52 -129.5t-52 -128t-126 -52q-76 0 -129.5 52.5t-53.5 127.5z" />
<glyph unicode="/" d="M68 731q0 150 56 282t154.5 230t230.5 155.5t282 57.5t281.5 -57.5t230 -155.5t156 -230t57.5 -282t-57.5 -282t-156 -230t-230 -155.5t-281.5 -57.5t-282 57.5t-230.5 155.5t-154.5 230.5t-56 281.5zM164 731q0 -129 49 -242.5t135 -199.5t200 -135.5t243 -49.5 q131 0 244.5 49.5t197.5 135.5t133 199.5t49 242.5t-49 242.5t-133 198.5t-197.5 134.5t-244.5 49.5q-129 0 -243 -49.5t-200 -134.5t-135 -198.5t-49 -242.5zM207 731q0 119 46 224.5t126 184.5t185.5 124t226.5 45q119 0 225 -45t185 -124t125 -184.5t46 -224.5 q0 -121 -46 -227.5t-125 -185t-185 -125t-225 -46.5q-121 0 -226.5 46.5t-185.5 125t-126 185t-46 227.5zM330 664l112 -177q346 -80 699 0l110 177h-921zM451 1063l151 -189q4 -4 15.5 -0.5t23.5 9.5t20.5 12t8.5 8q-29 57 -47.5 118.5t-53.5 111.5q-6 8 -26.5 -0.5 t-42 -22.5t-38 -28.5t-11.5 -18.5zM463 457q20 -35 51 -74t73 -70.5t92.5 -53t111.5 -21.5q59 0 110 21.5t92 53t73 70.5t52 74q-164 -43 -326.5 -42t-328.5 42zM715 731h155l-77 187zM918 903q-4 -2 4 -8t19 -12t23.5 -9.5t18.5 0.5l147 189q4 4 -11 18.5t-36.5 28.5 t-42 22.5t-26.5 0.5q-39 -49 -55.5 -110.5t-40.5 -119.5zM1290 102v23h84v-23h-31v-77h-22v77h-31zM1384 25v100h31l19 -78l18 78h29v-100h-19v77l-20 -77h-19l-20 77v-77h-19z" />
<glyph unicode="0" horiz-adv-x="1216" d="M47 750q0 135 23.5 273t86 250.5t172 183.5t279.5 71t279.5 -71t172 -183.5t86 -250.5t23.5 -273t-23.5 -273.5t-86 -251t-172 -183.5t-279.5 -71t-279.5 71t-172 183.5t-86 250.5t-23.5 274zM395 750q0 -512 213 -512t213 512q0 254 -53.5 363.5t-159.5 109.5 q-109 0 -161 -109.5t-52 -363.5z" />
<glyph unicode="1" horiz-adv-x="610" d="M41 1208l182 281h305v-1489h-340v1208h-147z" />
<glyph unicode="2" horiz-adv-x="1009" d="M31 1350q88 82 208.5 132t270.5 48q158 -2 257 -56.5t146.5 -146.5t48.5 -214t-36 -259q-23 -82 -59 -157.5t-81 -145.5t-95 -134.5t-101 -125.5h352v-291h-831v231q70 61 135 127t121 138q27 37 62.5 82t69 96t64.5 107.5t49 115.5q18 57 21.5 118.5t-15 111t-63.5 78 t-125 20.5q-84 -10 -143.5 -65.5t-81.5 -133.5z" />
<glyph unicode="3" horiz-adv-x="983" d="M47 90l51 307q47 -70 129 -112.5t168 -42.5q88 0 150.5 44t60.5 144q-2 61 -21.5 100t-55 60.5t-85 30t-112.5 8.5h-150v245h80q51 0 108.5 8.5t104.5 31t79 62.5t34 105q2 84 -47 122t-127 38q-39 0 -80 -10t-78 -28.5t-69.5 -43t-55.5 -51.5l-61 317q94 55 204.5 79 t225.5 24q55 0 113.5 -12.5t110.5 -39t93 -68.5t64 -103q27 -74 29.5 -154t-18 -151.5t-66.5 -130t-117 -89.5q57 -16 101 -53t72.5 -86t44 -107.5t15.5 -117.5q0 -98 -25.5 -179t-76.5 -135q-70 -72 -173.5 -100.5t-215.5 -30.5q-111 0 -218.5 30t-185.5 89z" />
<glyph unicode="4" horiz-adv-x="1091" d="M47 305v252l402 932h479v-918h116v-266h-116v-305h-318v305h-563zM346 571h264v617h-16z" />
<glyph unicode="5" horiz-adv-x="1026" d="M57 618l107 871h686v-281h-424l-37 -346q45 27 100.5 37t110.5 10q86 0 155.5 -30.5t120 -86t78 -132t29.5 -171.5q8 -248 -125 -377.5t-383 -140.5q-106 -2 -210.5 19.5t-182.5 72.5l18 334q63 -98 146.5 -139t169.5 -41q80 0 143.5 45t77.5 141q16 113 -36 184.5 t-171 63.5q-119 -10 -215 -100z" />
<glyph unicode="6" horiz-adv-x="1097" d="M47 666q0 174 42 339.5t122 280.5q78 106 191.5 174t273.5 68q61 0 128.5 -21.5t119.5 -66.5l-41 -375q-29 72 -81 113t-118 41q-74 0 -128 -39t-91 -95.5t-55.5 -122t-16.5 -118.5q47 47 122 71.5t147 26.5q178 4 281.5 -108.5t111.5 -344.5q4 -84 -14.5 -159.5 t-43.5 -124.5q-66 -127 -182.5 -180.5t-247.5 -53.5q-147 0 -246.5 58.5t-160 155t-87 221t-26.5 260.5zM369 461q0 -41 10 -82t31.5 -73t56.5 -52.5t82 -22.5q104 -4 151.5 57.5t47.5 168.5q0 106 -45.5 169.5t-145.5 63.5q-49 0 -85 -18.5t-59.5 -50t-33.5 -73.5t-10 -87z " />
<glyph unicode="7" horiz-adv-x="944" d="M51 1208v281h842v-219l-457 -1270h-354l444 1178v30h-475z" />
<glyph unicode="8" horiz-adv-x="1110" d="M50 448.5q3 71.5 24.5 134t64.5 112.5t115 77q-47 27 -78 63.5t-49 79.5t-24.5 91.5t-6.5 101.5q2 100 35 179t92.5 133.5t143.5 81t186 26.5q209 2 333 -107.5t128 -312.5q0 -53 -5 -101.5t-21.5 -91.5t-47.5 -79.5t-80 -63.5q72 -27 115 -77t63.5 -112.5t22.5 -134 t-8 -139.5q-12 -86 -55.5 -149.5t-109 -105.5t-151.5 -62.5t-184 -20.5q-96 0 -181 20.5t-150.5 62.5t-108.5 105.5t-56 149.5q-10 68 -7 139.5zM369 444q4 -98 55 -151t129 -53q82 0 132 53t54 151q2 119 -54 171.5t-132 52.5q-37 0 -69.5 -12.5t-59.5 -39t-41 -69.5 t-14 -103zM385 1051q0 -31 11.5 -62t32 -57.5t52 -43t72.5 -16.5q43 0 74.5 17.5t52 44.5t32 58.5t11.5 60.5q2 78 -40 136t-130 58q-43 0 -75 -16.5t-52 -43t-30.5 -62t-10.5 -74.5z" />
<glyph unicode="9" horiz-adv-x="1134" d="M49 956q-2 106 23.5 203.5t60.5 157.5q53 90 139 144.5t201 66.5q190 20 336.5 -56.5t216.5 -265.5q29 -84 45 -198.5t16 -239.5q0 -145 -22.5 -286.5t-83.5 -254t-171 -183.5t-284 -73q-106 -2 -200.5 19.5t-171.5 72.5l18 334q55 -100 137 -137t168 -37t143.5 37 t88 93.5t38 126t-5.5 136.5q-16 -41 -51 -71.5t-80 -51t-96 -28.5t-102 -4q-88 8 -153.5 44t-108.5 91q-55 72 -77 168t-24 192zM365 999q-4 -123 40.5 -196.5t157.5 -67.5q49 2 85 27.5t58.5 63.5t33 83t8.5 86q-2 47 -13.5 92.5t-34 80t-56.5 56t-83 21.5t-86 -22.5 t-60.5 -57.5t-35.5 -79t-14 -87z" />
<glyph unicode=":" horiz-adv-x="483" d="M61 145q0 76 52.5 129.5t126.5 53.5q76 0 129 -53.5t53 -129.5t-53 -128t-129 -52q-74 0 -126.5 52.5t-52.5 127.5zM61 877q0 76 52.5 128t126.5 52q76 0 129 -52.5t53 -127.5q0 -76 -53 -129.5t-129 -53.5q-74 0 -126.5 53.5t-52.5 129.5z" />
<glyph unicode=";" horiz-adv-x="485" d="M61 145q0 82 52.5 132.5t128.5 50.5q37 0 69.5 -14.5t58 -39t40 -58.5t14.5 -71q0 -29 -4 -63.5t-20.5 -76.5t-49.5 -90t-90 -99h-59q12 14 23.5 39.5t18.5 51t7 43t-14 15.5q-84 0 -129.5 49t-45.5 131zM61 877q0 76 52.5 128t128.5 52q37 0 69.5 -14.5t58 -39t40 -57.5 t14.5 -69q0 -37 -14.5 -71t-40 -58.5t-58 -39t-69.5 -14.5q-76 0 -128.5 53.5t-52.5 129.5z" />
<glyph unicode="&#x3c;" d="M68 731q0 150 56 282t154.5 230t230.5 155.5t282 57.5t281.5 -57.5t230 -155.5t156 -230t57.5 -282t-57.5 -282t-156 -230t-230 -155.5t-281.5 -57.5t-282 57.5t-230.5 155.5t-154.5 230.5t-56 281.5zM164 731q0 -129 49 -242.5t135 -199.5t200 -135.5t243 -49.5 q131 0 244.5 49.5t197.5 135.5t133 199.5t49 242.5t-49 242.5t-133 198.5t-197.5 134.5t-244.5 49.5q-129 0 -243 -49.5t-200 -134.5t-135 -198.5t-49 -242.5zM207 731q0 119 46 224.5t126 184.5t185.5 124t226.5 45q119 0 225 -45t185 -124t125 -184.5t46 -224.5 q0 -121 -46 -227.5t-125 -185t-185 -125t-225 -46.5q-121 0 -226.5 46.5t-185.5 125t-126 185t-46 227.5zM330 664l112 -177q346 -80 699 0l110 177h-921zM451 1063l151 -189q4 -4 15.5 -0.5t23.5 9.5t20.5 12t8.5 8q-29 57 -47.5 118.5t-53.5 111.5q-6 8 -26.5 -0.5 t-42 -22.5t-38 -28.5t-11.5 -18.5zM463 457q20 -35 51 -74t73 -70.5t92.5 -53t111.5 -21.5q59 0 110 21.5t92 53t73 70.5t52 74q-164 -43 -326.5 -42t-328.5 42zM715 731h155l-77 187zM918 903q-4 -2 4 -8t19 -12t23.5 -9.5t18.5 0.5l147 189q4 4 -11 18.5t-36.5 28.5 t-42 22.5t-26.5 0.5q-39 -49 -55.5 -110.5t-40.5 -119.5zM1290 102v23h84v-23h-31v-77h-22v77h-31zM1384 25v100h31l19 -78l18 78h29v-100h-19v77l-20 -77h-19l-20 77v-77h-19z" />
<glyph unicode="=" d="M68 731q0 150 56 282t154.5 230t230.5 155.5t282 57.5t281.5 -57.5t230 -155.5t156 -230t57.5 -282t-57.5 -282t-156 -230t-230 -155.5t-281.5 -57.5t-282 57.5t-230.5 155.5t-154.5 230.5t-56 281.5zM164 731q0 -129 49 -242.5t135 -199.5t200 -135.5t243 -49.5 q131 0 244.5 49.5t197.5 135.5t133 199.5t49 242.5t-49 242.5t-133 198.5t-197.5 134.5t-244.5 49.5q-129 0 -243 -49.5t-200 -134.5t-135 -198.5t-49 -242.5zM207 731q0 119 46 224.5t126 184.5t185.5 124t226.5 45q119 0 225 -45t185 -124t125 -184.5t46 -224.5 q0 -121 -46 -227.5t-125 -185t-185 -125t-225 -46.5q-121 0 -226.5 46.5t-185.5 125t-126 185t-46 227.5zM330 664l112 -177q346 -80 699 0l110 177h-921zM451 1063l151 -189q4 -4 15.5 -0.5t23.5 9.5t20.5 12t8.5 8q-29 57 -47.5 118.5t-53.5 111.5q-6 8 -26.5 -0.5 t-42 -22.5t-38 -28.5t-11.5 -18.5zM463 457q20 -35 51 -74t73 -70.5t92.5 -53t111.5 -21.5q59 0 110 21.5t92 53t73 70.5t52 74q-164 -43 -326.5 -42t-328.5 42zM715 731h155l-77 187zM918 903q-4 -2 4 -8t19 -12t23.5 -9.5t18.5 0.5l147 189q4 4 -11 18.5t-36.5 28.5 t-42 22.5t-26.5 0.5q-39 -49 -55.5 -110.5t-40.5 -119.5zM1290 102v23h84v-23h-31v-77h-22v77h-31zM1384 25v100h31l19 -78l18 78h29v-100h-19v77l-20 -77h-19l-20 77v-77h-19z" />
<glyph unicode="&#x3e;" d="M68 731q0 150 56 282t154.5 230t230.5 155.5t282 57.5t281.5 -57.5t230 -155.5t156 -230t57.5 -282t-57.5 -282t-156 -230t-230 -155.5t-281.5 -57.5t-282 57.5t-230.5 155.5t-154.5 230.5t-56 281.5zM164 731q0 -129 49 -242.5t135 -199.5t200 -135.5t243 -49.5 q131 0 244.5 49.5t197.5 135.5t133 199.5t49 242.5t-49 242.5t-133 198.5t-197.5 134.5t-244.5 49.5q-129 0 -243 -49.5t-200 -134.5t-135 -198.5t-49 -242.5zM207 731q0 119 46 224.5t126 184.5t185.5 124t226.5 45q119 0 225 -45t185 -124t125 -184.5t46 -224.5 q0 -121 -46 -227.5t-125 -185t-185 -125t-225 -46.5q-121 0 -226.5 46.5t-185.5 125t-126 185t-46 227.5zM330 664l112 -177q346 -80 699 0l110 177h-921zM451 1063l151 -189q4 -4 15.5 -0.5t23.5 9.5t20.5 12t8.5 8q-29 57 -47.5 118.5t-53.5 111.5q-6 8 -26.5 -0.5 t-42 -22.5t-38 -28.5t-11.5 -18.5zM463 457q20 -35 51 -74t73 -70.5t92.5 -53t111.5 -21.5q59 0 110 21.5t92 53t73 70.5t52 74q-164 -43 -326.5 -42t-328.5 42zM715 731h155l-77 187zM918 903q-4 -2 4 -8t19 -12t23.5 -9.5t18.5 0.5l147 189q4 4 -11 18.5t-36.5 28.5 t-42 22.5t-26.5 0.5q-39 -49 -55.5 -110.5t-40.5 -119.5zM1290 102v23h84v-23h-31v-77h-22v77h-31zM1384 25v100h31l19 -78l18 78h29v-100h-19v77l-20 -77h-19l-20 77v-77h-19z" />
<glyph unicode="?" horiz-adv-x="968" d="M41 1376q96 80 207.5 116t236.5 32q195 -8 317 -106.5t126 -287.5q0 -117 -40 -220t-153 -187q-43 -33 -83 -62.5t-68.5 -63.5t-43 -75t-8.5 -98h-235q-16 156 49 264q27 45 69 84t83 81t70.5 92t29.5 118q0 66 -41 107.5t-119 41.5q-82 0 -150.5 -43t-121.5 -108z M238 147q0 74 52 127.5t126 53.5q76 0 128 -53.5t52 -127.5q0 -37 -14.5 -69.5t-39 -58t-57 -40t-69.5 -14.5t-70 14.5t-56.5 40t-37.5 58.5t-14 69z" />
<glyph unicode="@" horiz-adv-x="1654" d="M55.5 744q10.5 130 38.5 235q47 172 152.5 293t234.5 176q76 33 167 52.5t185.5 24.5t186.5 -3.5t170 -28.5q131 -35 229.5 -115t145.5 -192q25 -61 33 -135t3.5 -151t-19.5 -151.5t-38 -134.5q-23 -57 -63.5 -117.5t-95 -109.5t-117 -81t-125.5 -32q-72 0 -112 39 t-42 99q-18 -41 -48 -69t-65.5 -45t-75.5 -25.5t-77 -8.5q-111 0 -177.5 54.5t-96 137.5t-27.5 182t31 189q53 166 156.5 246t226.5 76q49 0 89 -18.5t66 -57.5l8 62l238 -25l-107 -625q-6 -41 6.5 -56t36 -11t51 21.5t50.5 41.5q33 35 54.5 84t31.5 101.5t14 102.5t4 89 q0 92 -13 163t-48 120q-43 66 -117 99.5t-172 47.5q-72 10 -152.5 10t-158.5 -17t-146.5 -54t-117.5 -101q-57 -74 -96.5 -167t-55.5 -194t-9 -202.5t42 -189.5q31 -80 86 -131.5t125.5 -81t149.5 -42t157 -12.5q72 0 142.5 10.5t136 34t123 58.5t100.5 84l22 -111 q-47 -53 -112.5 -93t-142.5 -66.5t-162 -40t-171 -15.5q-133 -2 -261 24.5t-222 84.5q-104 66 -161.5 175t-78 236t-10 257zM672 647.5q-4 -57.5 4 -94.5q10 -43 32.5 -70.5t69.5 -27.5q76 0 101.5 35.5t35.5 101.5l52 338q-10 33 -34 45t-52 12q-29 0 -51.5 -9t-41.5 -24 q-35 -27 -59 -79t-38.5 -111t-18.5 -116.5z" />
<glyph unicode="A" horiz-adv-x="1110" d="M31 0l264 1489h520l264 -1489h-338l-34 283h-297l-31 -283h-348zM451 553h219l-86 653h-52z" />
<glyph unicode="B" horiz-adv-x="1122" d="M82 0v1489q109 6 214 19.5t222 13.5q43 0 89 -3t92 -12.5t87 -28t76 -46.5q70 -59 98.5 -141.5t28.5 -170.5q0 -100 -51 -186t-156 -125q152 -25 226 -129q71 -99 71 -243v-15q0 -104 -41 -194.5t-116 -149.5q-76 -60 -190 -78q-74 -12 -166 -12q-50 0 -105 4 q-59 4 -114.5 8t-113.5 4q-39 0 -76.5 -1t-74.5 -3zM401 279q67 -15 120 -15q70 0 112 27q72 46 72 158v6q0 74 -24 117.5t-63 65.5q-40 22 -96 24q-12 1 -24 0q-45 0 -97 -7v-376zM401 885q49 -5 91 -5h14q48 1 83.5 18t55 55t19.5 110q0 63 -19.5 102t-54.5 55 q-31 15 -73 15h-10q-48 -2 -106 -16v-334z" />
<glyph unicode="C" horiz-adv-x="950" d="M49 737v34q0 135 28 263q32 144 103.5 253.5t187 175t281.5 65.5q63 0 130 -20.5t120 -67.5l-43 -381q-27 51 -54.5 81.5t-54 46t-49 20.5t-41.5 5q-72 -2 -124 -50t-83.5 -121.5t-47.5 -159.5q-14 -76 -13 -148v-18q0 -80 12.5 -160t40 -145.5t70.5 -109.5t106 -52 q20 -2 50 3t64 20.5t68 43t64 72.5l8 -348q-72 -39 -138 -53.5t-120 -14.5q-141 0 -246.5 56.5t-175 159t-105.5 242.5t-38 308z" />
<glyph unicode="D" horiz-adv-x="1107" d="M82 0v1489q47 2 96 7t106 11q56 5 120 11q47 4 101 4h40q68 0 133 -16.5t122.5 -48.5t104.5 -80t78 -111q25 -53 41 -131t24.5 -170.5t8.5 -189.5t-7.5 -189t-21.5 -171t-37 -132q-39 -96 -90 -156.5t-115.5 -92.5t-145.5 -40q-46 -5 -98 -5q-39 0 -81 3q-59 4 -114.5 8 t-113.5 4q-39 0 -76.5 -1t-74.5 -3zM401 268q49 -17 94 -17q33 0 63 9q73 21 99 76q25 57 38.5 135t18.5 160q4 68 4 132v25q-1 76 -3 130q-6 111 -33 179t-69 101t-96 35h-9q-50 0 -107 -21v-944z" />
<glyph unicode="E" horiz-adv-x="804" d="M82 0v1489h672v-281h-344v-325h327v-267h-327v-325h344v-291h-672z" />
<glyph unicode="F" horiz-adv-x="827" d="M82 0v1489h694v-281h-368v-325h352v-267h-352v-616h-326z" />
<glyph unicode="G" horiz-adv-x="1146" d="M47 748q0 145 34 286.5t109 255.5q86 125 204 181.5t280 56.5q72 0 160 -20.5t159 -73.5l-57 -375q-29 61 -78 105t-119 53q-18 2 -34 2q-66 0 -115 -26q-60 -32 -99.5 -88t-62 -129t-33.5 -147q-4 -23 -6 -73q-1 -26 -1 -54.5t1 -59.5q2 -64 13.5 -134t34 -127t60.5 -94 t97 -39h12q61 0 96 37q39 41 56.5 100t18.5 126v19q0 55 -5 97h-141v264h448q8 -104 13 -213q3 -43 3 -85q0 -65 -5 -127q-9 -104 -35.5 -195t-79.5 -158q-63 -74 -168 -112q-83 -30 -196 -30q-30 0 -62 2q-152 10 -248 81t-153.5 179.5t-79 242.5t-21.5 272z" />
<glyph unicode="H" horiz-adv-x="1077" d="M72 0v1489h331v-596h271v596h332v-1489h-332v627h-271v-627h-331z" />
<glyph unicode="I" horiz-adv-x="509" d="M88 0v1489h334v-1489h-334z" />
<glyph unicode="J" horiz-adv-x="878" d="M41 49l8 322q43 -59 108.5 -102.5t143.5 -43.5q33 0 63.5 5.5t53 22.5t37 48t14.5 84v1104h328v-1141q0 -106 -37 -179t-99.5 -117t-143.5 -62.5t-169 -18.5q-82 0 -164 18.5t-143 59.5z" />
<glyph unicode="K" horiz-adv-x="1073" d="M82 0v1489h332v-535l280 535h359l-326 -604l311 -885h-358l-197 590l-69 -139v-451h-332z" />
<glyph unicode="L" horiz-adv-x="823" d="M82 0v1489h324v-1198h362v-291h-686z" />
<glyph unicode="M" horiz-adv-x="1267" d="M82 0v1489h342l211 -670l209 670h342v-1489h-324v715l-227 -643l-229 643v-715h-324z" />
<glyph unicode="N" horiz-adv-x="1069" d="M82 0v1489h276l314 -731v731h315v-1489h-262l-324 729v-729h-319z" />
<glyph unicode="O" horiz-adv-x="1243" d="M49 750q0 139 28.5 278t95.5 251t176.5 180.5t273.5 68.5q162 0 271.5 -68.5t176 -180.5t94 -251t27.5 -278q0 -141 -27.5 -280.5t-93 -250t-175 -179.5t-273.5 -69q-166 0 -275.5 69t-175.5 179.5t-93.5 249.5t-29.5 281zM393 745q0 -78 9.5 -164.5t35 -162.5t69.5 -127 t116 -53q70 2 113.5 53t69 127t35 163t9.5 164q0 76 -9.5 159t-35 151.5t-69 116t-113.5 51.5q-72 -4 -116 -51.5t-69.5 -116t-35 -151.5t-9.5 -159z" />
<glyph unicode="P" horiz-adv-x="1067" d="M82 0v1489q78 0 190.5 16.5t270.5 16.5q135 0 246.5 -65.5t168.5 -194.5q36 -80 52 -169q16 -84 15 -167v-10q-1 -88 -16.5 -169t-41.5 -141q-39 -88 -99 -148q-61 -60 -136 -88q-68 -26 -143 -25h-16q-84 3 -172 40v-385h-319zM401 674q17 -23 55 -37q24 -9 52 -9 q16 0 33 3q67 16 113 94q43 72 42 190v21q-4 109 -27.5 175.5t-62.5 98t-91 33.5h-10q-48 0 -104 -18v-551z" />
<glyph unicode="Q" horiz-adv-x="1267" d="M49 752q0 143 30 282.5t98.5 249t180 177t275.5 67.5q166 0 278.5 -68.5t180 -179.5t96.5 -250t29 -282q0 -117 -20.5 -234t-67 -218t-120 -179t-182.5 -117q8 -29 11.5 -58.5t3.5 -58.5q-2 -49 -22.5 -88t-54.5 -65.5t-78 -40t-89 -13.5h-8q-72 0 -140 34 q-73 36 -106 97l96 130q16 -27 44 -41.5t57 -12.5q43 4 49 30.5t2 59.5q-156 6 -260.5 77t-167 181.5t-89 246.5t-26.5 274zM389 748q0 -61 6 -132t23.5 -139.5t46.5 -131t74 -105.5q-12 49 -19 106q-6 41 -6 81q0 16 1 31q3 56 18.5 107t46.5 92q25 33 62.5 52.5t78.5 29 t83 10.5h10q36 0 65 -6v2q0 78 -11.5 161t-40 152.5t-77 115t-119.5 49.5q-72 -4 -118 -49.5t-73.5 -114t-39 -151.5t-11.5 -160zM734 419q1 -38 7.5 -79t14.5 -76q25 29 45 69t35.5 84t24.5 87t9 78q-29 4 -61.5 -6.5t-48.5 -32.5q-14 -18 -20 -52q-6 -29 -6 -62v-10z" />
<glyph unicode="R" horiz-adv-x="1048" d="M82 0v1489q31 0 81 5t103 11t105.5 11.5t87.5 5.5q72 0 152.5 -8.5t154.5 -47.5q120 -61 184 -196q56 -120 57 -316q0 -25 -1 -51q-16 -188 -81 -286.5t-167 -135.5l248 -481h-351l-219 459h-35v-459h-319zM401 702q50 -20 91 -20q18 0 36 4q54 14 89.5 54t52 101.5 t16.5 131.5q0 47 -9 94t-30.5 85t-55.5 61.5t-85 23.5q-53 0 -105 -10v-525z" />
<glyph unicode="S" horiz-adv-x="937" d="M43 1061q4 57 15.5 107.5t25.5 80.5q27 61 71 114.5t104 91.5q60 37 139 57q66 16 143 17q16 0 32 -1q25 0 57 -6t64.5 -16.5t63 -26t55.5 -35.5l-47 -383q-41 86 -93 115.5t-104 31.5q-88 0 -139 -51t-57 -137q-1 -11 -1 -22q0 -64 32 -103q36 -45 108 -76 q76 -31 141.5 -60.5t114.5 -71.5t82 -105.5t43 -163.5q3 -25 2 -50q1 -55 -11 -110q-18 -80 -53 -133q-29 -45 -69.5 -75t-86.5 -47t-95.5 -24.5t-98.5 -7.5q-47 0 -97 6.5t-98 18.5t-90 29.5t-73 37.5l20 330q37 -66 103 -109q66 -44 132 -58q24 -5 47 -4q39 0 73 14 q54 24 65 92q3 18 3 36q0 40 -16 80q-22 58 -75 95q-51 35 -110.5 55t-115.5 47t-104.5 68t-74.5 118q-18 53 -24 115q-4 38 -5 75q0 22 2 44z" />
<glyph unicode="T" horiz-adv-x="1001" d="M41 1208l22 281h871l27 -281h-285v-1208h-336v1208h-299z" />
<glyph unicode="U" horiz-adv-x="1105" d="M82 410v1079h328v-1061q0 -37 4 -69.5t17 -57.5t42 -39t80 -14t80 14t42 39t17 57.5t4 69.5v1061h328v-1079q0 -227 -122 -333t-349 -106q-225 0 -348 105.5t-123 333.5z" />
<glyph unicode="V" horiz-adv-x="1089" d="M31 1489h344l155 -1032l17 -125l14 125l156 1032h342l-309 -1489h-408z" />
<glyph unicode="W" horiz-adv-x="1476" d="M31 1489h338l98 -885l149 885h244l148 -885l96 885h342l-272 -1489h-306l-131 825l-129 -825h-307z" />
<glyph unicode="X" horiz-adv-x="1085" d="M25 0l297 768l-283 721h346l158 -516l157 516h347l-283 -721l297 -768h-356l-162 535l-162 -535h-356z" />
<glyph unicode="Y" horiz-adv-x="1173" d="M25 1489h362l201 -647l196 647h365l-399 -1008v-481h-330v481z" />
<glyph unicode="Z" horiz-adv-x="933" d="M51 0v188l461 1020h-424v281h795v-213l-432 -985h362v-291h-762z" />
<glyph unicode="[" d="M68 731q0 150 56 282t154.5 230t230.5 155.5t282 57.5t281.5 -57.5t230 -155.5t156 -230t57.5 -282t-57.5 -282t-156 -230t-230 -155.5t-281.5 -57.5t-282 57.5t-230.5 155.5t-154.5 230.5t-56 281.5zM164 731q0 -129 49 -242.5t135 -199.5t200 -135.5t243 -49.5 q131 0 244.5 49.5t197.5 135.5t133 199.5t49 242.5t-49 242.5t-133 198.5t-197.5 134.5t-244.5 49.5q-129 0 -243 -49.5t-200 -134.5t-135 -198.5t-49 -242.5zM207 731q0 119 46 224.5t126 184.5t185.5 124t226.5 45q119 0 225 -45t185 -124t125 -184.5t46 -224.5 q0 -121 -46 -227.5t-125 -185t-185 -125t-225 -46.5q-121 0 -226.5 46.5t-185.5 125t-126 185t-46 227.5zM330 664l112 -177q346 -80 699 0l110 177h-921zM451 1063l151 -189q4 -4 15.5 -0.5t23.5 9.5t20.5 12t8.5 8q-29 57 -47.5 118.5t-53.5 111.5q-6 8 -26.5 -0.5 t-42 -22.5t-38 -28.5t-11.5 -18.5zM463 457q20 -35 51 -74t73 -70.5t92.5 -53t111.5 -21.5q59 0 110 21.5t92 53t73 70.5t52 74q-164 -43 -326.5 -42t-328.5 42zM715 731h155l-77 187zM918 903q-4 -2 4 -8t19 -12t23.5 -9.5t18.5 0.5l147 189q4 4 -11 18.5t-36.5 28.5 t-42 22.5t-26.5 0.5q-39 -49 -55.5 -110.5t-40.5 -119.5zM1290 102v23h84v-23h-31v-77h-22v77h-31zM1384 25v100h31l19 -78l18 78h29v-100h-19v77l-20 -77h-19l-20 77v-77h-19z" />
<glyph unicode="\" d="M68 731q0 150 56 282t154.5 230t230.5 155.5t282 57.5t281.5 -57.5t230 -155.5t156 -230t57.5 -282t-57.5 -282t-156 -230t-230 -155.5t-281.5 -57.5t-282 57.5t-230.5 155.5t-154.5 230.5t-56 281.5zM164 731q0 -129 49 -242.5t135 -199.5t200 -135.5t243 -49.5 q131 0 244.5 49.5t197.5 135.5t133 199.5t49 242.5t-49 242.5t-133 198.5t-197.5 134.5t-244.5 49.5q-129 0 -243 -49.5t-200 -134.5t-135 -198.5t-49 -242.5zM207 731q0 119 46 224.5t126 184.5t185.5 124t226.5 45q119 0 225 -45t185 -124t125 -184.5t46 -224.5 q0 -121 -46 -227.5t-125 -185t-185 -125t-225 -46.5q-121 0 -226.5 46.5t-185.5 125t-126 185t-46 227.5zM330 664l112 -177q346 -80 699 0l110 177h-921zM451 1063l151 -189q4 -4 15.5 -0.5t23.5 9.5t20.5 12t8.5 8q-29 57 -47.5 118.5t-53.5 111.5q-6 8 -26.5 -0.5 t-42 -22.5t-38 -28.5t-11.5 -18.5zM463 457q20 -35 51 -74t73 -70.5t92.5 -53t111.5 -21.5q59 0 110 21.5t92 53t73 70.5t52 74q-164 -43 -326.5 -42t-328.5 42zM715 731h155l-77 187zM918 903q-4 -2 4 -8t19 -12t23.5 -9.5t18.5 0.5l147 189q4 4 -11 18.5t-36.5 28.5 t-42 22.5t-26.5 0.5q-39 -49 -55.5 -110.5t-40.5 -119.5zM1290 102v23h84v-23h-31v-77h-22v77h-31zM1384 25v100h31l19 -78l18 78h29v-100h-19v77l-20 -77h-19l-20 77v-77h-19z" />
<glyph unicode="]" d="M68 731q0 150 56 282t154.5 230t230.5 155.5t282 57.5t281.5 -57.5t230 -155.5t156 -230t57.5 -282t-57.5 -282t-156 -230t-230 -155.5t-281.5 -57.5t-282 57.5t-230.5 155.5t-154.5 230.5t-56 281.5zM164 731q0 -129 49 -242.5t135 -199.5t200 -135.5t243 -49.5 q131 0 244.5 49.5t197.5 135.5t133 199.5t49 242.5t-49 242.5t-133 198.5t-197.5 134.5t-244.5 49.5q-129 0 -243 -49.5t-200 -134.5t-135 -198.5t-49 -242.5zM207 731q0 119 46 224.5t126 184.5t185.5 124t226.5 45q119 0 225 -45t185 -124t125 -184.5t46 -224.5 q0 -121 -46 -227.5t-125 -185t-185 -125t-225 -46.5q-121 0 -226.5 46.5t-185.5 125t-126 185t-46 227.5zM330 664l112 -177q346 -80 699 0l110 177h-921zM451 1063l151 -189q4 -4 15.5 -0.5t23.5 9.5t20.5 12t8.5 8q-29 57 -47.5 118.5t-53.5 111.5q-6 8 -26.5 -0.5 t-42 -22.5t-38 -28.5t-11.5 -18.5zM463 457q20 -35 51 -74t73 -70.5t92.5 -53t111.5 -21.5q59 0 110 21.5t92 53t73 70.5t52 74q-164 -43 -326.5 -42t-328.5 42zM715 731h155l-77 187zM918 903q-4 -2 4 -8t19 -12t23.5 -9.5t18.5 0.5l147 189q4 4 -11 18.5t-36.5 28.5 t-42 22.5t-26.5 0.5q-39 -49 -55.5 -110.5t-40.5 -119.5zM1290 102v23h84v-23h-31v-77h-22v77h-31zM1384 25v100h31l19 -78l18 78h29v-100h-19v77l-20 -77h-19l-20 77v-77h-19z" />
<glyph unicode="^" d="M68 731q0 150 56 282t154.5 230t230.5 155.5t282 57.5t281.5 -57.5t230 -155.5t156 -230t57.5 -282t-57.5 -282t-156 -230t-230 -155.5t-281.5 -57.5t-282 57.5t-230.5 155.5t-154.5 230.5t-56 281.5zM164 731q0 -129 49 -242.5t135 -199.5t200 -135.5t243 -49.5 q131 0 244.5 49.5t197.5 135.5t133 199.5t49 242.5t-49 242.5t-133 198.5t-197.5 134.5t-244.5 49.5q-129 0 -243 -49.5t-200 -134.5t-135 -198.5t-49 -242.5zM207 731q0 119 46 224.5t126 184.5t185.5 124t226.5 45q119 0 225 -45t185 -124t125 -184.5t46 -224.5 q0 -121 -46 -227.5t-125 -185t-185 -125t-225 -46.5q-121 0 -226.5 46.5t-185.5 125t-126 185t-46 227.5zM330 664l112 -177q346 -80 699 0l110 177h-921zM451 1063l151 -189q4 -4 15.5 -0.5t23.5 9.5t20.5 12t8.5 8q-29 57 -47.5 118.5t-53.5 111.5q-6 8 -26.5 -0.5 t-42 -22.5t-38 -28.5t-11.5 -18.5zM463 457q20 -35 51 -74t73 -70.5t92.5 -53t111.5 -21.5q59 0 110 21.5t92 53t73 70.5t52 74q-164 -43 -326.5 -42t-328.5 42zM715 731h155l-77 187zM918 903q-4 -2 4 -8t19 -12t23.5 -9.5t18.5 0.5l147 189q4 4 -11 18.5t-36.5 28.5 t-42 22.5t-26.5 0.5q-39 -49 -55.5 -110.5t-40.5 -119.5zM1290 102v23h84v-23h-31v-77h-22v77h-31zM1384 25v100h31l19 -78l18 78h29v-100h-19v77l-20 -77h-19l-20 77v-77h-19z" />
<glyph unicode="_" horiz-adv-x="751" d="M61 -35h629v-233h-629v233z" />
<glyph unicode="`" d="M68 731q0 150 56 282t154.5 230t230.5 155.5t282 57.5t281.5 -57.5t230 -155.5t156 -230t57.5 -282t-57.5 -282t-156 -230t-230 -155.5t-281.5 -57.5t-282 57.5t-230.5 155.5t-154.5 230.5t-56 281.5zM164 731q0 -129 49 -242.5t135 -199.5t200 -135.5t243 -49.5 q131 0 244.5 49.5t197.5 135.5t133 199.5t49 242.5t-49 242.5t-133 198.5t-197.5 134.5t-244.5 49.5q-129 0 -243 -49.5t-200 -134.5t-135 -198.5t-49 -242.5zM207 731q0 119 46 224.5t126 184.5t185.5 124t226.5 45q119 0 225 -45t185 -124t125 -184.5t46 -224.5 q0 -121 -46 -227.5t-125 -185t-185 -125t-225 -46.5q-121 0 -226.5 46.5t-185.5 125t-126 185t-46 227.5zM330 664l112 -177q346 -80 699 0l110 177h-921zM451 1063l151 -189q4 -4 15.5 -0.5t23.5 9.5t20.5 12t8.5 8q-29 57 -47.5 118.5t-53.5 111.5q-6 8 -26.5 -0.5 t-42 -22.5t-38 -28.5t-11.5 -18.5zM463 457q20 -35 51 -74t73 -70.5t92.5 -53t111.5 -21.5q59 0 110 21.5t92 53t73 70.5t52 74q-164 -43 -326.5 -42t-328.5 42zM715 731h155l-77 187zM918 903q-4 -2 4 -8t19 -12t23.5 -9.5t18.5 0.5l147 189q4 4 -11 18.5t-36.5 28.5 t-42 22.5t-26.5 0.5q-39 -49 -55.5 -110.5t-40.5 -119.5zM1290 102v23h84v-23h-31v-77h-22v77h-31zM1384 25v100h31l19 -78l18 78h29v-100h-19v77l-20 -77h-19l-20 77v-77h-19z" />
<glyph unicode="a" horiz-adv-x="1110" d="M31 0l264 1489h520l264 -1489h-338l-34 283h-297l-31 -283h-348zM451 553h219l-86 653h-52z" />
<glyph unicode="b" horiz-adv-x="1122" d="M82 0v1489q109 6 214 19.5t222 13.5q43 0 89 -3t92 -12.5t87 -28t76 -46.5q70 -59 98.5 -141.5t28.5 -170.5q0 -100 -51 -186t-156 -125q152 -25 226 -129q71 -99 71 -243v-15q0 -104 -41 -194.5t-116 -149.5q-76 -60 -190 -78q-74 -12 -166 -12q-50 0 -105 4 q-59 4 -114.5 8t-113.5 4q-39 0 -76.5 -1t-74.5 -3zM401 279q67 -15 120 -15q70 0 112 27q72 46 72 158v6q0 74 -24 117.5t-63 65.5q-40 22 -96 24q-12 1 -24 0q-45 0 -97 -7v-376zM401 885q49 -5 91 -5h14q48 1 83.5 18t55 55t19.5 110q0 63 -19.5 102t-54.5 55 q-31 15 -73 15h-10q-48 -2 -106 -16v-334z" />
<glyph unicode="c" horiz-adv-x="950" d="M49 737v34q0 135 28 263q32 144 103.5 253.5t187 175t281.5 65.5q63 0 130 -20.5t120 -67.5l-43 -381q-27 51 -54.5 81.5t-54 46t-49 20.5t-41.5 5q-72 -2 -124 -50t-83.5 -121.5t-47.5 -159.5q-14 -76 -13 -148v-18q0 -80 12.5 -160t40 -145.5t70.5 -109.5t106 -52 q20 -2 50 3t64 20.5t68 43t64 72.5l8 -348q-72 -39 -138 -53.5t-120 -14.5q-141 0 -246.5 56.5t-175 159t-105.5 242.5t-38 308z" />
<glyph unicode="d" horiz-adv-x="1107" d="M82 0v1489q47 2 96 7t106 11q56 5 120 11q47 4 101 4h40q68 0 133 -16.5t122.5 -48.5t104.5 -80t78 -111q25 -53 41 -131t24.5 -170.5t8.5 -189.5t-7.5 -189t-21.5 -171t-37 -132q-39 -96 -90 -156.5t-115.5 -92.5t-145.5 -40q-46 -5 -98 -5q-39 0 -81 3q-59 4 -114.5 8 t-113.5 4q-39 0 -76.5 -1t-74.5 -3zM401 268q49 -17 94 -17q33 0 63 9q73 21 99 76q25 57 38.5 135t18.5 160q4 68 4 132v25q-1 76 -3 130q-6 111 -33 179t-69 101t-96 35h-9q-50 0 -107 -21v-944z" />
<glyph unicode="e" horiz-adv-x="804" d="M82 0v1489h672v-281h-344v-325h327v-267h-327v-325h344v-291h-672z" />
<glyph unicode="f" horiz-adv-x="827" d="M82 0v1489h694v-281h-368v-325h352v-267h-352v-616h-326z" />
<glyph unicode="g" horiz-adv-x="1146" d="M47 748q0 145 34 286.5t109 255.5q86 125 204 181.5t280 56.5q72 0 160 -20.5t159 -73.5l-57 -375q-29 61 -78 105t-119 53q-18 2 -34 2q-66 0 -115 -26q-60 -32 -99.5 -88t-62 -129t-33.5 -147q-4 -23 -6 -73q-1 -26 -1 -54.5t1 -59.5q2 -64 13.5 -134t34 -127t60.5 -94 t97 -39h12q61 0 96 37q39 41 56.5 100t18.5 126v19q0 55 -5 97h-141v264h448q8 -104 13 -213q3 -43 3 -85q0 -65 -5 -127q-9 -104 -35.5 -195t-79.5 -158q-63 -74 -168 -112q-83 -30 -196 -30q-30 0 -62 2q-152 10 -248 81t-153.5 179.5t-79 242.5t-21.5 272z" />
<glyph unicode="h" horiz-adv-x="1077" d="M72 0v1489h331v-596h271v596h332v-1489h-332v627h-271v-627h-331z" />
<glyph unicode="i" horiz-adv-x="509" d="M88 0v1489h334v-1489h-334z" />
<glyph unicode="j" horiz-adv-x="878" d="M41 49l8 322q43 -59 108.5 -102.5t143.5 -43.5q33 0 63.5 5.5t53 22.5t37 48t14.5 84v1104h328v-1141q0 -106 -37 -179t-99.5 -117t-143.5 -62.5t-169 -18.5q-82 0 -164 18.5t-143 59.5z" />
<glyph unicode="k" horiz-adv-x="1073" d="M82 0v1489h332v-535l280 535h359l-326 -604l311 -885h-358l-197 590l-69 -139v-451h-332z" />
<glyph unicode="l" horiz-adv-x="823" d="M82 0v1489h324v-1198h362v-291h-686z" />
<glyph unicode="m" horiz-adv-x="1267" d="M82 0v1489h342l211 -670l209 670h342v-1489h-324v715l-227 -643l-229 643v-715h-324z" />
<glyph unicode="n" horiz-adv-x="1069" d="M82 0v1489h276l314 -731v731h315v-1489h-262l-324 729v-729h-319z" />
<glyph unicode="o" horiz-adv-x="1243" d="M49 750q0 139 28.5 278t95.5 251t176.5 180.5t273.5 68.5q162 0 271.5 -68.5t176 -180.5t94 -251t27.5 -278q0 -141 -27.5 -280.5t-93 -250t-175 -179.5t-273.5 -69q-166 0 -275.5 69t-175.5 179.5t-93.5 249.5t-29.5 281zM393 745q0 -78 9.5 -164.5t35 -162.5t69.5 -127 t116 -53q70 2 113.5 53t69 127t35 163t9.5 164q0 76 -9.5 159t-35 151.5t-69 116t-113.5 51.5q-72 -4 -116 -51.5t-69.5 -116t-35 -151.5t-9.5 -159z" />
<glyph unicode="p" horiz-adv-x="1067" d="M82 0v1489q78 0 190.5 16.5t270.5 16.5q135 0 246.5 -65.5t168.5 -194.5q35 -80 52 -169q15 -84 15 -167v-10q-1 -89 -16.5 -169.5t-41.5 -140.5q-39 -88 -99.5 -147.5t-135.5 -88.5q-68 -25 -143 -25h-16q-84 3 -172 40v-385h-319zM401 674q18 -23 55 -37q24 -9 52 -9 q16 0 33 3q66 16 113 94q42 72 42 190v21q-4 109 -27.5 175.5t-62.5 98t-91 33.5h-10q-48 0 -104 -18v-551z" />
<glyph unicode="q" horiz-adv-x="1267" d="M49 752q0 143 30 282.5t98.5 249t180 177t275.5 67.5q166 0 278.5 -68.5t180 -179.5t96.5 -250t29 -282q0 -117 -20.5 -234t-67 -218t-120 -179t-182.5 -117q8 -29 11.5 -58.5t3.5 -58.5q-2 -49 -22.5 -88t-54.5 -65.5t-78 -40t-89 -13.5h-8q-72 0 -140 34 q-73 36 -106 97l96 130q16 -27 44 -41.5t57 -12.5q43 4 49 30.5t2 59.5q-156 6 -260.5 77t-167 181.5t-89 246.5t-26.5 274zM389 748q0 -61 6 -132t23.5 -139.5t46.5 -131t74 -105.5q-12 49 -19 106q-6 41 -6 81q0 16 1 31q3 56 18.5 107t46.5 92q25 33 62.5 52.5t78.5 29 t83 10.5h10q36 0 65 -6v2q0 78 -11.5 161t-40 152.5t-77 115t-119.5 49.5q-72 -4 -118 -49.5t-73.5 -114t-39 -151.5t-11.5 -160zM734 419q1 -38 7.5 -79t14.5 -76q25 29 45 69t35.5 84t24.5 87t9 78q-29 4 -61.5 -6.5t-48.5 -32.5q-14 -18 -20 -52q-6 -29 -6 -62v-10z" />
<glyph unicode="r" horiz-adv-x="1048" d="M82 0v1489q31 0 81 5t103 11t105.5 11.5t87.5 5.5q72 0 152.5 -8.5t154.5 -47.5q120 -61 184 -196q56 -120 57 -316q0 -25 -1 -51q-16 -188 -81 -286.5t-167 -135.5l248 -481h-351l-219 459h-35v-459h-319zM401 702q50 -20 91 -20q18 0 36 4q54 14 89.5 54t52 101.5 t16.5 131.5q0 47 -9 94t-30.5 85t-55.5 61.5t-85 23.5q-53 0 -105 -10v-525z" />
<glyph unicode="s" horiz-adv-x="937" d="M43 1061q4 57 15.5 107.5t25.5 80.5q27 61 71 114.5t104 91.5q60 37 139 57q66 16 143 17q16 0 32 -1q25 0 57 -6t64.5 -16.5t63 -26t55.5 -35.5l-47 -383q-41 86 -93 115.5t-104 31.5q-88 0 -139 -51t-57 -137q-1 -11 -1 -22q0 -64 32 -103q36 -45 108 -76 q76 -31 141.5 -60.5t114.5 -71.5t82 -105.5t43 -163.5q3 -25 2 -50q1 -55 -11 -110q-18 -80 -53 -133q-29 -45 -69.5 -75t-86.5 -47t-95.5 -24.5t-98.5 -7.5q-47 0 -97 6.5t-98 18.5t-90 29.5t-73 37.5l20 330q37 -66 103 -109q66 -44 132 -58q24 -5 47 -4q39 0 73 14 q54 24 65 92q3 18 3 36q0 40 -16 80q-22 58 -75 95q-51 35 -110.5 55t-115.5 47t-104.5 68t-74.5 118q-18 53 -24 115q-4 38 -5 75q0 22 2 44z" />
<glyph unicode="t" horiz-adv-x="1001" d="M41 1208l22 281h871l27 -281h-285v-1208h-336v1208h-299z" />
<glyph unicode="u" horiz-adv-x="1105" d="M82 410v1079h328v-1061q0 -37 4 -69.5t17 -57.5t42 -39t80 -14t80 14t42 39t17 57.5t4 69.5v1061h328v-1079q0 -227 -122 -333t-349 -106q-225 0 -348 105.5t-123 333.5z" />
<glyph unicode="v" horiz-adv-x="1089" d="M31 1489h344l155 -1032l17 -125l14 125l156 1032h342l-309 -1489h-408z" />
<glyph unicode="w" horiz-adv-x="1476" d="M31 1489h338l98 -885l149 885h244l148 -885l96 885h342l-272 -1489h-306l-131 825l-129 -825h-307z" />
<glyph unicode="x" horiz-adv-x="1085" d="M25 0l297 768l-283 721h346l158 -516l157 516h347l-283 -721l297 -768h-356l-162 535l-162 -535h-356z" />
<glyph unicode="y" horiz-adv-x="1173" d="M25 1489h362l201 -647l196 647h365l-399 -1008v-481h-330v481z" />
<glyph unicode="z" horiz-adv-x="933" d="M51 0v188l461 1020h-424v281h795v-213l-432 -985h362v-291h-762z" />
<glyph unicode="{" d="M68 731q0 150 56 282t154.5 230t230.5 155.5t282 57.5t281.5 -57.5t230 -155.5t156 -230t57.5 -282t-57.5 -282t-156 -230t-230 -155.5t-281.5 -57.5t-282 57.5t-230.5 155.5t-154.5 230.5t-56 281.5zM164 731q0 -129 49 -242.5t135 -199.5t200 -135.5t243 -49.5 q131 0 244.5 49.5t197.5 135.5t133 199.5t49 242.5t-49 242.5t-133 198.5t-197.5 134.5t-244.5 49.5q-129 0 -243 -49.5t-200 -134.5t-135 -198.5t-49 -242.5zM207 731q0 119 46 224.5t126 184.5t185.5 124t226.5 45q119 0 225 -45t185 -124t125 -184.5t46 -224.5 q0 -121 -46 -227.5t-125 -185t-185 -125t-225 -46.5q-121 0 -226.5 46.5t-185.5 125t-126 185t-46 227.5zM330 664l112 -177q346 -80 699 0l110 177h-921zM451 1063l151 -189q4 -4 15.5 -0.5t23.5 9.5t20.5 12t8.5 8q-29 57 -47.5 118.5t-53.5 111.5q-6 8 -26.5 -0.5 t-42 -22.5t-38 -28.5t-11.5 -18.5zM463 457q20 -35 51 -74t73 -70.5t92.5 -53t111.5 -21.5q59 0 110 21.5t92 53t73 70.5t52 74q-164 -43 -326.5 -42t-328.5 42zM715 731h155l-77 187zM918 903q-4 -2 4 -8t19 -12t23.5 -9.5t18.5 0.5l147 189q4 4 -11 18.5t-36.5 28.5 t-42 22.5t-26.5 0.5q-39 -49 -55.5 -110.5t-40.5 -119.5zM1290 102v23h84v-23h-31v-77h-22v77h-31zM1384 25v100h31l19 -78l18 78h29v-100h-19v77l-20 -77h-19l-20 77v-77h-19z" />
<glyph unicode="|" d="M68 731q0 150 56 282t154.5 230t230.5 155.5t282 57.5t281.5 -57.5t230 -155.5t156 -230t57.5 -282t-57.5 -282t-156 -230t-230 -155.5t-281.5 -57.5t-282 57.5t-230.5 155.5t-154.5 230.5t-56 281.5zM164 731q0 -129 49 -242.5t135 -199.5t200 -135.5t243 -49.5 q131 0 244.5 49.5t197.5 135.5t133 199.5t49 242.5t-49 242.5t-133 198.5t-197.5 134.5t-244.5 49.5q-129 0 -243 -49.5t-200 -134.5t-135 -198.5t-49 -242.5zM207 731q0 119 46 224.5t126 184.5t185.5 124t226.5 45q119 0 225 -45t185 -124t125 -184.5t46 -224.5 q0 -121 -46 -227.5t-125 -185t-185 -125t-225 -46.5q-121 0 -226.5 46.5t-185.5 125t-126 185t-46 227.5zM330 664l112 -177q346 -80 699 0l110 177h-921zM451 1063l151 -189q4 -4 15.5 -0.5t23.5 9.5t20.5 12t8.5 8q-29 57 -47.5 118.5t-53.5 111.5q-6 8 -26.5 -0.5 t-42 -22.5t-38 -28.5t-11.5 -18.5zM463 457q20 -35 51 -74t73 -70.5t92.5 -53t111.5 -21.5q59 0 110 21.5t92 53t73 70.5t52 74q-164 -43 -326.5 -42t-328.5 42zM715 731h155l-77 187zM918 903q-4 -2 4 -8t19 -12t23.5 -9.5t18.5 0.5l147 189q4 4 -11 18.5t-36.5 28.5 t-42 22.5t-26.5 0.5q-39 -49 -55.5 -110.5t-40.5 -119.5zM1290 102v23h84v-23h-31v-77h-22v77h-31zM1384 25v100h31l19 -78l18 78h29v-100h-19v77l-20 -77h-19l-20 77v-77h-19z" />
<glyph unicode="}" d="M68 731q0 150 56 282t154.5 230t230.5 155.5t282 57.5t281.5 -57.5t230 -155.5t156 -230t57.5 -282t-57.5 -282t-156 -230t-230 -155.5t-281.5 -57.5t-282 57.5t-230.5 155.5t-154.5 230.5t-56 281.5zM164 731q0 -129 49 -242.5t135 -199.5t200 -135.5t243 -49.5 q131 0 244.5 49.5t197.5 135.5t133 199.5t49 242.5t-49 242.5t-133 198.5t-197.5 134.5t-244.5 49.5q-129 0 -243 -49.5t-200 -134.5t-135 -198.5t-49 -242.5zM207 731q0 119 46 224.5t126 184.5t185.5 124t226.5 45q119 0 225 -45t185 -124t125 -184.5t46 -224.5 q0 -121 -46 -227.5t-125 -185t-185 -125t-225 -46.5q-121 0 -226.5 46.5t-185.5 125t-126 185t-46 227.5zM330 664l112 -177q346 -80 699 0l110 177h-921zM451 1063l151 -189q4 -4 15.5 -0.5t23.5 9.5t20.5 12t8.5 8q-29 57 -47.5 118.5t-53.5 111.5q-6 8 -26.5 -0.5 t-42 -22.5t-38 -28.5t-11.5 -18.5zM463 457q20 -35 51 -74t73 -70.5t92.5 -53t111.5 -21.5q59 0 110 21.5t92 53t73 70.5t52 74q-164 -43 -326.5 -42t-328.5 42zM715 731h155l-77 187zM918 903q-4 -2 4 -8t19 -12t23.5 -9.5t18.5 0.5l147 189q4 4 -11 18.5t-36.5 28.5 t-42 22.5t-26.5 0.5q-39 -49 -55.5 -110.5t-40.5 -119.5zM1290 102v23h84v-23h-31v-77h-22v77h-31zM1384 25v100h31l19 -78l18 78h29v-100h-19v77l-20 -77h-19l-20 77v-77h-19z" />
<glyph unicode="~" d="M68 731q0 150 56 282t154.5 230t230.5 155.5t282 57.5t281.5 -57.5t230 -155.5t156 -230t57.5 -282t-57.5 -282t-156 -230t-230 -155.5t-281.5 -57.5t-282 57.5t-230.5 155.5t-154.5 230.5t-56 281.5zM164 731q0 -129 49 -242.5t135 -199.5t200 -135.5t243 -49.5 q131 0 244.5 49.5t197.5 135.5t133 199.5t49 242.5t-49 242.5t-133 198.5t-197.5 134.5t-244.5 49.5q-129 0 -243 -49.5t-200 -134.5t-135 -198.5t-49 -242.5zM207 731q0 119 46 224.5t126 184.5t185.5 124t226.5 45q119 0 225 -45t185 -124t125 -184.5t46 -224.5 q0 -121 -46 -227.5t-125 -185t-185 -125t-225 -46.5q-121 0 -226.5 46.5t-185.5 125t-126 185t-46 227.5zM330 664l112 -177q346 -80 699 0l110 177h-921zM451 1063l151 -189q4 -4 15.5 -0.5t23.5 9.5t20.5 12t8.5 8q-29 57 -47.5 118.5t-53.5 111.5q-6 8 -26.5 -0.5 t-42 -22.5t-38 -28.5t-11.5 -18.5zM463 457q20 -35 51 -74t73 -70.5t92.5 -53t111.5 -21.5q59 0 110 21.5t92 53t73 70.5t52 74q-164 -43 -326.5 -42t-328.5 42zM715 731h155l-77 187zM918 903q-4 -2 4 -8t19 -12t23.5 -9.5t18.5 0.5l147 189q4 4 -11 18.5t-36.5 28.5 t-42 22.5t-26.5 0.5q-39 -49 -55.5 -110.5t-40.5 -119.5zM1290 102v23h84v-23h-31v-77h-22v77h-31zM1384 25v100h31l19 -78l18 78h29v-100h-19v77l-20 -77h-19l-20 77v-77h-19z" />
<glyph unicode="&#xa1;" d="M68 731q0 150 56 282t154.5 230t230.5 155.5t282 57.5t281.5 -57.5t230 -155.5t156 -230t57.5 -282t-57.5 -282t-156 -230t-230 -155.5t-281.5 -57.5t-282 57.5t-230.5 155.5t-154.5 230.5t-56 281.5zM164 731q0 -129 49 -242.5t135 -199.5t200 -135.5t243 -49.5 q131 0 244.5 49.5t197.5 135.5t133 199.5t49 242.5t-49 242.5t-133 198.5t-197.5 134.5t-244.5 49.5q-129 0 -243 -49.5t-200 -134.5t-135 -198.5t-49 -242.5zM207 731q0 119 46 224.5t126 184.5t185.5 124t226.5 45q119 0 225 -45t185 -124t125 -184.5t46 -224.5 q0 -121 -46 -227.5t-125 -185t-185 -125t-225 -46.5q-121 0 -226.5 46.5t-185.5 125t-126 185t-46 227.5zM330 664l112 -177q346 -80 699 0l110 177h-921zM451 1063l151 -189q4 -4 15.5 -0.5t23.5 9.5t20.5 12t8.5 8q-29 57 -47.5 118.5t-53.5 111.5q-6 8 -26.5 -0.5 t-42 -22.5t-38 -28.5t-11.5 -18.5zM463 457q20 -35 51 -74t73 -70.5t92.5 -53t111.5 -21.5q59 0 110 21.5t92 53t73 70.5t52 74q-164 -43 -326.5 -42t-328.5 42zM715 731h155l-77 187zM918 903q-4 -2 4 -8t19 -12t23.5 -9.5t18.5 0.5l147 189q4 4 -11 18.5t-36.5 28.5 t-42 22.5t-26.5 0.5q-39 -49 -55.5 -110.5t-40.5 -119.5zM1290 102v23h84v-23h-31v-77h-22v77h-31zM1384 25v100h31l19 -78l18 78h29v-100h-19v77l-20 -77h-19l-20 77v-77h-19z" />
<glyph unicode="&#xa2;" d="M68 731q0 150 56 282t154.5 230t230.5 155.5t282 57.5t281.5 -57.5t230 -155.5t156 -230t57.5 -282t-57.5 -282t-156 -230t-230 -155.5t-281.5 -57.5t-282 57.5t-230.5 155.5t-154.5 230.5t-56 281.5zM164 731q0 -129 49 -242.5t135 -199.5t200 -135.5t243 -49.5 q131 0 244.5 49.5t197.5 135.5t133 199.5t49 242.5t-49 242.5t-133 198.5t-197.5 134.5t-244.5 49.5q-129 0 -243 -49.5t-200 -134.5t-135 -198.5t-49 -242.5zM207 731q0 119 46 224.5t126 184.5t185.5 124t226.5 45q119 0 225 -45t185 -124t125 -184.5t46 -224.5 q0 -121 -46 -227.5t-125 -185t-185 -125t-225 -46.5q-121 0 -226.5 46.5t-185.5 125t-126 185t-46 227.5zM330 664l112 -177q346 -80 699 0l110 177h-921zM451 1063l151 -189q4 -4 15.5 -0.5t23.5 9.5t20.5 12t8.5 8q-29 57 -47.5 118.5t-53.5 111.5q-6 8 -26.5 -0.5 t-42 -22.5t-38 -28.5t-11.5 -18.5zM463 457q20 -35 51 -74t73 -70.5t92.5 -53t111.5 -21.5q59 0 110 21.5t92 53t73 70.5t52 74q-164 -43 -326.5 -42t-328.5 42zM715 731h155l-77 187zM918 903q-4 -2 4 -8t19 -12t23.5 -9.5t18.5 0.5l147 189q4 4 -11 18.5t-36.5 28.5 t-42 22.5t-26.5 0.5q-39 -49 -55.5 -110.5t-40.5 -119.5zM1290 102v23h84v-23h-31v-77h-22v77h-31zM1384 25v100h31l19 -78l18 78h29v-100h-19v77l-20 -77h-19l-20 77v-77h-19z" />
<glyph unicode="&#xa3;" d="M68 731q0 150 56 282t154.5 230t230.5 155.5t282 57.5t281.5 -57.5t230 -155.5t156 -230t57.5 -282t-57.5 -282t-156 -230t-230 -155.5t-281.5 -57.5t-282 57.5t-230.5 155.5t-154.5 230.5t-56 281.5zM164 731q0 -129 49 -242.5t135 -199.5t200 -135.5t243 -49.5 q131 0 244.5 49.5t197.5 135.5t133 199.5t49 242.5t-49 242.5t-133 198.5t-197.5 134.5t-244.5 49.5q-129 0 -243 -49.5t-200 -134.5t-135 -198.5t-49 -242.5zM207 731q0 119 46 224.5t126 184.5t185.5 124t226.5 45q119 0 225 -45t185 -124t125 -184.5t46 -224.5 q0 -121 -46 -227.5t-125 -185t-185 -125t-225 -46.5q-121 0 -226.5 46.5t-185.5 125t-126 185t-46 227.5zM330 664l112 -177q346 -80 699 0l110 177h-921zM451 1063l151 -189q4 -4 15.5 -0.5t23.5 9.5t20.5 12t8.5 8q-29 57 -47.5 118.5t-53.5 111.5q-6 8 -26.5 -0.5 t-42 -22.5t-38 -28.5t-11.5 -18.5zM463 457q20 -35 51 -74t73 -70.5t92.5 -53t111.5 -21.5q59 0 110 21.5t92 53t73 70.5t52 74q-164 -43 -326.5 -42t-328.5 42zM715 731h155l-77 187zM918 903q-4 -2 4 -8t19 -12t23.5 -9.5t18.5 0.5l147 189q4 4 -11 18.5t-36.5 28.5 t-42 22.5t-26.5 0.5q-39 -49 -55.5 -110.5t-40.5 -119.5zM1290 102v23h84v-23h-31v-77h-22v77h-31zM1384 25v100h31l19 -78l18 78h29v-100h-19v77l-20 -77h-19l-20 77v-77h-19z" />
<glyph unicode="&#xa4;" d="M68 731q0 150 56 282t154.5 230t230.5 155.5t282 57.5t281.5 -57.5t230 -155.5t156 -230t57.5 -282t-57.5 -282t-156 -230t-230 -155.5t-281.5 -57.5t-282 57.5t-230.5 155.5t-154.5 230.5t-56 281.5zM164 731q0 -129 49 -242.5t135 -199.5t200 -135.5t243 -49.5 q131 0 244.5 49.5t197.5 135.5t133 199.5t49 242.5t-49 242.5t-133 198.5t-197.5 134.5t-244.5 49.5q-129 0 -243 -49.5t-200 -134.5t-135 -198.5t-49 -242.5zM207 731q0 119 46 224.5t126 184.5t185.5 124t226.5 45q119 0 225 -45t185 -124t125 -184.5t46 -224.5 q0 -121 -46 -227.5t-125 -185t-185 -125t-225 -46.5q-121 0 -226.5 46.5t-185.5 125t-126 185t-46 227.5zM330 664l112 -177q346 -80 699 0l110 177h-921zM451 1063l151 -189q4 -4 15.5 -0.5t23.5 9.5t20.5 12t8.5 8q-29 57 -47.5 118.5t-53.5 111.5q-6 8 -26.5 -0.5 t-42 -22.5t-38 -28.5t-11.5 -18.5zM463 457q20 -35 51 -74t73 -70.5t92.5 -53t111.5 -21.5q59 0 110 21.5t92 53t73 70.5t52 74q-164 -43 -326.5 -42t-328.5 42zM715 731h155l-77 187zM918 903q-4 -2 4 -8t19 -12t23.5 -9.5t18.5 0.5l147 189q4 4 -11 18.5t-36.5 28.5 t-42 22.5t-26.5 0.5q-39 -49 -55.5 -110.5t-40.5 -119.5zM1290 102v23h84v-23h-31v-77h-22v77h-31zM1384 25v100h31l19 -78l18 78h29v-100h-19v77l-20 -77h-19l-20 77v-77h-19z" />
<glyph unicode="&#xa5;" d="M68 731q0 150 56 282t154.5 230t230.5 155.5t282 57.5t281.5 -57.5t230 -155.5t156 -230t57.5 -282t-57.5 -282t-156 -230t-230 -155.5t-281.5 -57.5t-282 57.5t-230.5 155.5t-154.5 230.5t-56 281.5zM164 731q0 -129 49 -242.5t135 -199.5t200 -135.5t243 -49.5 q131 0 244.5 49.5t197.5 135.5t133 199.5t49 242.5t-49 242.5t-133 198.5t-197.5 134.5t-244.5 49.5q-129 0 -243 -49.5t-200 -134.5t-135 -198.5t-49 -242.5zM207 731q0 119 46 224.5t126 184.5t185.5 124t226.5 45q119 0 225 -45t185 -124t125 -184.5t46 -224.5 q0 -121 -46 -227.5t-125 -185t-185 -125t-225 -46.5q-121 0 -226.5 46.5t-185.5 125t-126 185t-46 227.5zM330 664l112 -177q346 -80 699 0l110 177h-921zM451 1063l151 -189q4 -4 15.5 -0.5t23.5 9.5t20.5 12t8.5 8q-29 57 -47.5 118.5t-53.5 111.5q-6 8 -26.5 -0.5 t-42 -22.5t-38 -28.5t-11.5 -18.5zM463 457q20 -35 51 -74t73 -70.5t92.5 -53t111.5 -21.5q59 0 110 21.5t92 53t73 70.5t52 74q-164 -43 -326.5 -42t-328.5 42zM715 731h155l-77 187zM918 903q-4 -2 4 -8t19 -12t23.5 -9.5t18.5 0.5l147 189q4 4 -11 18.5t-36.5 28.5 t-42 22.5t-26.5 0.5q-39 -49 -55.5 -110.5t-40.5 -119.5zM1290 102v23h84v-23h-31v-77h-22v77h-31zM1384 25v100h31l19 -78l18 78h29v-100h-19v77l-20 -77h-19l-20 77v-77h-19z" />
<glyph unicode="&#xa6;" d="M68 731q0 150 56 282t154.5 230t230.5 155.5t282 57.5t281.5 -57.5t230 -155.5t156 -230t57.5 -282t-57.5 -282t-156 -230t-230 -155.5t-281.5 -57.5t-282 57.5t-230.5 155.5t-154.5 230.5t-56 281.5zM164 731q0 -129 49 -242.5t135 -199.5t200 -135.5t243 -49.5 q131 0 244.5 49.5t197.5 135.5t133 199.5t49 242.5t-49 242.5t-133 198.5t-197.5 134.5t-244.5 49.5q-129 0 -243 -49.5t-200 -134.5t-135 -198.5t-49 -242.5zM207 731q0 119 46 224.5t126 184.5t185.5 124t226.5 45q119 0 225 -45t185 -124t125 -184.5t46 -224.5 q0 -121 -46 -227.5t-125 -185t-185 -125t-225 -46.5q-121 0 -226.5 46.5t-185.5 125t-126 185t-46 227.5zM330 664l112 -177q346 -80 699 0l110 177h-921zM451 1063l151 -189q4 -4 15.5 -0.5t23.5 9.5t20.5 12t8.5 8q-29 57 -47.5 118.5t-53.5 111.5q-6 8 -26.5 -0.5 t-42 -22.5t-38 -28.5t-11.5 -18.5zM463 457q20 -35 51 -74t73 -70.5t92.5 -53t111.5 -21.5q59 0 110 21.5t92 53t73 70.5t52 74q-164 -43 -326.5 -42t-328.5 42zM715 731h155l-77 187zM918 903q-4 -2 4 -8t19 -12t23.5 -9.5t18.5 0.5l147 189q4 4 -11 18.5t-36.5 28.5 t-42 22.5t-26.5 0.5q-39 -49 -55.5 -110.5t-40.5 -119.5zM1290 102v23h84v-23h-31v-77h-22v77h-31zM1384 25v100h31l19 -78l18 78h29v-100h-19v77l-20 -77h-19l-20 77v-77h-19z" />
<glyph unicode="&#xa7;" d="M68 731q0 150 56 282t154.5 230t230.5 155.5t282 57.5t281.5 -57.5t230 -155.5t156 -230t57.5 -282t-57.5 -282t-156 -230t-230 -155.5t-281.5 -57.5t-282 57.5t-230.5 155.5t-154.5 230.5t-56 281.5zM164 731q0 -129 49 -242.5t135 -199.5t200 -135.5t243 -49.5 q131 0 244.5 49.5t197.5 135.5t133 199.5t49 242.5t-49 242.5t-133 198.5t-197.5 134.5t-244.5 49.5q-129 0 -243 -49.5t-200 -134.5t-135 -198.5t-49 -242.5zM207 731q0 119 46 224.5t126 184.5t185.5 124t226.5 45q119 0 225 -45t185 -124t125 -184.5t46 -224.5 q0 -121 -46 -227.5t-125 -185t-185 -125t-225 -46.5q-121 0 -226.5 46.5t-185.5 125t-126 185t-46 227.5zM330 664l112 -177q346 -80 699 0l110 177h-921zM451 1063l151 -189q4 -4 15.5 -0.5t23.5 9.5t20.5 12t8.5 8q-29 57 -47.5 118.5t-53.5 111.5q-6 8 -26.5 -0.5 t-42 -22.5t-38 -28.5t-11.5 -18.5zM463 457q20 -35 51 -74t73 -70.5t92.5 -53t111.5 -21.5q59 0 110 21.5t92 53t73 70.5t52 74q-164 -43 -326.5 -42t-328.5 42zM715 731h155l-77 187zM918 903q-4 -2 4 -8t19 -12t23.5 -9.5t18.5 0.5l147 189q4 4 -11 18.5t-36.5 28.5 t-42 22.5t-26.5 0.5q-39 -49 -55.5 -110.5t-40.5 -119.5zM1290 102v23h84v-23h-31v-77h-22v77h-31zM1384 25v100h31l19 -78l18 78h29v-100h-19v77l-20 -77h-19l-20 77v-77h-19z" />
<glyph unicode="&#xa8;" d="M68 731q0 150 56 282t154.5 230t230.5 155.5t282 57.5t281.5 -57.5t230 -155.5t156 -230t57.5 -282t-57.5 -282t-156 -230t-230 -155.5t-281.5 -57.5t-282 57.5t-230.5 155.5t-154.5 230.5t-56 281.5zM164 731q0 -129 49 -242.5t135 -199.5t200 -135.5t243 -49.5 q131 0 244.5 49.5t197.5 135.5t133 199.5t49 242.5t-49 242.5t-133 198.5t-197.5 134.5t-244.5 49.5q-129 0 -243 -49.5t-200 -134.5t-135 -198.5t-49 -242.5zM207 731q0 119 46 224.5t126 184.5t185.5 124t226.5 45q119 0 225 -45t185 -124t125 -184.5t46 -224.5 q0 -121 -46 -227.5t-125 -185t-185 -125t-225 -46.5q-121 0 -226.5 46.5t-185.5 125t-126 185t-46 227.5zM330 664l112 -177q346 -80 699 0l110 177h-921zM451 1063l151 -189q4 -4 15.5 -0.5t23.5 9.5t20.5 12t8.5 8q-29 57 -47.5 118.5t-53.5 111.5q-6 8 -26.5 -0.5 t-42 -22.5t-38 -28.5t-11.5 -18.5zM463 457q20 -35 51 -74t73 -70.5t92.5 -53t111.5 -21.5q59 0 110 21.5t92 53t73 70.5t52 74q-164 -43 -326.5 -42t-328.5 42zM715 731h155l-77 187zM918 903q-4 -2 4 -8t19 -12t23.5 -9.5t18.5 0.5l147 189q4 4 -11 18.5t-36.5 28.5 t-42 22.5t-26.5 0.5q-39 -49 -55.5 -110.5t-40.5 -119.5zM1290 102v23h84v-23h-31v-77h-22v77h-31zM1384 25v100h31l19 -78l18 78h29v-100h-19v77l-20 -77h-19l-20 77v-77h-19z" />
<glyph unicode="&#xa9;" d="M68 731q0 150 56 282t154.5 230t230.5 155.5t282 57.5t281.5 -57.5t230 -155.5t156 -230t57.5 -282t-57.5 -282t-156 -230t-230 -155.5t-281.5 -57.5t-282 57.5t-230.5 155.5t-154.5 230.5t-56 281.5zM164 731q0 -129 49 -242.5t135 -199.5t200 -135.5t243 -49.5 q131 0 244.5 49.5t197.5 135.5t133 199.5t49 242.5t-49 242.5t-133 198.5t-197.5 134.5t-244.5 49.5q-129 0 -243 -49.5t-200 -134.5t-135 -198.5t-49 -242.5zM207 731q0 119 46 224.5t126 184.5t185.5 124t226.5 45q119 0 225 -45t185 -124t125 -184.5t46 -224.5 q0 -121 -46 -227.5t-125 -185t-185 -125t-225 -46.5q-121 0 -226.5 46.5t-185.5 125t-126 185t-46 227.5zM330 664l112 -177q346 -80 699 0l110 177h-921zM451 1063l151 -189q4 -4 15.5 -0.5t23.5 9.5t20.5 12t8.5 8q-29 57 -47.5 118.5t-53.5 111.5q-6 8 -26.5 -0.5 t-42 -22.5t-38 -28.5t-11.5 -18.5zM463 457q20 -35 51 -74t73 -70.5t92.5 -53t111.5 -21.5q59 0 110 21.5t92 53t73 70.5t52 74q-164 -43 -326.5 -42t-328.5 42zM715 731h155l-77 187zM918 903q-4 -2 4 -8t19 -12t23.5 -9.5t18.5 0.5l147 189q4 4 -11 18.5t-36.5 28.5 t-42 22.5t-26.5 0.5q-39 -49 -55.5 -110.5t-40.5 -119.5zM1290 102v23h84v-23h-31v-77h-22v77h-31zM1384 25v100h31l19 -78l18 78h29v-100h-19v77l-20 -77h-19l-20 77v-77h-19z" />
<glyph unicode="&#xaa;" d="M68 731q0 150 56 282t154.5 230t230.5 155.5t282 57.5t281.5 -57.5t230 -155.5t156 -230t57.5 -282t-57.5 -282t-156 -230t-230 -155.5t-281.5 -57.5t-282 57.5t-230.5 155.5t-154.5 230.5t-56 281.5zM164 731q0 -129 49 -242.5t135 -199.5t200 -135.5t243 -49.5 q131 0 244.5 49.5t197.5 135.5t133 199.5t49 242.5t-49 242.5t-133 198.5t-197.5 134.5t-244.5 49.5q-129 0 -243 -49.5t-200 -134.5t-135 -198.5t-49 -242.5zM207 731q0 119 46 224.5t126 184.5t185.5 124t226.5 45q119 0 225 -45t185 -124t125 -184.5t46 -224.5 q0 -121 -46 -227.5t-125 -185t-185 -125t-225 -46.5q-121 0 -226.5 46.5t-185.5 125t-126 185t-46 227.5zM330 664l112 -177q346 -80 699 0l110 177h-921zM451 1063l151 -189q4 -4 15.5 -0.5t23.5 9.5t20.5 12t8.5 8q-29 57 -47.5 118.5t-53.5 111.5q-6 8 -26.5 -0.5 t-42 -22.5t-38 -28.5t-11.5 -18.5zM463 457q20 -35 51 -74t73 -70.5t92.5 -53t111.5 -21.5q59 0 110 21.5t92 53t73 70.5t52 74q-164 -43 -326.5 -42t-328.5 42zM715 731h155l-77 187zM918 903q-4 -2 4 -8t19 -12t23.5 -9.5t18.5 0.5l147 189q4 4 -11 18.5t-36.5 28.5 t-42 22.5t-26.5 0.5q-39 -49 -55.5 -110.5t-40.5 -119.5zM1290 102v23h84v-23h-31v-77h-22v77h-31zM1384 25v100h31l19 -78l18 78h29v-100h-19v77l-20 -77h-19l-20 77v-77h-19z" />
<glyph unicode="&#xab;" d="M68 731q0 150 56 282t154.5 230t230.5 155.5t282 57.5t281.5 -57.5t230 -155.5t156 -230t57.5 -282t-57.5 -282t-156 -230t-230 -155.5t-281.5 -57.5t-282 57.5t-230.5 155.5t-154.5 230.5t-56 281.5zM164 731q0 -129 49 -242.5t135 -199.5t200 -135.5t243 -49.5 q131 0 244.5 49.5t197.5 135.5t133 199.5t49 242.5t-49 242.5t-133 198.5t-197.5 134.5t-244.5 49.5q-129 0 -243 -49.5t-200 -134.5t-135 -198.5t-49 -242.5zM207 731q0 119 46 224.5t126 184.5t185.5 124t226.5 45q119 0 225 -45t185 -124t125 -184.5t46 -224.5 q0 -121 -46 -227.5t-125 -185t-185 -125t-225 -46.5q-121 0 -226.5 46.5t-185.5 125t-126 185t-46 227.5zM330 664l112 -177q346 -80 699 0l110 177h-921zM451 1063l151 -189q4 -4 15.5 -0.5t23.5 9.5t20.5 12t8.5 8q-29 57 -47.5 118.5t-53.5 111.5q-6 8 -26.5 -0.5 t-42 -22.5t-38 -28.5t-11.5 -18.5zM463 457q20 -35 51 -74t73 -70.5t92.5 -53t111.5 -21.5q59 0 110 21.5t92 53t73 70.5t52 74q-164 -43 -326.5 -42t-328.5 42zM715 731h155l-77 187zM918 903q-4 -2 4 -8t19 -12t23.5 -9.5t18.5 0.5l147 189q4 4 -11 18.5t-36.5 28.5 t-42 22.5t-26.5 0.5q-39 -49 -55.5 -110.5t-40.5 -119.5zM1290 102v23h84v-23h-31v-77h-22v77h-31zM1384 25v100h31l19 -78l18 78h29v-100h-19v77l-20 -77h-19l-20 77v-77h-19z" />
<glyph unicode="&#xac;" d="M68 731q0 150 56 282t154.5 230t230.5 155.5t282 57.5t281.5 -57.5t230 -155.5t156 -230t57.5 -282t-57.5 -282t-156 -230t-230 -155.5t-281.5 -57.5t-282 57.5t-230.5 155.5t-154.5 230.5t-56 281.5zM164 731q0 -129 49 -242.5t135 -199.5t200 -135.5t243 -49.5 q131 0 244.5 49.5t197.5 135.5t133 199.5t49 242.5t-49 242.5t-133 198.5t-197.5 134.5t-244.5 49.5q-129 0 -243 -49.5t-200 -134.5t-135 -198.5t-49 -242.5zM207 731q0 119 46 224.5t126 184.5t185.5 124t226.5 45q119 0 225 -45t185 -124t125 -184.5t46 -224.5 q0 -121 -46 -227.5t-125 -185t-185 -125t-225 -46.5q-121 0 -226.5 46.5t-185.5 125t-126 185t-46 227.5zM330 664l112 -177q346 -80 699 0l110 177h-921zM451 1063l151 -189q4 -4 15.5 -0.5t23.5 9.5t20.5 12t8.5 8q-29 57 -47.5 118.5t-53.5 111.5q-6 8 -26.5 -0.5 t-42 -22.5t-38 -28.5t-11.5 -18.5zM463 457q20 -35 51 -74t73 -70.5t92.5 -53t111.5 -21.5q59 0 110 21.5t92 53t73 70.5t52 74q-164 -43 -326.5 -42t-328.5 42zM715 731h155l-77 187zM918 903q-4 -2 4 -8t19 -12t23.5 -9.5t18.5 0.5l147 189q4 4 -11 18.5t-36.5 28.5 t-42 22.5t-26.5 0.5q-39 -49 -55.5 -110.5t-40.5 -119.5zM1290 102v23h84v-23h-31v-77h-22v77h-31zM1384 25v100h31l19 -78l18 78h29v-100h-19v77l-20 -77h-19l-20 77v-77h-19z" />
<glyph unicode="&#xad;" d="M68 731q0 150 56 282t154.5 230t230.5 155.5t282 57.5t281.5 -57.5t230 -155.5t156 -230t57.5 -282t-57.5 -282t-156 -230t-230 -155.5t-281.5 -57.5t-282 57.5t-230.5 155.5t-154.5 230.5t-56 281.5zM164 731q0 -129 49 -242.5t135 -199.5t200 -135.5t243 -49.5 q131 0 244.5 49.5t197.5 135.5t133 199.5t49 242.5t-49 242.5t-133 198.5t-197.5 134.5t-244.5 49.5q-129 0 -243 -49.5t-200 -134.5t-135 -198.5t-49 -242.5zM207 731q0 119 46 224.5t126 184.5t185.5 124t226.5 45q119 0 225 -45t185 -124t125 -184.5t46 -224.5 q0 -121 -46 -227.5t-125 -185t-185 -125t-225 -46.5q-121 0 -226.5 46.5t-185.5 125t-126 185t-46 227.5zM330 664l112 -177q346 -80 699 0l110 177h-921zM451 1063l151 -189q4 -4 15.5 -0.5t23.5 9.5t20.5 12t8.5 8q-29 57 -47.5 118.5t-53.5 111.5q-6 8 -26.5 -0.5 t-42 -22.5t-38 -28.5t-11.5 -18.5zM463 457q20 -35 51 -74t73 -70.5t92.5 -53t111.5 -21.5q59 0 110 21.5t92 53t73 70.5t52 74q-164 -43 -326.5 -42t-328.5 42zM715 731h155l-77 187zM918 903q-4 -2 4 -8t19 -12t23.5 -9.5t18.5 0.5l147 189q4 4 -11 18.5t-36.5 28.5 t-42 22.5t-26.5 0.5q-39 -49 -55.5 -110.5t-40.5 -119.5zM1290 102v23h84v-23h-31v-77h-22v77h-31zM1384 25v100h31l19 -78l18 78h29v-100h-19v77l-20 -77h-19l-20 77v-77h-19z" />
<glyph unicode="&#xae;" d="M68 731q0 150 56 282t154.5 230t230.5 155.5t282 57.5t281.5 -57.5t230 -155.5t156 -230t57.5 -282t-57.5 -282t-156 -230t-230 -155.5t-281.5 -57.5t-282 57.5t-230.5 155.5t-154.5 230.5t-56 281.5zM164 731q0 -129 49 -242.5t135 -199.5t200 -135.5t243 -49.5 q131 0 244.5 49.5t197.5 135.5t133 199.5t49 242.5t-49 242.5t-133 198.5t-197.5 134.5t-244.5 49.5q-129 0 -243 -49.5t-200 -134.5t-135 -198.5t-49 -242.5zM207 731q0 119 46 224.5t126 184.5t185.5 124t226.5 45q119 0 225 -45t185 -124t125 -184.5t46 -224.5 q0 -121 -46 -227.5t-125 -185t-185 -125t-225 -46.5q-121 0 -226.5 46.5t-185.5 125t-126 185t-46 227.5zM330 664l112 -177q346 -80 699 0l110 177h-921zM451 1063l151 -189q4 -4 15.5 -0.5t23.5 9.5t20.5 12t8.5 8q-29 57 -47.5 118.5t-53.5 111.5q-6 8 -26.5 -0.5 t-42 -22.5t-38 -28.5t-11.5 -18.5zM463 457q20 -35 51 -74t73 -70.5t92.5 -53t111.5 -21.5q59 0 110 21.5t92 53t73 70.5t52 74q-164 -43 -326.5 -42t-328.5 42zM715 731h155l-77 187zM918 903q-4 -2 4 -8t19 -12t23.5 -9.5t18.5 0.5l147 189q4 4 -11 18.5t-36.5 28.5 t-42 22.5t-26.5 0.5q-39 -49 -55.5 -110.5t-40.5 -119.5zM1290 102v23h84v-23h-31v-77h-22v77h-31zM1384 25v100h31l19 -78l18 78h29v-100h-19v77l-20 -77h-19l-20 77v-77h-19z" />
<glyph unicode="&#xaf;" d="M68 731q0 150 56 282t154.5 230t230.5 155.5t282 57.5t281.5 -57.5t230 -155.5t156 -230t57.5 -282t-57.5 -282t-156 -230t-230 -155.5t-281.5 -57.5t-282 57.5t-230.5 155.5t-154.5 230.5t-56 281.5zM164 731q0 -129 49 -242.5t135 -199.5t200 -135.5t243 -49.5 q131 0 244.5 49.5t197.5 135.5t133 199.5t49 242.5t-49 242.5t-133 198.5t-197.5 134.5t-244.5 49.5q-129 0 -243 -49.5t-200 -134.5t-135 -198.5t-49 -242.5zM207 731q0 119 46 224.5t126 184.5t185.5 124t226.5 45q119 0 225 -45t185 -124t125 -184.5t46 -224.5 q0 -121 -46 -227.5t-125 -185t-185 -125t-225 -46.5q-121 0 -226.5 46.5t-185.5 125t-126 185t-46 227.5zM330 664l112 -177q346 -80 699 0l110 177h-921zM451 1063l151 -189q4 -4 15.5 -0.5t23.5 9.5t20.5 12t8.5 8q-29 57 -47.5 118.5t-53.5 111.5q-6 8 -26.5 -0.5 t-42 -22.5t-38 -28.5t-11.5 -18.5zM463 457q20 -35 51 -74t73 -70.5t92.5 -53t111.5 -21.5q59 0 110 21.5t92 53t73 70.5t52 74q-164 -43 -326.5 -42t-328.5 42zM715 731h155l-77 187zM918 903q-4 -2 4 -8t19 -12t23.5 -9.5t18.5 0.5l147 189q4 4 -11 18.5t-36.5 28.5 t-42 22.5t-26.5 0.5q-39 -49 -55.5 -110.5t-40.5 -119.5zM1290 102v23h84v-23h-31v-77h-22v77h-31zM1384 25v100h31l19 -78l18 78h29v-100h-19v77l-20 -77h-19l-20 77v-77h-19z" />
<glyph unicode="&#xb0;" d="M68 731q0 150 56 282t154.5 230t230.5 155.5t282 57.5t281.5 -57.5t230 -155.5t156 -230t57.5 -282t-57.5 -282t-156 -230t-230 -155.5t-281.5 -57.5t-282 57.5t-230.5 155.5t-154.5 230.5t-56 281.5zM164 731q0 -129 49 -242.5t135 -199.5t200 -135.5t243 -49.5 q131 0 244.5 49.5t197.5 135.5t133 199.5t49 242.5t-49 242.5t-133 198.5t-197.5 134.5t-244.5 49.5q-129 0 -243 -49.5t-200 -134.5t-135 -198.5t-49 -242.5zM207 731q0 119 46 224.5t126 184.5t185.5 124t226.5 45q119 0 225 -45t185 -124t125 -184.5t46 -224.5 q0 -121 -46 -227.5t-125 -185t-185 -125t-225 -46.5q-121 0 -226.5 46.5t-185.5 125t-126 185t-46 227.5zM330 664l112 -177q346 -80 699 0l110 177h-921zM451 1063l151 -189q4 -4 15.5 -0.5t23.5 9.5t20.5 12t8.5 8q-29 57 -47.5 118.5t-53.5 111.5q-6 8 -26.5 -0.5 t-42 -22.5t-38 -28.5t-11.5 -18.5zM463 457q20 -35 51 -74t73 -70.5t92.5 -53t111.5 -21.5q59 0 110 21.5t92 53t73 70.5t52 74q-164 -43 -326.5 -42t-328.5 42zM715 731h155l-77 187zM918 903q-4 -2 4 -8t19 -12t23.5 -9.5t18.5 0.5l147 189q4 4 -11 18.5t-36.5 28.5 t-42 22.5t-26.5 0.5q-39 -49 -55.5 -110.5t-40.5 -119.5zM1290 102v23h84v-23h-31v-77h-22v77h-31zM1384 25v100h31l19 -78l18 78h29v-100h-19v77l-20 -77h-19l-20 77v-77h-19z" />
<glyph unicode="&#xb1;" d="M68 731q0 150 56 282t154.5 230t230.5 155.5t282 57.5t281.5 -57.5t230 -155.5t156 -230t57.5 -282t-57.5 -282t-156 -230t-230 -155.5t-281.5 -57.5t-282 57.5t-230.5 155.5t-154.5 230.5t-56 281.5zM164 731q0 -129 49 -242.5t135 -199.5t200 -135.5t243 -49.5 q131 0 244.5 49.5t197.5 135.5t133 199.5t49 242.5t-49 242.5t-133 198.5t-197.5 134.5t-244.5 49.5q-129 0 -243 -49.5t-200 -134.5t-135 -198.5t-49 -242.5zM207 731q0 119 46 224.5t126 184.5t185.5 124t226.5 45q119 0 225 -45t185 -124t125 -184.5t46 -224.5 q0 -121 -46 -227.5t-125 -185t-185 -125t-225 -46.5q-121 0 -226.5 46.5t-185.5 125t-126 185t-46 227.5zM330 664l112 -177q346 -80 699 0l110 177h-921zM451 1063l151 -189q4 -4 15.5 -0.5t23.5 9.5t20.5 12t8.5 8q-29 57 -47.5 118.5t-53.5 111.5q-6 8 -26.5 -0.5 t-42 -22.5t-38 -28.5t-11.5 -18.5zM463 457q20 -35 51 -74t73 -70.5t92.5 -53t111.5 -21.5q59 0 110 21.5t92 53t73 70.5t52 74q-164 -43 -326.5 -42t-328.5 42zM715 731h155l-77 187zM918 903q-4 -2 4 -8t19 -12t23.5 -9.5t18.5 0.5l147 189q4 4 -11 18.5t-36.5 28.5 t-42 22.5t-26.5 0.5q-39 -49 -55.5 -110.5t-40.5 -119.5zM1290 102v23h84v-23h-31v-77h-22v77h-31zM1384 25v100h31l19 -78l18 78h29v-100h-19v77l-20 -77h-19l-20 77v-77h-19z" />
<glyph unicode="&#xb2;" d="M68 731q0 150 56 282t154.5 230t230.5 155.5t282 57.5t281.5 -57.5t230 -155.5t156 -230t57.5 -282t-57.5 -282t-156 -230t-230 -155.5t-281.5 -57.5t-282 57.5t-230.5 155.5t-154.5 230.5t-56 281.5zM164 731q0 -129 49 -242.5t135 -199.5t200 -135.5t243 -49.5 q131 0 244.5 49.5t197.5 135.5t133 199.5t49 242.5t-49 242.5t-133 198.5t-197.5 134.5t-244.5 49.5q-129 0 -243 -49.5t-200 -134.5t-135 -198.5t-49 -242.5zM207 731q0 119 46 224.5t126 184.5t185.5 124t226.5 45q119 0 225 -45t185 -124t125 -184.5t46 -224.5 q0 -121 -46 -227.5t-125 -185t-185 -125t-225 -46.5q-121 0 -226.5 46.5t-185.5 125t-126 185t-46 227.5zM330 664l112 -177q346 -80 699 0l110 177h-921zM451 1063l151 -189q4 -4 15.5 -0.5t23.5 9.5t20.5 12t8.5 8q-29 57 -47.5 118.5t-53.5 111.5q-6 8 -26.5 -0.5 t-42 -22.5t-38 -28.5t-11.5 -18.5zM463 457q20 -35 51 -74t73 -70.5t92.5 -53t111.5 -21.5q59 0 110 21.5t92 53t73 70.5t52 74q-164 -43 -326.5 -42t-328.5 42zM715 731h155l-77 187zM918 903q-4 -2 4 -8t19 -12t23.5 -9.5t18.5 0.5l147 189q4 4 -11 18.5t-36.5 28.5 t-42 22.5t-26.5 0.5q-39 -49 -55.5 -110.5t-40.5 -119.5zM1290 102v23h84v-23h-31v-77h-22v77h-31zM1384 25v100h31l19 -78l18 78h29v-100h-19v77l-20 -77h-19l-20 77v-77h-19z" />
<glyph unicode="&#xb3;" d="M68 731q0 150 56 282t154.5 230t230.5 155.5t282 57.5t281.5 -57.5t230 -155.5t156 -230t57.5 -282t-57.5 -282t-156 -230t-230 -155.5t-281.5 -57.5t-282 57.5t-230.5 155.5t-154.5 230.5t-56 281.5zM164 731q0 -129 49 -242.5t135 -199.5t200 -135.5t243 -49.5 q131 0 244.5 49.5t197.5 135.5t133 199.5t49 242.5t-49 242.5t-133 198.5t-197.5 134.5t-244.5 49.5q-129 0 -243 -49.5t-200 -134.5t-135 -198.5t-49 -242.5zM207 731q0 119 46 224.5t126 184.5t185.5 124t226.5 45q119 0 225 -45t185 -124t125 -184.5t46 -224.5 q0 -121 -46 -227.5t-125 -185t-185 -125t-225 -46.5q-121 0 -226.5 46.5t-185.5 125t-126 185t-46 227.5zM330 664l112 -177q346 -80 699 0l110 177h-921zM451 1063l151 -189q4 -4 15.5 -0.5t23.5 9.5t20.5 12t8.5 8q-29 57 -47.5 118.5t-53.5 111.5q-6 8 -26.5 -0.5 t-42 -22.5t-38 -28.5t-11.5 -18.5zM463 457q20 -35 51 -74t73 -70.5t92.5 -53t111.5 -21.5q59 0 110 21.5t92 53t73 70.5t52 74q-164 -43 -326.5 -42t-328.5 42zM715 731h155l-77 187zM918 903q-4 -2 4 -8t19 -12t23.5 -9.5t18.5 0.5l147 189q4 4 -11 18.5t-36.5 28.5 t-42 22.5t-26.5 0.5q-39 -49 -55.5 -110.5t-40.5 -119.5zM1290 102v23h84v-23h-31v-77h-22v77h-31zM1384 25v100h31l19 -78l18 78h29v-100h-19v77l-20 -77h-19l-20 77v-77h-19z" />
<glyph unicode="&#xb4;" d="M68 731q0 150 56 282t154.5 230t230.5 155.5t282 57.5t281.5 -57.5t230 -155.5t156 -230t57.5 -282t-57.5 -282t-156 -230t-230 -155.5t-281.5 -57.5t-282 57.5t-230.5 155.5t-154.5 230.5t-56 281.5zM164 731q0 -129 49 -242.5t135 -199.5t200 -135.5t243 -49.5 q131 0 244.5 49.5t197.5 135.5t133 199.5t49 242.5t-49 242.5t-133 198.5t-197.5 134.5t-244.5 49.5q-129 0 -243 -49.5t-200 -134.5t-135 -198.5t-49 -242.5zM207 731q0 119 46 224.5t126 184.5t185.5 124t226.5 45q119 0 225 -45t185 -124t125 -184.5t46 -224.5 q0 -121 -46 -227.5t-125 -185t-185 -125t-225 -46.5q-121 0 -226.5 46.5t-185.5 125t-126 185t-46 227.5zM330 664l112 -177q346 -80 699 0l110 177h-921zM451 1063l151 -189q4 -4 15.5 -0.5t23.5 9.5t20.5 12t8.5 8q-29 57 -47.5 118.5t-53.5 111.5q-6 8 -26.5 -0.5 t-42 -22.5t-38 -28.5t-11.5 -18.5zM463 457q20 -35 51 -74t73 -70.5t92.5 -53t111.5 -21.5q59 0 110 21.5t92 53t73 70.5t52 74q-164 -43 -326.5 -42t-328.5 42zM715 731h155l-77 187zM918 903q-4 -2 4 -8t19 -12t23.5 -9.5t18.5 0.5l147 189q4 4 -11 18.5t-36.5 28.5 t-42 22.5t-26.5 0.5q-39 -49 -55.5 -110.5t-40.5 -119.5zM1290 102v23h84v-23h-31v-77h-22v77h-31zM1384 25v100h31l19 -78l18 78h29v-100h-19v77l-20 -77h-19l-20 77v-77h-19z" />
<glyph unicode="&#xb5;" d="M68 731q0 150 56 282t154.5 230t230.5 155.5t282 57.5t281.5 -57.5t230 -155.5t156 -230t57.5 -282t-57.5 -282t-156 -230t-230 -155.5t-281.5 -57.5t-282 57.5t-230.5 155.5t-154.5 230.5t-56 281.5zM164 731q0 -129 49 -242.5t135 -199.5t200 -135.5t243 -49.5 q131 0 244.5 49.5t197.5 135.5t133 199.5t49 242.5t-49 242.5t-133 198.5t-197.5 134.5t-244.5 49.5q-129 0 -243 -49.5t-200 -134.5t-135 -198.5t-49 -242.5zM207 731q0 119 46 224.5t126 184.5t185.5 124t226.5 45q119 0 225 -45t185 -124t125 -184.5t46 -224.5 q0 -121 -46 -227.5t-125 -185t-185 -125t-225 -46.5q-121 0 -226.5 46.5t-185.5 125t-126 185t-46 227.5zM330 664l112 -177q346 -80 699 0l110 177h-921zM451 1063l151 -189q4 -4 15.5 -0.5t23.5 9.5t20.5 12t8.5 8q-29 57 -47.5 118.5t-53.5 111.5q-6 8 -26.5 -0.5 t-42 -22.5t-38 -28.5t-11.5 -18.5zM463 457q20 -35 51 -74t73 -70.5t92.5 -53t111.5 -21.5q59 0 110 21.5t92 53t73 70.5t52 74q-164 -43 -326.5 -42t-328.5 42zM715 731h155l-77 187zM918 903q-4 -2 4 -8t19 -12t23.5 -9.5t18.5 0.5l147 189q4 4 -11 18.5t-36.5 28.5 t-42 22.5t-26.5 0.5q-39 -49 -55.5 -110.5t-40.5 -119.5zM1290 102v23h84v-23h-31v-77h-22v77h-31zM1384 25v100h31l19 -78l18 78h29v-100h-19v77l-20 -77h-19l-20 77v-77h-19z" />
<glyph unicode="&#xb6;" d="M68 731q0 150 56 282t154.5 230t230.5 155.5t282 57.5t281.5 -57.5t230 -155.5t156 -230t57.5 -282t-57.5 -282t-156 -230t-230 -155.5t-281.5 -57.5t-282 57.5t-230.5 155.5t-154.5 230.5t-56 281.5zM164 731q0 -129 49 -242.5t135 -199.5t200 -135.5t243 -49.5 q131 0 244.5 49.5t197.5 135.5t133 199.5t49 242.5t-49 242.5t-133 198.5t-197.5 134.5t-244.5 49.5q-129 0 -243 -49.5t-200 -134.5t-135 -198.5t-49 -242.5zM207 731q0 119 46 224.5t126 184.5t185.5 124t226.5 45q119 0 225 -45t185 -124t125 -184.5t46 -224.5 q0 -121 -46 -227.5t-125 -185t-185 -125t-225 -46.5q-121 0 -226.5 46.5t-185.5 125t-126 185t-46 227.5zM330 664l112 -177q346 -80 699 0l110 177h-921zM451 1063l151 -189q4 -4 15.5 -0.5t23.5 9.5t20.5 12t8.5 8q-29 57 -47.5 118.5t-53.5 111.5q-6 8 -26.5 -0.5 t-42 -22.5t-38 -28.5t-11.5 -18.5zM463 457q20 -35 51 -74t73 -70.5t92.5 -53t111.5 -21.5q59 0 110 21.5t92 53t73 70.5t52 74q-164 -43 -326.5 -42t-328.5 42zM715 731h155l-77 187zM918 903q-4 -2 4 -8t19 -12t23.5 -9.5t18.5 0.5l147 189q4 4 -11 18.5t-36.5 28.5 t-42 22.5t-26.5 0.5q-39 -49 -55.5 -110.5t-40.5 -119.5zM1290 102v23h84v-23h-31v-77h-22v77h-31zM1384 25v100h31l19 -78l18 78h29v-100h-19v77l-20 -77h-19l-20 77v-77h-19z" />
<glyph unicode="&#xb7;" d="M68 731q0 150 56 282t154.5 230t230.5 155.5t282 57.5t281.5 -57.5t230 -155.5t156 -230t57.5 -282t-57.5 -282t-156 -230t-230 -155.5t-281.5 -57.5t-282 57.5t-230.5 155.5t-154.5 230.5t-56 281.5zM164 731q0 -129 49 -242.5t135 -199.5t200 -135.5t243 -49.5 q131 0 244.5 49.5t197.5 135.5t133 199.5t49 242.5t-49 242.5t-133 198.5t-197.5 134.5t-244.5 49.5q-129 0 -243 -49.5t-200 -134.5t-135 -198.5t-49 -242.5zM207 731q0 119 46 224.5t126 184.5t185.5 124t226.5 45q119 0 225 -45t185 -124t125 -184.5t46 -224.5 q0 -121 -46 -227.5t-125 -185t-185 -125t-225 -46.5q-121 0 -226.5 46.5t-185.5 125t-126 185t-46 227.5zM330 664l112 -177q346 -80 699 0l110 177h-921zM451 1063l151 -189q4 -4 15.5 -0.5t23.5 9.5t20.5 12t8.5 8q-29 57 -47.5 118.5t-53.5 111.5q-6 8 -26.5 -0.5 t-42 -22.5t-38 -28.5t-11.5 -18.5zM463 457q20 -35 51 -74t73 -70.5t92.5 -53t111.5 -21.5q59 0 110 21.5t92 53t73 70.5t52 74q-164 -43 -326.5 -42t-328.5 42zM715 731h155l-77 187zM918 903q-4 -2 4 -8t19 -12t23.5 -9.5t18.5 0.5l147 189q4 4 -11 18.5t-36.5 28.5 t-42 22.5t-26.5 0.5q-39 -49 -55.5 -110.5t-40.5 -119.5zM1290 102v23h84v-23h-31v-77h-22v77h-31zM1384 25v100h31l19 -78l18 78h29v-100h-19v77l-20 -77h-19l-20 77v-77h-19z" />
<glyph unicode="&#xb8;" d="M68 731q0 150 56 282t154.5 230t230.5 155.5t282 57.5t281.5 -57.5t230 -155.5t156 -230t57.5 -282t-57.5 -282t-156 -230t-230 -155.5t-281.5 -57.5t-282 57.5t-230.5 155.5t-154.5 230.5t-56 281.5zM164 731q0 -129 49 -242.5t135 -199.5t200 -135.5t243 -49.5 q131 0 244.5 49.5t197.5 135.5t133 199.5t49 242.5t-49 242.5t-133 198.5t-197.5 134.5t-244.5 49.5q-129 0 -243 -49.5t-200 -134.5t-135 -198.5t-49 -242.5zM207 731q0 119 46 224.5t126 184.5t185.5 124t226.5 45q119 0 225 -45t185 -124t125 -184.5t46 -224.5 q0 -121 -46 -227.5t-125 -185t-185 -125t-225 -46.5q-121 0 -226.5 46.5t-185.5 125t-126 185t-46 227.5zM330 664l112 -177q346 -80 699 0l110 177h-921zM451 1063l151 -189q4 -4 15.5 -0.5t23.5 9.5t20.5 12t8.5 8q-29 57 -47.5 118.5t-53.5 111.5q-6 8 -26.5 -0.5 t-42 -22.5t-38 -28.5t-11.5 -18.5zM463 457q20 -35 51 -74t73 -70.5t92.5 -53t111.5 -21.5q59 0 110 21.5t92 53t73 70.5t52 74q-164 -43 -326.5 -42t-328.5 42zM715 731h155l-77 187zM918 903q-4 -2 4 -8t19 -12t23.5 -9.5t18.5 0.5l147 189q4 4 -11 18.5t-36.5 28.5 t-42 22.5t-26.5 0.5q-39 -49 -55.5 -110.5t-40.5 -119.5zM1290 102v23h84v-23h-31v-77h-22v77h-31zM1384 25v100h31l19 -78l18 78h29v-100h-19v77l-20 -77h-19l-20 77v-77h-19z" />
<glyph unicode="&#xb9;" d="M68 731q0 150 56 282t154.5 230t230.5 155.5t282 57.5t281.5 -57.5t230 -155.5t156 -230t57.5 -282t-57.5 -282t-156 -230t-230 -155.5t-281.5 -57.5t-282 57.5t-230.5 155.5t-154.5 230.5t-56 281.5zM164 731q0 -129 49 -242.5t135 -199.5t200 -135.5t243 -49.5 q131 0 244.5 49.5t197.5 135.5t133 199.5t49 242.5t-49 242.5t-133 198.5t-197.5 134.5t-244.5 49.5q-129 0 -243 -49.5t-200 -134.5t-135 -198.5t-49 -242.5zM207 731q0 119 46 224.5t126 184.5t185.5 124t226.5 45q119 0 225 -45t185 -124t125 -184.5t46 -224.5 q0 -121 -46 -227.5t-125 -185t-185 -125t-225 -46.5q-121 0 -226.5 46.5t-185.5 125t-126 185t-46 227.5zM330 664l112 -177q346 -80 699 0l110 177h-921zM451 1063l151 -189q4 -4 15.5 -0.5t23.5 9.5t20.5 12t8.5 8q-29 57 -47.5 118.5t-53.5 111.5q-6 8 -26.5 -0.5 t-42 -22.5t-38 -28.5t-11.5 -18.5zM463 457q20 -35 51 -74t73 -70.5t92.5 -53t111.5 -21.5q59 0 110 21.5t92 53t73 70.5t52 74q-164 -43 -326.5 -42t-328.5 42zM715 731h155l-77 187zM918 903q-4 -2 4 -8t19 -12t23.5 -9.5t18.5 0.5l147 189q4 4 -11 18.5t-36.5 28.5 t-42 22.5t-26.5 0.5q-39 -49 -55.5 -110.5t-40.5 -119.5zM1290 102v23h84v-23h-31v-77h-22v77h-31zM1384 25v100h31l19 -78l18 78h29v-100h-19v77l-20 -77h-19l-20 77v-77h-19z" />
<glyph unicode="&#xba;" d="M68 731q0 150 56 282t154.5 230t230.5 155.5t282 57.5t281.5 -57.5t230 -155.5t156 -230t57.5 -282t-57.5 -282t-156 -230t-230 -155.5t-281.5 -57.5t-282 57.5t-230.5 155.5t-154.5 230.5t-56 281.5zM164 731q0 -129 49 -242.5t135 -199.5t200 -135.5t243 -49.5 q131 0 244.5 49.5t197.5 135.5t133 199.5t49 242.5t-49 242.5t-133 198.5t-197.5 134.5t-244.5 49.5q-129 0 -243 -49.5t-200 -134.5t-135 -198.5t-49 -242.5zM207 731q0 119 46 224.5t126 184.5t185.5 124t226.5 45q119 0 225 -45t185 -124t125 -184.5t46 -224.5 q0 -121 -46 -227.5t-125 -185t-185 -125t-225 -46.5q-121 0 -226.5 46.5t-185.5 125t-126 185t-46 227.5zM330 664l112 -177q346 -80 699 0l110 177h-921zM451 1063l151 -189q4 -4 15.5 -0.5t23.5 9.5t20.5 12t8.5 8q-29 57 -47.5 118.5t-53.5 111.5q-6 8 -26.5 -0.5 t-42 -22.5t-38 -28.5t-11.5 -18.5zM463 457q20 -35 51 -74t73 -70.5t92.5 -53t111.5 -21.5q59 0 110 21.5t92 53t73 70.5t52 74q-164 -43 -326.5 -42t-328.5 42zM715 731h155l-77 187zM918 903q-4 -2 4 -8t19 -12t23.5 -9.5t18.5 0.5l147 189q4 4 -11 18.5t-36.5 28.5 t-42 22.5t-26.5 0.5q-39 -49 -55.5 -110.5t-40.5 -119.5zM1290 102v23h84v-23h-31v-77h-22v77h-31zM1384 25v100h31l19 -78l18 78h29v-100h-19v77l-20 -77h-19l-20 77v-77h-19z" />
<glyph unicode="&#xbb;" d="M68 731q0 150 56 282t154.5 230t230.5 155.5t282 57.5t281.5 -57.5t230 -155.5t156 -230t57.5 -282t-57.5 -282t-156 -230t-230 -155.5t-281.5 -57.5t-282 57.5t-230.5 155.5t-154.5 230.5t-56 281.5zM164 731q0 -129 49 -242.5t135 -199.5t200 -135.5t243 -49.5 q131 0 244.5 49.5t197.5 135.5t133 199.5t49 242.5t-49 242.5t-133 198.5t-197.5 134.5t-244.5 49.5q-129 0 -243 -49.5t-200 -134.5t-135 -198.5t-49 -242.5zM207 731q0 119 46 224.5t126 184.5t185.5 124t226.5 45q119 0 225 -45t185 -124t125 -184.5t46 -224.5 q0 -121 -46 -227.5t-125 -185t-185 -125t-225 -46.5q-121 0 -226.5 46.5t-185.5 125t-126 185t-46 227.5zM330 664l112 -177q346 -80 699 0l110 177h-921zM451 1063l151 -189q4 -4 15.5 -0.5t23.5 9.5t20.5 12t8.5 8q-29 57 -47.5 118.5t-53.5 111.5q-6 8 -26.5 -0.5 t-42 -22.5t-38 -28.5t-11.5 -18.5zM463 457q20 -35 51 -74t73 -70.5t92.5 -53t111.5 -21.5q59 0 110 21.5t92 53t73 70.5t52 74q-164 -43 -326.5 -42t-328.5 42zM715 731h155l-77 187zM918 903q-4 -2 4 -8t19 -12t23.5 -9.5t18.5 0.5l147 189q4 4 -11 18.5t-36.5 28.5 t-42 22.5t-26.5 0.5q-39 -49 -55.5 -110.5t-40.5 -119.5zM1290 102v23h84v-23h-31v-77h-22v77h-31zM1384 25v100h31l19 -78l18 78h29v-100h-19v77l-20 -77h-19l-20 77v-77h-19z" />
<glyph unicode="&#xbc;" d="M68 731q0 150 56 282t154.5 230t230.5 155.5t282 57.5t281.5 -57.5t230 -155.5t156 -230t57.5 -282t-57.5 -282t-156 -230t-230 -155.5t-281.5 -57.5t-282 57.5t-230.5 155.5t-154.5 230.5t-56 281.5zM164 731q0 -129 49 -242.5t135 -199.5t200 -135.5t243 -49.5 q131 0 244.5 49.5t197.5 135.5t133 199.5t49 242.5t-49 242.5t-133 198.5t-197.5 134.5t-244.5 49.5q-129 0 -243 -49.5t-200 -134.5t-135 -198.5t-49 -242.5zM207 731q0 119 46 224.5t126 184.5t185.5 124t226.5 45q119 0 225 -45t185 -124t125 -184.5t46 -224.5 q0 -121 -46 -227.5t-125 -185t-185 -125t-225 -46.5q-121 0 -226.5 46.5t-185.5 125t-126 185t-46 227.5zM330 664l112 -177q346 -80 699 0l110 177h-921zM451 1063l151 -189q4 -4 15.5 -0.5t23.5 9.5t20.5 12t8.5 8q-29 57 -47.5 118.5t-53.5 111.5q-6 8 -26.5 -0.5 t-42 -22.5t-38 -28.5t-11.5 -18.5zM463 457q20 -35 51 -74t73 -70.5t92.5 -53t111.5 -21.5q59 0 110 21.5t92 53t73 70.5t52 74q-164 -43 -326.5 -42t-328.5 42zM715 731h155l-77 187zM918 903q-4 -2 4 -8t19 -12t23.5 -9.5t18.5 0.5l147 189q4 4 -11 18.5t-36.5 28.5 t-42 22.5t-26.5 0.5q-39 -49 -55.5 -110.5t-40.5 -119.5zM1290 102v23h84v-23h-31v-77h-22v77h-31zM1384 25v100h31l19 -78l18 78h29v-100h-19v77l-20 -77h-19l-20 77v-77h-19z" />
<glyph unicode="&#xbd;" d="M68 731q0 150 56 282t154.5 230t230.5 155.5t282 57.5t281.5 -57.5t230 -155.5t156 -230t57.5 -282t-57.5 -282t-156 -230t-230 -155.5t-281.5 -57.5t-282 57.5t-230.5 155.5t-154.5 230.5t-56 281.5zM164 731q0 -129 49 -242.5t135 -199.5t200 -135.5t243 -49.5 q131 0 244.5 49.5t197.5 135.5t133 199.5t49 242.5t-49 242.5t-133 198.5t-197.5 134.5t-244.5 49.5q-129 0 -243 -49.5t-200 -134.5t-135 -198.5t-49 -242.5zM207 731q0 119 46 224.5t126 184.5t185.5 124t226.5 45q119 0 225 -45t185 -124t125 -184.5t46 -224.5 q0 -121 -46 -227.5t-125 -185t-185 -125t-225 -46.5q-121 0 -226.5 46.5t-185.5 125t-126 185t-46 227.5zM330 664l112 -177q346 -80 699 0l110 177h-921zM451 1063l151 -189q4 -4 15.5 -0.5t23.5 9.5t20.5 12t8.5 8q-29 57 -47.5 118.5t-53.5 111.5q-6 8 -26.5 -0.5 t-42 -22.5t-38 -28.5t-11.5 -18.5zM463 457q20 -35 51 -74t73 -70.5t92.5 -53t111.5 -21.5q59 0 110 21.5t92 53t73 70.5t52 74q-164 -43 -326.5 -42t-328.5 42zM715 731h155l-77 187zM918 903q-4 -2 4 -8t19 -12t23.5 -9.5t18.5 0.5l147 189q4 4 -11 18.5t-36.5 28.5 t-42 22.5t-26.5 0.5q-39 -49 -55.5 -110.5t-40.5 -119.5zM1290 102v23h84v-23h-31v-77h-22v77h-31zM1384 25v100h31l19 -78l18 78h29v-100h-19v77l-20 -77h-19l-20 77v-77h-19z" />
<glyph unicode="&#xbe;" d="M68 731q0 150 56 282t154.5 230t230.5 155.5t282 57.5t281.5 -57.5t230 -155.5t156 -230t57.5 -282t-57.5 -282t-156 -230t-230 -155.5t-281.5 -57.5t-282 57.5t-230.5 155.5t-154.5 230.5t-56 281.5zM164 731q0 -129 49 -242.5t135 -199.5t200 -135.5t243 -49.5 q131 0 244.5 49.5t197.5 135.5t133 199.5t49 242.5t-49 242.5t-133 198.5t-197.5 134.5t-244.5 49.5q-129 0 -243 -49.5t-200 -134.5t-135 -198.5t-49 -242.5zM207 731q0 119 46 224.5t126 184.5t185.5 124t226.5 45q119 0 225 -45t185 -124t125 -184.5t46 -224.5 q0 -121 -46 -227.5t-125 -185t-185 -125t-225 -46.5q-121 0 -226.5 46.5t-185.5 125t-126 185t-46 227.5zM330 664l112 -177q346 -80 699 0l110 177h-921zM451 1063l151 -189q4 -4 15.5 -0.5t23.5 9.5t20.5 12t8.5 8q-29 57 -47.5 118.5t-53.5 111.5q-6 8 -26.5 -0.5 t-42 -22.5t-38 -28.5t-11.5 -18.5zM463 457q20 -35 51 -74t73 -70.5t92.5 -53t111.5 -21.5q59 0 110 21.5t92 53t73 70.5t52 74q-164 -43 -326.5 -42t-328.5 42zM715 731h155l-77 187zM918 903q-4 -2 4 -8t19 -12t23.5 -9.5t18.5 0.5l147 189q4 4 -11 18.5t-36.5 28.5 t-42 22.5t-26.5 0.5q-39 -49 -55.5 -110.5t-40.5 -119.5zM1290 102v23h84v-23h-31v-77h-22v77h-31zM1384 25v100h31l19 -78l18 78h29v-100h-19v77l-20 -77h-19l-20 77v-77h-19z" />
<glyph unicode="&#xbf;" d="M68 731q0 150 56 282t154.5 230t230.5 155.5t282 57.5t281.5 -57.5t230 -155.5t156 -230t57.5 -282t-57.5 -282t-156 -230t-230 -155.5t-281.5 -57.5t-282 57.5t-230.5 155.5t-154.5 230.5t-56 281.5zM164 731q0 -129 49 -242.5t135 -199.5t200 -135.5t243 -49.5 q131 0 244.5 49.5t197.5 135.5t133 199.5t49 242.5t-49 242.5t-133 198.5t-197.5 134.5t-244.5 49.5q-129 0 -243 -49.5t-200 -134.5t-135 -198.5t-49 -242.5zM207 731q0 119 46 224.5t126 184.5t185.5 124t226.5 45q119 0 225 -45t185 -124t125 -184.5t46 -224.5 q0 -121 -46 -227.5t-125 -185t-185 -125t-225 -46.5q-121 0 -226.5 46.5t-185.5 125t-126 185t-46 227.5zM330 664l112 -177q346 -80 699 0l110 177h-921zM451 1063l151 -189q4 -4 15.5 -0.5t23.5 9.5t20.5 12t8.5 8q-29 57 -47.5 118.5t-53.5 111.5q-6 8 -26.5 -0.5 t-42 -22.5t-38 -28.5t-11.5 -18.5zM463 457q20 -35 51 -74t73 -70.5t92.5 -53t111.5 -21.5q59 0 110 21.5t92 53t73 70.5t52 74q-164 -43 -326.5 -42t-328.5 42zM715 731h155l-77 187zM918 903q-4 -2 4 -8t19 -12t23.5 -9.5t18.5 0.5l147 189q4 4 -11 18.5t-36.5 28.5 t-42 22.5t-26.5 0.5q-39 -49 -55.5 -110.5t-40.5 -119.5zM1290 102v23h84v-23h-31v-77h-22v77h-31zM1384 25v100h31l19 -78l18 78h29v-100h-19v77l-20 -77h-19l-20 77v-77h-19z" />
<glyph unicode="&#xc0;" d="M68 731q0 150 56 282t154.5 230t230.5 155.5t282 57.5t281.5 -57.5t230 -155.5t156 -230t57.5 -282t-57.5 -282t-156 -230t-230 -155.5t-281.5 -57.5t-282 57.5t-230.5 155.5t-154.5 230.5t-56 281.5zM164 731q0 -129 49 -242.5t135 -199.5t200 -135.5t243 -49.5 q131 0 244.5 49.5t197.5 135.5t133 199.5t49 242.5t-49 242.5t-133 198.5t-197.5 134.5t-244.5 49.5q-129 0 -243 -49.5t-200 -134.5t-135 -198.5t-49 -242.5zM207 731q0 119 46 224.5t126 184.5t185.5 124t226.5 45q119 0 225 -45t185 -124t125 -184.5t46 -224.5 q0 -121 -46 -227.5t-125 -185t-185 -125t-225 -46.5q-121 0 -226.5 46.5t-185.5 125t-126 185t-46 227.5zM330 664l112 -177q346 -80 699 0l110 177h-921zM451 1063l151 -189q4 -4 15.5 -0.5t23.5 9.5t20.5 12t8.5 8q-29 57 -47.5 118.5t-53.5 111.5q-6 8 -26.5 -0.5 t-42 -22.5t-38 -28.5t-11.5 -18.5zM463 457q20 -35 51 -74t73 -70.5t92.5 -53t111.5 -21.5q59 0 110 21.5t92 53t73 70.5t52 74q-164 -43 -326.5 -42t-328.5 42zM715 731h155l-77 187zM918 903q-4 -2 4 -8t19 -12t23.5 -9.5t18.5 0.5l147 189q4 4 -11 18.5t-36.5 28.5 t-42 22.5t-26.5 0.5q-39 -49 -55.5 -110.5t-40.5 -119.5zM1290 102v23h84v-23h-31v-77h-22v77h-31zM1384 25v100h31l19 -78l18 78h29v-100h-19v77l-20 -77h-19l-20 77v-77h-19z" />
<glyph unicode="&#xc1;" d="M68 731q0 150 56 282t154.5 230t230.5 155.5t282 57.5t281.5 -57.5t230 -155.5t156 -230t57.5 -282t-57.5 -282t-156 -230t-230 -155.5t-281.5 -57.5t-282 57.5t-230.5 155.5t-154.5 230.5t-56 281.5zM164 731q0 -129 49 -242.5t135 -199.5t200 -135.5t243 -49.5 q131 0 244.5 49.5t197.5 135.5t133 199.5t49 242.5t-49 242.5t-133 198.5t-197.5 134.5t-244.5 49.5q-129 0 -243 -49.5t-200 -134.5t-135 -198.5t-49 -242.5zM207 731q0 119 46 224.5t126 184.5t185.5 124t226.5 45q119 0 225 -45t185 -124t125 -184.5t46 -224.5 q0 -121 -46 -227.5t-125 -185t-185 -125t-225 -46.5q-121 0 -226.5 46.5t-185.5 125t-126 185t-46 227.5zM330 664l112 -177q346 -80 699 0l110 177h-921zM451 1063l151 -189q4 -4 15.5 -0.5t23.5 9.5t20.5 12t8.5 8q-29 57 -47.5 118.5t-53.5 111.5q-6 8 -26.5 -0.5 t-42 -22.5t-38 -28.5t-11.5 -18.5zM463 457q20 -35 51 -74t73 -70.5t92.5 -53t111.5 -21.5q59 0 110 21.5t92 53t73 70.5t52 74q-164 -43 -326.5 -42t-328.5 42zM715 731h155l-77 187zM918 903q-4 -2 4 -8t19 -12t23.5 -9.5t18.5 0.5l147 189q4 4 -11 18.5t-36.5 28.5 t-42 22.5t-26.5 0.5q-39 -49 -55.5 -110.5t-40.5 -119.5zM1290 102v23h84v-23h-31v-77h-22v77h-31zM1384 25v100h31l19 -78l18 78h29v-100h-19v77l-20 -77h-19l-20 77v-77h-19z" />
<glyph unicode="&#xc2;" d="M68 731q0 150 56 282t154.5 230t230.5 155.5t282 57.5t281.5 -57.5t230 -155.5t156 -230t57.5 -282t-57.5 -282t-156 -230t-230 -155.5t-281.5 -57.5t-282 57.5t-230.5 155.5t-154.5 230.5t-56 281.5zM164 731q0 -129 49 -242.5t135 -199.5t200 -135.5t243 -49.5 q131 0 244.5 49.5t197.5 135.5t133 199.5t49 242.5t-49 242.5t-133 198.5t-197.5 134.5t-244.5 49.5q-129 0 -243 -49.5t-200 -134.5t-135 -198.5t-49 -242.5zM207 731q0 119 46 224.5t126 184.5t185.5 124t226.5 45q119 0 225 -45t185 -124t125 -184.5t46 -224.5 q0 -121 -46 -227.5t-125 -185t-185 -125t-225 -46.5q-121 0 -226.5 46.5t-185.5 125t-126 185t-46 227.5zM330 664l112 -177q346 -80 699 0l110 177h-921zM451 1063l151 -189q4 -4 15.5 -0.5t23.5 9.5t20.5 12t8.5 8q-29 57 -47.5 118.5t-53.5 111.5q-6 8 -26.5 -0.5 t-42 -22.5t-38 -28.5t-11.5 -18.5zM463 457q20 -35 51 -74t73 -70.5t92.5 -53t111.5 -21.5q59 0 110 21.5t92 53t73 70.5t52 74q-164 -43 -326.5 -42t-328.5 42zM715 731h155l-77 187zM918 903q-4 -2 4 -8t19 -12t23.5 -9.5t18.5 0.5l147 189q4 4 -11 18.5t-36.5 28.5 t-42 22.5t-26.5 0.5q-39 -49 -55.5 -110.5t-40.5 -119.5zM1290 102v23h84v-23h-31v-77h-22v77h-31zM1384 25v100h31l19 -78l18 78h29v-100h-19v77l-20 -77h-19l-20 77v-77h-19z" />
<glyph unicode="&#xc3;" d="M68 731q0 150 56 282t154.5 230t230.5 155.5t282 57.5t281.5 -57.5t230 -155.5t156 -230t57.5 -282t-57.5 -282t-156 -230t-230 -155.5t-281.5 -57.5t-282 57.5t-230.5 155.5t-154.5 230.5t-56 281.5zM164 731q0 -129 49 -242.5t135 -199.5t200 -135.5t243 -49.5 q131 0 244.5 49.5t197.5 135.5t133 199.5t49 242.5t-49 242.5t-133 198.5t-197.5 134.5t-244.5 49.5q-129 0 -243 -49.5t-200 -134.5t-135 -198.5t-49 -242.5zM207 731q0 119 46 224.5t126 184.5t185.5 124t226.5 45q119 0 225 -45t185 -124t125 -184.5t46 -224.5 q0 -121 -46 -227.5t-125 -185t-185 -125t-225 -46.5q-121 0 -226.5 46.5t-185.5 125t-126 185t-46 227.5zM330 664l112 -177q346 -80 699 0l110 177h-921zM451 1063l151 -189q4 -4 15.5 -0.5t23.5 9.5t20.5 12t8.5 8q-29 57 -47.5 118.5t-53.5 111.5q-6 8 -26.5 -0.5 t-42 -22.5t-38 -28.5t-11.5 -18.5zM463 457q20 -35 51 -74t73 -70.5t92.5 -53t111.5 -21.5q59 0 110 21.5t92 53t73 70.5t52 74q-164 -43 -326.5 -42t-328.5 42zM715 731h155l-77 187zM918 903q-4 -2 4 -8t19 -12t23.5 -9.5t18.5 0.5l147 189q4 4 -11 18.5t-36.5 28.5 t-42 22.5t-26.5 0.5q-39 -49 -55.5 -110.5t-40.5 -119.5zM1290 102v23h84v-23h-31v-77h-22v77h-31zM1384 25v100h31l19 -78l18 78h29v-100h-19v77l-20 -77h-19l-20 77v-77h-19z" />
<glyph unicode="&#xc4;" d="M68 731q0 150 56 282t154.5 230t230.5 155.5t282 57.5t281.5 -57.5t230 -155.5t156 -230t57.5 -282t-57.5 -282t-156 -230t-230 -155.5t-281.5 -57.5t-282 57.5t-230.5 155.5t-154.5 230.5t-56 281.5zM164 731q0 -129 49 -242.5t135 -199.5t200 -135.5t243 -49.5 q131 0 244.5 49.5t197.5 135.5t133 199.5t49 242.5t-49 242.5t-133 198.5t-197.5 134.5t-244.5 49.5q-129 0 -243 -49.5t-200 -134.5t-135 -198.5t-49 -242.5zM207 731q0 119 46 224.5t126 184.5t185.5 124t226.5 45q119 0 225 -45t185 -124t125 -184.5t46 -224.5 q0 -121 -46 -227.5t-125 -185t-185 -125t-225 -46.5q-121 0 -226.5 46.5t-185.5 125t-126 185t-46 227.5zM330 664l112 -177q346 -80 699 0l110 177h-921zM451 1063l151 -189q4 -4 15.5 -0.5t23.5 9.5t20.5 12t8.5 8q-29 57 -47.5 118.5t-53.5 111.5q-6 8 -26.5 -0.5 t-42 -22.5t-38 -28.5t-11.5 -18.5zM463 457q20 -35 51 -74t73 -70.5t92.5 -53t111.5 -21.5q59 0 110 21.5t92 53t73 70.5t52 74q-164 -43 -326.5 -42t-328.5 42zM715 731h155l-77 187zM918 903q-4 -2 4 -8t19 -12t23.5 -9.5t18.5 0.5l147 189q4 4 -11 18.5t-36.5 28.5 t-42 22.5t-26.5 0.5q-39 -49 -55.5 -110.5t-40.5 -119.5zM1290 102v23h84v-23h-31v-77h-22v77h-31zM1384 25v100h31l19 -78l18 78h29v-100h-19v77l-20 -77h-19l-20 77v-77h-19z" />
<glyph unicode="&#xc5;" d="M68 731q0 150 56 282t154.5 230t230.5 155.5t282 57.5t281.5 -57.5t230 -155.5t156 -230t57.5 -282t-57.5 -282t-156 -230t-230 -155.5t-281.5 -57.5t-282 57.5t-230.5 155.5t-154.5 230.5t-56 281.5zM164 731q0 -129 49 -242.5t135 -199.5t200 -135.5t243 -49.5 q131 0 244.5 49.5t197.5 135.5t133 199.5t49 242.5t-49 242.5t-133 198.5t-197.5 134.5t-244.5 49.5q-129 0 -243 -49.5t-200 -134.5t-135 -198.5t-49 -242.5zM207 731q0 119 46 224.5t126 184.5t185.5 124t226.5 45q119 0 225 -45t185 -124t125 -184.5t46 -224.5 q0 -121 -46 -227.5t-125 -185t-185 -125t-225 -46.5q-121 0 -226.5 46.5t-185.5 125t-126 185t-46 227.5zM330 664l112 -177q346 -80 699 0l110 177h-921zM451 1063l151 -189q4 -4 15.5 -0.5t23.5 9.5t20.5 12t8.5 8q-29 57 -47.5 118.5t-53.5 111.5q-6 8 -26.5 -0.5 t-42 -22.5t-38 -28.5t-11.5 -18.5zM463 457q20 -35 51 -74t73 -70.5t92.5 -53t111.5 -21.5q59 0 110 21.5t92 53t73 70.5t52 74q-164 -43 -326.5 -42t-328.5 42zM715 731h155l-77 187zM918 903q-4 -2 4 -8t19 -12t23.5 -9.5t18.5 0.5l147 189q4 4 -11 18.5t-36.5 28.5 t-42 22.5t-26.5 0.5q-39 -49 -55.5 -110.5t-40.5 -119.5zM1290 102v23h84v-23h-31v-77h-22v77h-31zM1384 25v100h31l19 -78l18 78h29v-100h-19v77l-20 -77h-19l-20 77v-77h-19z" />
<glyph unicode="&#xc6;" d="M68 731q0 150 56 282t154.5 230t230.5 155.5t282 57.5t281.5 -57.5t230 -155.5t156 -230t57.5 -282t-57.5 -282t-156 -230t-230 -155.5t-281.5 -57.5t-282 57.5t-230.5 155.5t-154.5 230.5t-56 281.5zM164 731q0 -129 49 -242.5t135 -199.5t200 -135.5t243 -49.5 q131 0 244.5 49.5t197.5 135.5t133 199.5t49 242.5t-49 242.5t-133 198.5t-197.5 134.5t-244.5 49.5q-129 0 -243 -49.5t-200 -134.5t-135 -198.5t-49 -242.5zM207 731q0 119 46 224.5t126 184.5t185.5 124t226.5 45q119 0 225 -45t185 -124t125 -184.5t46 -224.5 q0 -121 -46 -227.5t-125 -185t-185 -125t-225 -46.5q-121 0 -226.5 46.5t-185.5 125t-126 185t-46 227.5zM330 664l112 -177q346 -80 699 0l110 177h-921zM451 1063l151 -189q4 -4 15.5 -0.5t23.5 9.5t20.5 12t8.5 8q-29 57 -47.5 118.5t-53.5 111.5q-6 8 -26.5 -0.5 t-42 -22.5t-38 -28.5t-11.5 -18.5zM463 457q20 -35 51 -74t73 -70.5t92.5 -53t111.5 -21.5q59 0 110 21.5t92 53t73 70.5t52 74q-164 -43 -326.5 -42t-328.5 42zM715 731h155l-77 187zM918 903q-4 -2 4 -8t19 -12t23.5 -9.5t18.5 0.5l147 189q4 4 -11 18.5t-36.5 28.5 t-42 22.5t-26.5 0.5q-39 -49 -55.5 -110.5t-40.5 -119.5zM1290 102v23h84v-23h-31v-77h-22v77h-31zM1384 25v100h31l19 -78l18 78h29v-100h-19v77l-20 -77h-19l-20 77v-77h-19z" />
<glyph unicode="&#xc7;" d="M68 731q0 150 56 282t154.5 230t230.5 155.5t282 57.5t281.5 -57.5t230 -155.5t156 -230t57.5 -282t-57.5 -282t-156 -230t-230 -155.5t-281.5 -57.5t-282 57.5t-230.5 155.5t-154.5 230.5t-56 281.5zM164 731q0 -129 49 -242.5t135 -199.5t200 -135.5t243 -49.5 q131 0 244.5 49.5t197.5 135.5t133 199.5t49 242.5t-49 242.5t-133 198.5t-197.5 134.5t-244.5 49.5q-129 0 -243 -49.5t-200 -134.5t-135 -198.5t-49 -242.5zM207 731q0 119 46 224.5t126 184.5t185.5 124t226.5 45q119 0 225 -45t185 -124t125 -184.5t46 -224.5 q0 -121 -46 -227.5t-125 -185t-185 -125t-225 -46.5q-121 0 -226.5 46.5t-185.5 125t-126 185t-46 227.5zM330 664l112 -177q346 -80 699 0l110 177h-921zM451 1063l151 -189q4 -4 15.5 -0.5t23.5 9.5t20.5 12t8.5 8q-29 57 -47.5 118.5t-53.5 111.5q-6 8 -26.5 -0.5 t-42 -22.5t-38 -28.5t-11.5 -18.5zM463 457q20 -35 51 -74t73 -70.5t92.5 -53t111.5 -21.5q59 0 110 21.5t92 53t73 70.5t52 74q-164 -43 -326.5 -42t-328.5 42zM715 731h155l-77 187zM918 903q-4 -2 4 -8t19 -12t23.5 -9.5t18.5 0.5l147 189q4 4 -11 18.5t-36.5 28.5 t-42 22.5t-26.5 0.5q-39 -49 -55.5 -110.5t-40.5 -119.5zM1290 102v23h84v-23h-31v-77h-22v77h-31zM1384 25v100h31l19 -78l18 78h29v-100h-19v77l-20 -77h-19l-20 77v-77h-19z" />
<glyph unicode="&#xc8;" d="M68 731q0 150 56 282t154.5 230t230.5 155.5t282 57.5t281.5 -57.5t230 -155.5t156 -230t57.5 -282t-57.5 -282t-156 -230t-230 -155.5t-281.5 -57.5t-282 57.5t-230.5 155.5t-154.5 230.5t-56 281.5zM164 731q0 -129 49 -242.5t135 -199.5t200 -135.5t243 -49.5 q131 0 244.5 49.5t197.5 135.5t133 199.5t49 242.5t-49 242.5t-133 198.5t-197.5 134.5t-244.5 49.5q-129 0 -243 -49.5t-200 -134.5t-135 -198.5t-49 -242.5zM207 731q0 119 46 224.5t126 184.5t185.5 124t226.5 45q119 0 225 -45t185 -124t125 -184.5t46 -224.5 q0 -121 -46 -227.5t-125 -185t-185 -125t-225 -46.5q-121 0 -226.5 46.5t-185.5 125t-126 185t-46 227.5zM330 664l112 -177q346 -80 699 0l110 177h-921zM451 1063l151 -189q4 -4 15.5 -0.5t23.5 9.5t20.5 12t8.5 8q-29 57 -47.5 118.5t-53.5 111.5q-6 8 -26.5 -0.5 t-42 -22.5t-38 -28.5t-11.5 -18.5zM463 457q20 -35 51 -74t73 -70.5t92.5 -53t111.5 -21.5q59 0 110 21.5t92 53t73 70.5t52 74q-164 -43 -326.5 -42t-328.5 42zM715 731h155l-77 187zM918 903q-4 -2 4 -8t19 -12t23.5 -9.5t18.5 0.5l147 189q4 4 -11 18.5t-36.5 28.5 t-42 22.5t-26.5 0.5q-39 -49 -55.5 -110.5t-40.5 -119.5zM1290 102v23h84v-23h-31v-77h-22v77h-31zM1384 25v100h31l19 -78l18 78h29v-100h-19v77l-20 -77h-19l-20 77v-77h-19z" />
<glyph unicode="&#xc9;" d="M68 731q0 150 56 282t154.5 230t230.5 155.5t282 57.5t281.5 -57.5t230 -155.5t156 -230t57.5 -282t-57.5 -282t-156 -230t-230 -155.5t-281.5 -57.5t-282 57.5t-230.5 155.5t-154.5 230.5t-56 281.5zM164 731q0 -129 49 -242.5t135 -199.5t200 -135.5t243 -49.5 q131 0 244.5 49.5t197.5 135.5t133 199.5t49 242.5t-49 242.5t-133 198.5t-197.5 134.5t-244.5 49.5q-129 0 -243 -49.5t-200 -134.5t-135 -198.5t-49 -242.5zM207 731q0 119 46 224.5t126 184.5t185.5 124t226.5 45q119 0 225 -45t185 -124t125 -184.5t46 -224.5 q0 -121 -46 -227.5t-125 -185t-185 -125t-225 -46.5q-121 0 -226.5 46.5t-185.5 125t-126 185t-46 227.5zM330 664l112 -177q346 -80 699 0l110 177h-921zM451 1063l151 -189q4 -4 15.5 -0.5t23.5 9.5t20.5 12t8.5 8q-29 57 -47.5 118.5t-53.5 111.5q-6 8 -26.5 -0.5 t-42 -22.5t-38 -28.5t-11.5 -18.5zM463 457q20 -35 51 -74t73 -70.5t92.5 -53t111.5 -21.5q59 0 110 21.5t92 53t73 70.5t52 74q-164 -43 -326.5 -42t-328.5 42zM715 731h155l-77 187zM918 903q-4 -2 4 -8t19 -12t23.5 -9.5t18.5 0.5l147 189q4 4 -11 18.5t-36.5 28.5 t-42 22.5t-26.5 0.5q-39 -49 -55.5 -110.5t-40.5 -119.5zM1290 102v23h84v-23h-31v-77h-22v77h-31zM1384 25v100h31l19 -78l18 78h29v-100h-19v77l-20 -77h-19l-20 77v-77h-19z" />
<glyph unicode="&#xca;" d="M68 731q0 150 56 282t154.5 230t230.5 155.5t282 57.5t281.5 -57.5t230 -155.5t156 -230t57.5 -282t-57.5 -282t-156 -230t-230 -155.5t-281.5 -57.5t-282 57.5t-230.5 155.5t-154.5 230.5t-56 281.5zM164 731q0 -129 49 -242.5t135 -199.5t200 -135.5t243 -49.5 q131 0 244.5 49.5t197.5 135.5t133 199.5t49 242.5t-49 242.5t-133 198.5t-197.5 134.5t-244.5 49.5q-129 0 -243 -49.5t-200 -134.5t-135 -198.5t-49 -242.5zM207 731q0 119 46 224.5t126 184.5t185.5 124t226.5 45q119 0 225 -45t185 -124t125 -184.5t46 -224.5 q0 -121 -46 -227.5t-125 -185t-185 -125t-225 -46.5q-121 0 -226.5 46.5t-185.5 125t-126 185t-46 227.5zM330 664l112 -177q346 -80 699 0l110 177h-921zM451 1063l151 -189q4 -4 15.5 -0.5t23.5 9.5t20.5 12t8.5 8q-29 57 -47.5 118.5t-53.5 111.5q-6 8 -26.5 -0.5 t-42 -22.5t-38 -28.5t-11.5 -18.5zM463 457q20 -35 51 -74t73 -70.5t92.5 -53t111.5 -21.5q59 0 110 21.5t92 53t73 70.5t52 74q-164 -43 -326.5 -42t-328.5 42zM715 731h155l-77 187zM918 903q-4 -2 4 -8t19 -12t23.5 -9.5t18.5 0.5l147 189q4 4 -11 18.5t-36.5 28.5 t-42 22.5t-26.5 0.5q-39 -49 -55.5 -110.5t-40.5 -119.5zM1290 102v23h84v-23h-31v-77h-22v77h-31zM1384 25v100h31l19 -78l18 78h29v-100h-19v77l-20 -77h-19l-20 77v-77h-19z" />
<glyph unicode="&#xcb;" d="M68 731q0 150 56 282t154.5 230t230.5 155.5t282 57.5t281.5 -57.5t230 -155.5t156 -230t57.5 -282t-57.5 -282t-156 -230t-230 -155.5t-281.5 -57.5t-282 57.5t-230.5 155.5t-154.5 230.5t-56 281.5zM164 731q0 -129 49 -242.5t135 -199.5t200 -135.5t243 -49.5 q131 0 244.5 49.5t197.5 135.5t133 199.5t49 242.5t-49 242.5t-133 198.5t-197.5 134.5t-244.5 49.5q-129 0 -243 -49.5t-200 -134.5t-135 -198.5t-49 -242.5zM207 731q0 119 46 224.5t126 184.5t185.5 124t226.5 45q119 0 225 -45t185 -124t125 -184.5t46 -224.5 q0 -121 -46 -227.5t-125 -185t-185 -125t-225 -46.5q-121 0 -226.5 46.5t-185.5 125t-126 185t-46 227.5zM330 664l112 -177q346 -80 699 0l110 177h-921zM451 1063l151 -189q4 -4 15.5 -0.5t23.5 9.5t20.5 12t8.5 8q-29 57 -47.5 118.5t-53.5 111.5q-6 8 -26.5 -0.5 t-42 -22.5t-38 -28.5t-11.5 -18.5zM463 457q20 -35 51 -74t73 -70.5t92.5 -53t111.5 -21.5q59 0 110 21.5t92 53t73 70.5t52 74q-164 -43 -326.5 -42t-328.5 42zM715 731h155l-77 187zM918 903q-4 -2 4 -8t19 -12t23.5 -9.5t18.5 0.5l147 189q4 4 -11 18.5t-36.5 28.5 t-42 22.5t-26.5 0.5q-39 -49 -55.5 -110.5t-40.5 -119.5zM1290 102v23h84v-23h-31v-77h-22v77h-31zM1384 25v100h31l19 -78l18 78h29v-100h-19v77l-20 -77h-19l-20 77v-77h-19z" />
<glyph unicode="&#xcc;" d="M68 731q0 150 56 282t154.5 230t230.5 155.5t282 57.5t281.5 -57.5t230 -155.5t156 -230t57.5 -282t-57.5 -282t-156 -230t-230 -155.5t-281.5 -57.5t-282 57.5t-230.5 155.5t-154.5 230.5t-56 281.5zM164 731q0 -129 49 -242.5t135 -199.5t200 -135.5t243 -49.5 q131 0 244.5 49.5t197.5 135.5t133 199.5t49 242.5t-49 242.5t-133 198.5t-197.5 134.5t-244.5 49.5q-129 0 -243 -49.5t-200 -134.5t-135 -198.5t-49 -242.5zM207 731q0 119 46 224.5t126 184.5t185.5 124t226.5 45q119 0 225 -45t185 -124t125 -184.5t46 -224.5 q0 -121 -46 -227.5t-125 -185t-185 -125t-225 -46.5q-121 0 -226.5 46.5t-185.5 125t-126 185t-46 227.5zM330 664l112 -177q346 -80 699 0l110 177h-921zM451 1063l151 -189q4 -4 15.5 -0.5t23.5 9.5t20.5 12t8.5 8q-29 57 -47.5 118.5t-53.5 111.5q-6 8 -26.5 -0.5 t-42 -22.5t-38 -28.5t-11.5 -18.5zM463 457q20 -35 51 -74t73 -70.5t92.5 -53t111.5 -21.5q59 0 110 21.5t92 53t73 70.5t52 74q-164 -43 -326.5 -42t-328.5 42zM715 731h155l-77 187zM918 903q-4 -2 4 -8t19 -12t23.5 -9.5t18.5 0.5l147 189q4 4 -11 18.5t-36.5 28.5 t-42 22.5t-26.5 0.5q-39 -49 -55.5 -110.5t-40.5 -119.5zM1290 102v23h84v-23h-31v-77h-22v77h-31zM1384 25v100h31l19 -78l18 78h29v-100h-19v77l-20 -77h-19l-20 77v-77h-19z" />
<glyph unicode="&#xcd;" d="M68 731q0 150 56 282t154.5 230t230.5 155.5t282 57.5t281.5 -57.5t230 -155.5t156 -230t57.5 -282t-57.5 -282t-156 -230t-230 -155.5t-281.5 -57.5t-282 57.5t-230.5 155.5t-154.5 230.5t-56 281.5zM164 731q0 -129 49 -242.5t135 -199.5t200 -135.5t243 -49.5 q131 0 244.5 49.5t197.5 135.5t133 199.5t49 242.5t-49 242.5t-133 198.5t-197.5 134.5t-244.5 49.5q-129 0 -243 -49.5t-200 -134.5t-135 -198.5t-49 -242.5zM207 731q0 119 46 224.5t126 184.5t185.5 124t226.5 45q119 0 225 -45t185 -124t125 -184.5t46 -224.5 q0 -121 -46 -227.5t-125 -185t-185 -125t-225 -46.5q-121 0 -226.5 46.5t-185.5 125t-126 185t-46 227.5zM330 664l112 -177q346 -80 699 0l110 177h-921zM451 1063l151 -189q4 -4 15.5 -0.5t23.5 9.5t20.5 12t8.5 8q-29 57 -47.5 118.5t-53.5 111.5q-6 8 -26.5 -0.5 t-42 -22.5t-38 -28.5t-11.5 -18.5zM463 457q20 -35 51 -74t73 -70.5t92.5 -53t111.5 -21.5q59 0 110 21.5t92 53t73 70.5t52 74q-164 -43 -326.5 -42t-328.5 42zM715 731h155l-77 187zM918 903q-4 -2 4 -8t19 -12t23.5 -9.5t18.5 0.5l147 189q4 4 -11 18.5t-36.5 28.5 t-42 22.5t-26.5 0.5q-39 -49 -55.5 -110.5t-40.5 -119.5zM1290 102v23h84v-23h-31v-77h-22v77h-31zM1384 25v100h31l19 -78l18 78h29v-100h-19v77l-20 -77h-19l-20 77v-77h-19z" />
<glyph unicode="&#xce;" d="M68 731q0 150 56 282t154.5 230t230.5 155.5t282 57.5t281.5 -57.5t230 -155.5t156 -230t57.5 -282t-57.5 -282t-156 -230t-230 -155.5t-281.5 -57.5t-282 57.5t-230.5 155.5t-154.5 230.5t-56 281.5zM164 731q0 -129 49 -242.5t135 -199.5t200 -135.5t243 -49.5 q131 0 244.5 49.5t197.5 135.5t133 199.5t49 242.5t-49 242.5t-133 198.5t-197.5 134.5t-244.5 49.5q-129 0 -243 -49.5t-200 -134.5t-135 -198.5t-49 -242.5zM207 731q0 119 46 224.5t126 184.5t185.5 124t226.5 45q119 0 225 -45t185 -124t125 -184.5t46 -224.5 q0 -121 -46 -227.5t-125 -185t-185 -125t-225 -46.5q-121 0 -226.5 46.5t-185.5 125t-126 185t-46 227.5zM330 664l112 -177q346 -80 699 0l110 177h-921zM451 1063l151 -189q4 -4 15.5 -0.5t23.5 9.5t20.5 12t8.5 8q-29 57 -47.5 118.5t-53.5 111.5q-6 8 -26.5 -0.5 t-42 -22.5t-38 -28.5t-11.5 -18.5zM463 457q20 -35 51 -74t73 -70.5t92.5 -53t111.5 -21.5q59 0 110 21.5t92 53t73 70.5t52 74q-164 -43 -326.5 -42t-328.5 42zM715 731h155l-77 187zM918 903q-4 -2 4 -8t19 -12t23.5 -9.5t18.5 0.5l147 189q4 4 -11 18.5t-36.5 28.5 t-42 22.5t-26.5 0.5q-39 -49 -55.5 -110.5t-40.5 -119.5zM1290 102v23h84v-23h-31v-77h-22v77h-31zM1384 25v100h31l19 -78l18 78h29v-100h-19v77l-20 -77h-19l-20 77v-77h-19z" />
<glyph unicode="&#xcf;" d="M68 731q0 150 56 282t154.5 230t230.5 155.5t282 57.5t281.5 -57.5t230 -155.5t156 -230t57.5 -282t-57.5 -282t-156 -230t-230 -155.5t-281.5 -57.5t-282 57.5t-230.5 155.5t-154.5 230.5t-56 281.5zM164 731q0 -129 49 -242.5t135 -199.5t200 -135.5t243 -49.5 q131 0 244.5 49.5t197.5 135.5t133 199.5t49 242.5t-49 242.5t-133 198.5t-197.5 134.5t-244.5 49.5q-129 0 -243 -49.5t-200 -134.5t-135 -198.5t-49 -242.5zM207 731q0 119 46 224.5t126 184.5t185.5 124t226.5 45q119 0 225 -45t185 -124t125 -184.5t46 -224.5 q0 -121 -46 -227.5t-125 -185t-185 -125t-225 -46.5q-121 0 -226.5 46.5t-185.5 125t-126 185t-46 227.5zM330 664l112 -177q346 -80 699 0l110 177h-921zM451 1063l151 -189q4 -4 15.5 -0.5t23.5 9.5t20.5 12t8.5 8q-29 57 -47.5 118.5t-53.5 111.5q-6 8 -26.5 -0.5 t-42 -22.5t-38 -28.5t-11.5 -18.5zM463 457q20 -35 51 -74t73 -70.5t92.5 -53t111.5 -21.5q59 0 110 21.5t92 53t73 70.5t52 74q-164 -43 -326.5 -42t-328.5 42zM715 731h155l-77 187zM918 903q-4 -2 4 -8t19 -12t23.5 -9.5t18.5 0.5l147 189q4 4 -11 18.5t-36.5 28.5 t-42 22.5t-26.5 0.5q-39 -49 -55.5 -110.5t-40.5 -119.5zM1290 102v23h84v-23h-31v-77h-22v77h-31zM1384 25v100h31l19 -78l18 78h29v-100h-19v77l-20 -77h-19l-20 77v-77h-19z" />
<glyph unicode="&#xd0;" d="M68 731q0 150 56 282t154.5 230t230.5 155.5t282 57.5t281.5 -57.5t230 -155.5t156 -230t57.5 -282t-57.5 -282t-156 -230t-230 -155.5t-281.5 -57.5t-282 57.5t-230.5 155.5t-154.5 230.5t-56 281.5zM164 731q0 -129 49 -242.5t135 -199.5t200 -135.5t243 -49.5 q131 0 244.5 49.5t197.5 135.5t133 199.5t49 242.5t-49 242.5t-133 198.5t-197.5 134.5t-244.5 49.5q-129 0 -243 -49.5t-200 -134.5t-135 -198.5t-49 -242.5zM207 731q0 119 46 224.5t126 184.5t185.5 124t226.5 45q119 0 225 -45t185 -124t125 -184.5t46 -224.5 q0 -121 -46 -227.5t-125 -185t-185 -125t-225 -46.5q-121 0 -226.5 46.5t-185.5 125t-126 185t-46 227.5zM330 664l112 -177q346 -80 699 0l110 177h-921zM451 1063l151 -189q4 -4 15.5 -0.5t23.5 9.5t20.5 12t8.5 8q-29 57 -47.5 118.5t-53.5 111.5q-6 8 -26.5 -0.5 t-42 -22.5t-38 -28.5t-11.5 -18.5zM463 457q20 -35 51 -74t73 -70.5t92.5 -53t111.5 -21.5q59 0 110 21.5t92 53t73 70.5t52 74q-164 -43 -326.5 -42t-328.5 42zM715 731h155l-77 187zM918 903q-4 -2 4 -8t19 -12t23.5 -9.5t18.5 0.5l147 189q4 4 -11 18.5t-36.5 28.5 t-42 22.5t-26.5 0.5q-39 -49 -55.5 -110.5t-40.5 -119.5zM1290 102v23h84v-23h-31v-77h-22v77h-31zM1384 25v100h31l19 -78l18 78h29v-100h-19v77l-20 -77h-19l-20 77v-77h-19z" />
<glyph unicode="&#xd1;" d="M68 731q0 150 56 282t154.5 230t230.5 155.5t282 57.5t281.5 -57.5t230 -155.5t156 -230t57.5 -282t-57.5 -282t-156 -230t-230 -155.5t-281.5 -57.5t-282 57.5t-230.5 155.5t-154.5 230.5t-56 281.5zM164 731q0 -129 49 -242.5t135 -199.5t200 -135.5t243 -49.5 q131 0 244.5 49.5t197.5 135.5t133 199.5t49 242.5t-49 242.5t-133 198.5t-197.5 134.5t-244.5 49.5q-129 0 -243 -49.5t-200 -134.5t-135 -198.5t-49 -242.5zM207 731q0 119 46 224.5t126 184.5t185.5 124t226.5 45q119 0 225 -45t185 -124t125 -184.5t46 -224.5 q0 -121 -46 -227.5t-125 -185t-185 -125t-225 -46.5q-121 0 -226.5 46.5t-185.5 125t-126 185t-46 227.5zM330 664l112 -177q346 -80 699 0l110 177h-921zM451 1063l151 -189q4 -4 15.5 -0.5t23.5 9.5t20.5 12t8.5 8q-29 57 -47.5 118.5t-53.5 111.5q-6 8 -26.5 -0.5 t-42 -22.5t-38 -28.5t-11.5 -18.5zM463 457q20 -35 51 -74t73 -70.5t92.5 -53t111.5 -21.5q59 0 110 21.5t92 53t73 70.5t52 74q-164 -43 -326.5 -42t-328.5 42zM715 731h155l-77 187zM918 903q-4 -2 4 -8t19 -12t23.5 -9.5t18.5 0.5l147 189q4 4 -11 18.5t-36.5 28.5 t-42 22.5t-26.5 0.5q-39 -49 -55.5 -110.5t-40.5 -119.5zM1290 102v23h84v-23h-31v-77h-22v77h-31zM1384 25v100h31l19 -78l18 78h29v-100h-19v77l-20 -77h-19l-20 77v-77h-19z" />
<glyph unicode="&#xd2;" d="M68 731q0 150 56 282t154.5 230t230.5 155.5t282 57.5t281.5 -57.5t230 -155.5t156 -230t57.5 -282t-57.5 -282t-156 -230t-230 -155.5t-281.5 -57.5t-282 57.5t-230.5 155.5t-154.5 230.5t-56 281.5zM164 731q0 -129 49 -242.5t135 -199.5t200 -135.5t243 -49.5 q131 0 244.5 49.5t197.5 135.5t133 199.5t49 242.5t-49 242.5t-133 198.5t-197.5 134.5t-244.5 49.5q-129 0 -243 -49.5t-200 -134.5t-135 -198.5t-49 -242.5zM207 731q0 119 46 224.5t126 184.5t185.5 124t226.5 45q119 0 225 -45t185 -124t125 -184.5t46 -224.5 q0 -121 -46 -227.5t-125 -185t-185 -125t-225 -46.5q-121 0 -226.5 46.5t-185.5 125t-126 185t-46 227.5zM330 664l112 -177q346 -80 699 0l110 177h-921zM451 1063l151 -189q4 -4 15.5 -0.5t23.5 9.5t20.5 12t8.5 8q-29 57 -47.5 118.5t-53.5 111.5q-6 8 -26.5 -0.5 t-42 -22.5t-38 -28.5t-11.5 -18.5zM463 457q20 -35 51 -74t73 -70.5t92.5 -53t111.5 -21.5q59 0 110 21.5t92 53t73 70.5t52 74q-164 -43 -326.5 -42t-328.5 42zM715 731h155l-77 187zM918 903q-4 -2 4 -8t19 -12t23.5 -9.5t18.5 0.5l147 189q4 4 -11 18.5t-36.5 28.5 t-42 22.5t-26.5 0.5q-39 -49 -55.5 -110.5t-40.5 -119.5zM1290 102v23h84v-23h-31v-77h-22v77h-31zM1384 25v100h31l19 -78l18 78h29v-100h-19v77l-20 -77h-19l-20 77v-77h-19z" />
<glyph unicode="&#xd3;" d="M68 731q0 150 56 282t154.5 230t230.5 155.5t282 57.5t281.5 -57.5t230 -155.5t156 -230t57.5 -282t-57.5 -282t-156 -230t-230 -155.5t-281.5 -57.5t-282 57.5t-230.5 155.5t-154.5 230.5t-56 281.5zM164 731q0 -129 49 -242.5t135 -199.5t200 -135.5t243 -49.5 q131 0 244.5 49.5t197.5 135.5t133 199.5t49 242.5t-49 242.5t-133 198.5t-197.5 134.5t-244.5 49.5q-129 0 -243 -49.5t-200 -134.5t-135 -198.5t-49 -242.5zM207 731q0 119 46 224.5t126 184.5t185.5 124t226.5 45q119 0 225 -45t185 -124t125 -184.5t46 -224.5 q0 -121 -46 -227.5t-125 -185t-185 -125t-225 -46.5q-121 0 -226.5 46.5t-185.5 125t-126 185t-46 227.5zM330 664l112 -177q346 -80 699 0l110 177h-921zM451 1063l151 -189q4 -4 15.5 -0.5t23.5 9.5t20.5 12t8.5 8q-29 57 -47.5 118.5t-53.5 111.5q-6 8 -26.5 -0.5 t-42 -22.5t-38 -28.5t-11.5 -18.5zM463 457q20 -35 51 -74t73 -70.5t92.5 -53t111.5 -21.5q59 0 110 21.5t92 53t73 70.5t52 74q-164 -43 -326.5 -42t-328.5 42zM715 731h155l-77 187zM918 903q-4 -2 4 -8t19 -12t23.5 -9.5t18.5 0.5l147 189q4 4 -11 18.5t-36.5 28.5 t-42 22.5t-26.5 0.5q-39 -49 -55.5 -110.5t-40.5 -119.5zM1290 102v23h84v-23h-31v-77h-22v77h-31zM1384 25v100h31l19 -78l18 78h29v-100h-19v77l-20 -77h-19l-20 77v-77h-19z" />
<glyph unicode="&#xd4;" d="M68 731q0 150 56 282t154.5 230t230.5 155.5t282 57.5t281.5 -57.5t230 -155.5t156 -230t57.5 -282t-57.5 -282t-156 -230t-230 -155.5t-281.5 -57.5t-282 57.5t-230.5 155.5t-154.5 230.5t-56 281.5zM164 731q0 -129 49 -242.5t135 -199.5t200 -135.5t243 -49.5 q131 0 244.5 49.5t197.5 135.5t133 199.5t49 242.5t-49 242.5t-133 198.5t-197.5 134.5t-244.5 49.5q-129 0 -243 -49.5t-200 -134.5t-135 -198.5t-49 -242.5zM207 731q0 119 46 224.5t126 184.5t185.5 124t226.5 45q119 0 225 -45t185 -124t125 -184.5t46 -224.5 q0 -121 -46 -227.5t-125 -185t-185 -125t-225 -46.5q-121 0 -226.5 46.5t-185.5 125t-126 185t-46 227.5zM330 664l112 -177q346 -80 699 0l110 177h-921zM451 1063l151 -189q4 -4 15.5 -0.5t23.5 9.5t20.5 12t8.5 8q-29 57 -47.5 118.5t-53.5 111.5q-6 8 -26.5 -0.5 t-42 -22.5t-38 -28.5t-11.5 -18.5zM463 457q20 -35 51 -74t73 -70.5t92.5 -53t111.5 -21.5q59 0 110 21.5t92 53t73 70.5t52 74q-164 -43 -326.5 -42t-328.5 42zM715 731h155l-77 187zM918 903q-4 -2 4 -8t19 -12t23.5 -9.5t18.5 0.5l147 189q4 4 -11 18.5t-36.5 28.5 t-42 22.5t-26.5 0.5q-39 -49 -55.5 -110.5t-40.5 -119.5zM1290 102v23h84v-23h-31v-77h-22v77h-31zM1384 25v100h31l19 -78l18 78h29v-100h-19v77l-20 -77h-19l-20 77v-77h-19z" />
<glyph unicode="&#xd5;" d="M68 731q0 150 56 282t154.5 230t230.5 155.5t282 57.5t281.5 -57.5t230 -155.5t156 -230t57.5 -282t-57.5 -282t-156 -230t-230 -155.5t-281.5 -57.5t-282 57.5t-230.5 155.5t-154.5 230.5t-56 281.5zM164 731q0 -129 49 -242.5t135 -199.5t200 -135.5t243 -49.5 q131 0 244.5 49.5t197.5 135.5t133 199.5t49 242.5t-49 242.5t-133 198.5t-197.5 134.5t-244.5 49.5q-129 0 -243 -49.5t-200 -134.5t-135 -198.5t-49 -242.5zM207 731q0 119 46 224.5t126 184.5t185.5 124t226.5 45q119 0 225 -45t185 -124t125 -184.5t46 -224.5 q0 -121 -46 -227.5t-125 -185t-185 -125t-225 -46.5q-121 0 -226.5 46.5t-185.5 125t-126 185t-46 227.5zM330 664l112 -177q346 -80 699 0l110 177h-921zM451 1063l151 -189q4 -4 15.5 -0.5t23.5 9.5t20.5 12t8.5 8q-29 57 -47.5 118.5t-53.5 111.5q-6 8 -26.5 -0.5 t-42 -22.5t-38 -28.5t-11.5 -18.5zM463 457q20 -35 51 -74t73 -70.5t92.5 -53t111.5 -21.5q59 0 110 21.5t92 53t73 70.5t52 74q-164 -43 -326.5 -42t-328.5 42zM715 731h155l-77 187zM918 903q-4 -2 4 -8t19 -12t23.5 -9.5t18.5 0.5l147 189q4 4 -11 18.5t-36.5 28.5 t-42 22.5t-26.5 0.5q-39 -49 -55.5 -110.5t-40.5 -119.5zM1290 102v23h84v-23h-31v-77h-22v77h-31zM1384 25v100h31l19 -78l18 78h29v-100h-19v77l-20 -77h-19l-20 77v-77h-19z" />
<glyph unicode="&#xd6;" d="M68 731q0 150 56 282t154.5 230t230.5 155.5t282 57.5t281.5 -57.5t230 -155.5t156 -230t57.5 -282t-57.5 -282t-156 -230t-230 -155.5t-281.5 -57.5t-282 57.5t-230.5 155.5t-154.5 230.5t-56 281.5zM164 731q0 -129 49 -242.5t135 -199.5t200 -135.5t243 -49.5 q131 0 244.5 49.5t197.5 135.5t133 199.5t49 242.5t-49 242.5t-133 198.5t-197.5 134.5t-244.5 49.5q-129 0 -243 -49.5t-200 -134.5t-135 -198.5t-49 -242.5zM207 731q0 119 46 224.5t126 184.5t185.5 124t226.5 45q119 0 225 -45t185 -124t125 -184.5t46 -224.5 q0 -121 -46 -227.5t-125 -185t-185 -125t-225 -46.5q-121 0 -226.5 46.5t-185.5 125t-126 185t-46 227.5zM330 664l112 -177q346 -80 699 0l110 177h-921zM451 1063l151 -189q4 -4 15.5 -0.5t23.5 9.5t20.5 12t8.5 8q-29 57 -47.5 118.5t-53.5 111.5q-6 8 -26.5 -0.5 t-42 -22.5t-38 -28.5t-11.5 -18.5zM463 457q20 -35 51 -74t73 -70.5t92.5 -53t111.5 -21.5q59 0 110 21.5t92 53t73 70.5t52 74q-164 -43 -326.5 -42t-328.5 42zM715 731h155l-77 187zM918 903q-4 -2 4 -8t19 -12t23.5 -9.5t18.5 0.5l147 189q4 4 -11 18.5t-36.5 28.5 t-42 22.5t-26.5 0.5q-39 -49 -55.5 -110.5t-40.5 -119.5zM1290 102v23h84v-23h-31v-77h-22v77h-31zM1384 25v100h31l19 -78l18 78h29v-100h-19v77l-20 -77h-19l-20 77v-77h-19z" />
<glyph unicode="&#xd7;" d="M68 731q0 150 56 282t154.5 230t230.5 155.5t282 57.5t281.5 -57.5t230 -155.5t156 -230t57.5 -282t-57.5 -282t-156 -230t-230 -155.5t-281.5 -57.5t-282 57.5t-230.5 155.5t-154.5 230.5t-56 281.5zM164 731q0 -129 49 -242.5t135 -199.5t200 -135.5t243 -49.5 q131 0 244.5 49.5t197.5 135.5t133 199.5t49 242.5t-49 242.5t-133 198.5t-197.5 134.5t-244.5 49.5q-129 0 -243 -49.5t-200 -134.5t-135 -198.5t-49 -242.5zM207 731q0 119 46 224.5t126 184.5t185.5 124t226.5 45q119 0 225 -45t185 -124t125 -184.5t46 -224.5 q0 -121 -46 -227.5t-125 -185t-185 -125t-225 -46.5q-121 0 -226.5 46.5t-185.5 125t-126 185t-46 227.5zM330 664l112 -177q346 -80 699 0l110 177h-921zM451 1063l151 -189q4 -4 15.5 -0.5t23.5 9.5t20.5 12t8.5 8q-29 57 -47.5 118.5t-53.5 111.5q-6 8 -26.5 -0.5 t-42 -22.5t-38 -28.5t-11.5 -18.5zM463 457q20 -35 51 -74t73 -70.5t92.5 -53t111.5 -21.5q59 0 110 21.5t92 53t73 70.5t52 74q-164 -43 -326.5 -42t-328.5 42zM715 731h155l-77 187zM918 903q-4 -2 4 -8t19 -12t23.5 -9.5t18.5 0.5l147 189q4 4 -11 18.5t-36.5 28.5 t-42 22.5t-26.5 0.5q-39 -49 -55.5 -110.5t-40.5 -119.5zM1290 102v23h84v-23h-31v-77h-22v77h-31zM1384 25v100h31l19 -78l18 78h29v-100h-19v77l-20 -77h-19l-20 77v-77h-19z" />
<glyph unicode="&#xd8;" d="M68 731q0 150 56 282t154.5 230t230.5 155.5t282 57.5t281.5 -57.5t230 -155.5t156 -230t57.5 -282t-57.5 -282t-156 -230t-230 -155.5t-281.5 -57.5t-282 57.5t-230.5 155.5t-154.5 230.5t-56 281.5zM164 731q0 -129 49 -242.5t135 -199.5t200 -135.5t243 -49.5 q131 0 244.5 49.5t197.5 135.5t133 199.5t49 242.5t-49 242.5t-133 198.5t-197.5 134.5t-244.5 49.5q-129 0 -243 -49.5t-200 -134.5t-135 -198.5t-49 -242.5zM207 731q0 119 46 224.5t126 184.5t185.5 124t226.5 45q119 0 225 -45t185 -124t125 -184.5t46 -224.5 q0 -121 -46 -227.5t-125 -185t-185 -125t-225 -46.5q-121 0 -226.5 46.5t-185.5 125t-126 185t-46 227.5zM330 664l112 -177q346 -80 699 0l110 177h-921zM451 1063l151 -189q4 -4 15.5 -0.5t23.5 9.5t20.5 12t8.5 8q-29 57 -47.5 118.5t-53.5 111.5q-6 8 -26.5 -0.5 t-42 -22.5t-38 -28.5t-11.5 -18.5zM463 457q20 -35 51 -74t73 -70.5t92.5 -53t111.5 -21.5q59 0 110 21.5t92 53t73 70.5t52 74q-164 -43 -326.5 -42t-328.5 42zM715 731h155l-77 187zM918 903q-4 -2 4 -8t19 -12t23.5 -9.5t18.5 0.5l147 189q4 4 -11 18.5t-36.5 28.5 t-42 22.5t-26.5 0.5q-39 -49 -55.5 -110.5t-40.5 -119.5zM1290 102v23h84v-23h-31v-77h-22v77h-31zM1384 25v100h31l19 -78l18 78h29v-100h-19v77l-20 -77h-19l-20 77v-77h-19z" />
<glyph unicode="&#xd9;" d="M68 731q0 150 56 282t154.5 230t230.5 155.5t282 57.5t281.5 -57.5t230 -155.5t156 -230t57.5 -282t-57.5 -282t-156 -230t-230 -155.5t-281.5 -57.5t-282 57.5t-230.5 155.5t-154.5 230.5t-56 281.5zM164 731q0 -129 49 -242.5t135 -199.5t200 -135.5t243 -49.5 q131 0 244.5 49.5t197.5 135.5t133 199.5t49 242.5t-49 242.5t-133 198.5t-197.5 134.5t-244.5 49.5q-129 0 -243 -49.5t-200 -134.5t-135 -198.5t-49 -242.5zM207 731q0 119 46 224.5t126 184.5t185.5 124t226.5 45q119 0 225 -45t185 -124t125 -184.5t46 -224.5 q0 -121 -46 -227.5t-125 -185t-185 -125t-225 -46.5q-121 0 -226.5 46.5t-185.5 125t-126 185t-46 227.5zM330 664l112 -177q346 -80 699 0l110 177h-921zM451 1063l151 -189q4 -4 15.5 -0.5t23.5 9.5t20.5 12t8.5 8q-29 57 -47.5 118.5t-53.5 111.5q-6 8 -26.5 -0.5 t-42 -22.5t-38 -28.5t-11.5 -18.5zM463 457q20 -35 51 -74t73 -70.5t92.5 -53t111.5 -21.5q59 0 110 21.5t92 53t73 70.5t52 74q-164 -43 -326.5 -42t-328.5 42zM715 731h155l-77 187zM918 903q-4 -2 4 -8t19 -12t23.5 -9.5t18.5 0.5l147 189q4 4 -11 18.5t-36.5 28.5 t-42 22.5t-26.5 0.5q-39 -49 -55.5 -110.5t-40.5 -119.5zM1290 102v23h84v-23h-31v-77h-22v77h-31zM1384 25v100h31l19 -78l18 78h29v-100h-19v77l-20 -77h-19l-20 77v-77h-19z" />
<glyph unicode="&#xda;" d="M68 731q0 150 56 282t154.5 230t230.5 155.5t282 57.5t281.5 -57.5t230 -155.5t156 -230t57.5 -282t-57.5 -282t-156 -230t-230 -155.5t-281.5 -57.5t-282 57.5t-230.5 155.5t-154.5 230.5t-56 281.5zM164 731q0 -129 49 -242.5t135 -199.5t200 -135.5t243 -49.5 q131 0 244.5 49.5t197.5 135.5t133 199.5t49 242.5t-49 242.5t-133 198.5t-197.5 134.5t-244.5 49.5q-129 0 -243 -49.5t-200 -134.5t-135 -198.5t-49 -242.5zM207 731q0 119 46 224.5t126 184.5t185.5 124t226.5 45q119 0 225 -45t185 -124t125 -184.5t46 -224.5 q0 -121 -46 -227.5t-125 -185t-185 -125t-225 -46.5q-121 0 -226.5 46.5t-185.5 125t-126 185t-46 227.5zM330 664l112 -177q346 -80 699 0l110 177h-921zM451 1063l151 -189q4 -4 15.5 -0.5t23.5 9.5t20.5 12t8.5 8q-29 57 -47.5 118.5t-53.5 111.5q-6 8 -26.5 -0.5 t-42 -22.5t-38 -28.5t-11.5 -18.5zM463 457q20 -35 51 -74t73 -70.5t92.5 -53t111.5 -21.5q59 0 110 21.5t92 53t73 70.5t52 74q-164 -43 -326.5 -42t-328.5 42zM715 731h155l-77 187zM918 903q-4 -2 4 -8t19 -12t23.5 -9.5t18.5 0.5l147 189q4 4 -11 18.5t-36.5 28.5 t-42 22.5t-26.5 0.5q-39 -49 -55.5 -110.5t-40.5 -119.5zM1290 102v23h84v-23h-31v-77h-22v77h-31zM1384 25v100h31l19 -78l18 78h29v-100h-19v77l-20 -77h-19l-20 77v-77h-19z" />
<glyph unicode="&#xdb;" d="M68 731q0 150 56 282t154.5 230t230.5 155.5t282 57.5t281.5 -57.5t230 -155.5t156 -230t57.5 -282t-57.5 -282t-156 -230t-230 -155.5t-281.5 -57.5t-282 57.5t-230.5 155.5t-154.5 230.5t-56 281.5zM164 731q0 -129 49 -242.5t135 -199.5t200 -135.5t243 -49.5 q131 0 244.5 49.5t197.5 135.5t133 199.5t49 242.5t-49 242.5t-133 198.5t-197.5 134.5t-244.5 49.5q-129 0 -243 -49.5t-200 -134.5t-135 -198.5t-49 -242.5zM207 731q0 119 46 224.5t126 184.5t185.5 124t226.5 45q119 0 225 -45t185 -124t125 -184.5t46 -224.5 q0 -121 -46 -227.5t-125 -185t-185 -125t-225 -46.5q-121 0 -226.5 46.5t-185.5 125t-126 185t-46 227.5zM330 664l112 -177q346 -80 699 0l110 177h-921zM451 1063l151 -189q4 -4 15.5 -0.5t23.5 9.5t20.5 12t8.5 8q-29 57 -47.5 118.5t-53.5 111.5q-6 8 -26.5 -0.5 t-42 -22.5t-38 -28.5t-11.5 -18.5zM463 457q20 -35 51 -74t73 -70.5t92.5 -53t111.5 -21.5q59 0 110 21.5t92 53t73 70.5t52 74q-164 -43 -326.5 -42t-328.5 42zM715 731h155l-77 187zM918 903q-4 -2 4 -8t19 -12t23.5 -9.5t18.5 0.5l147 189q4 4 -11 18.5t-36.5 28.5 t-42 22.5t-26.5 0.5q-39 -49 -55.5 -110.5t-40.5 -119.5zM1290 102v23h84v-23h-31v-77h-22v77h-31zM1384 25v100h31l19 -78l18 78h29v-100h-19v77l-20 -77h-19l-20 77v-77h-19z" />
<glyph unicode="&#xdc;" d="M68 731q0 150 56 282t154.5 230t230.5 155.5t282 57.5t281.5 -57.5t230 -155.5t156 -230t57.5 -282t-57.5 -282t-156 -230t-230 -155.5t-281.5 -57.5t-282 57.5t-230.5 155.5t-154.5 230.5t-56 281.5zM164 731q0 -129 49 -242.5t135 -199.5t200 -135.5t243 -49.5 q131 0 244.5 49.5t197.5 135.5t133 199.5t49 242.5t-49 242.5t-133 198.5t-197.5 134.5t-244.5 49.5q-129 0 -243 -49.5t-200 -134.5t-135 -198.5t-49 -242.5zM207 731q0 119 46 224.5t126 184.5t185.5 124t226.5 45q119 0 225 -45t185 -124t125 -184.5t46 -224.5 q0 -121 -46 -227.5t-125 -185t-185 -125t-225 -46.5q-121 0 -226.5 46.5t-185.5 125t-126 185t-46 227.5zM330 664l112 -177q346 -80 699 0l110 177h-921zM451 1063l151 -189q4 -4 15.5 -0.5t23.5 9.5t20.5 12t8.5 8q-29 57 -47.5 118.5t-53.5 111.5q-6 8 -26.5 -0.5 t-42 -22.5t-38 -28.5t-11.5 -18.5zM463 457q20 -35 51 -74t73 -70.5t92.5 -53t111.5 -21.5q59 0 110 21.5t92 53t73 70.5t52 74q-164 -43 -326.5 -42t-328.5 42zM715 731h155l-77 187zM918 903q-4 -2 4 -8t19 -12t23.5 -9.5t18.5 0.5l147 189q4 4 -11 18.5t-36.5 28.5 t-42 22.5t-26.5 0.5q-39 -49 -55.5 -110.5t-40.5 -119.5zM1290 102v23h84v-23h-31v-77h-22v77h-31zM1384 25v100h31l19 -78l18 78h29v-100h-19v77l-20 -77h-19l-20 77v-77h-19z" />
<glyph unicode="&#xdd;" d="M68 731q0 150 56 282t154.5 230t230.5 155.5t282 57.5t281.5 -57.5t230 -155.5t156 -230t57.5 -282t-57.5 -282t-156 -230t-230 -155.5t-281.5 -57.5t-282 57.5t-230.5 155.5t-154.5 230.5t-56 281.5zM164 731q0 -129 49 -242.5t135 -199.5t200 -135.5t243 -49.5 q131 0 244.5 49.5t197.5 135.5t133 199.5t49 242.5t-49 242.5t-133 198.5t-197.5 134.5t-244.5 49.5q-129 0 -243 -49.5t-200 -134.5t-135 -198.5t-49 -242.5zM207 731q0 119 46 224.5t126 184.5t185.5 124t226.5 45q119 0 225 -45t185 -124t125 -184.5t46 -224.5 q0 -121 -46 -227.5t-125 -185t-185 -125t-225 -46.5q-121 0 -226.5 46.5t-185.5 125t-126 185t-46 227.5zM330 664l112 -177q346 -80 699 0l110 177h-921zM451 1063l151 -189q4 -4 15.5 -0.5t23.5 9.5t20.5 12t8.5 8q-29 57 -47.5 118.5t-53.5 111.5q-6 8 -26.5 -0.5 t-42 -22.5t-38 -28.5t-11.5 -18.5zM463 457q20 -35 51 -74t73 -70.5t92.5 -53t111.5 -21.5q59 0 110 21.5t92 53t73 70.5t52 74q-164 -43 -326.5 -42t-328.5 42zM715 731h155l-77 187zM918 903q-4 -2 4 -8t19 -12t23.5 -9.5t18.5 0.5l147 189q4 4 -11 18.5t-36.5 28.5 t-42 22.5t-26.5 0.5q-39 -49 -55.5 -110.5t-40.5 -119.5zM1290 102v23h84v-23h-31v-77h-22v77h-31zM1384 25v100h31l19 -78l18 78h29v-100h-19v77l-20 -77h-19l-20 77v-77h-19z" />
<glyph unicode="&#xde;" d="M68 731q0 150 56 282t154.5 230t230.5 155.5t282 57.5t281.5 -57.5t230 -155.5t156 -230t57.5 -282t-57.5 -282t-156 -230t-230 -155.5t-281.5 -57.5t-282 57.5t-230.5 155.5t-154.5 230.5t-56 281.5zM164 731q0 -129 49 -242.5t135 -199.5t200 -135.5t243 -49.5 q131 0 244.5 49.5t197.5 135.5t133 199.5t49 242.5t-49 242.5t-133 198.5t-197.5 134.5t-244.5 49.5q-129 0 -243 -49.5t-200 -134.5t-135 -198.5t-49 -242.5zM207 731q0 119 46 224.5t126 184.5t185.5 124t226.5 45q119 0 225 -45t185 -124t125 -184.5t46 -224.5 q0 -121 -46 -227.5t-125 -185t-185 -125t-225 -46.5q-121 0 -226.5 46.5t-185.5 125t-126 185t-46 227.5zM330 664l112 -177q346 -80 699 0l110 177h-921zM451 1063l151 -189q4 -4 15.5 -0.5t23.5 9.5t20.5 12t8.5 8q-29 57 -47.5 118.5t-53.5 111.5q-6 8 -26.5 -0.5 t-42 -22.5t-38 -28.5t-11.5 -18.5zM463 457q20 -35 51 -74t73 -70.5t92.5 -53t111.5 -21.5q59 0 110 21.5t92 53t73 70.5t52 74q-164 -43 -326.5 -42t-328.5 42zM715 731h155l-77 187zM918 903q-4 -2 4 -8t19 -12t23.5 -9.5t18.5 0.5l147 189q4 4 -11 18.5t-36.5 28.5 t-42 22.5t-26.5 0.5q-39 -49 -55.5 -110.5t-40.5 -119.5zM1290 102v23h84v-23h-31v-77h-22v77h-31zM1384 25v100h31l19 -78l18 78h29v-100h-19v77l-20 -77h-19l-20 77v-77h-19z" />
<glyph unicode="&#xdf;" d="M68 731q0 150 56 282t154.5 230t230.5 155.5t282 57.5t281.5 -57.5t230 -155.5t156 -230t57.5 -282t-57.5 -282t-156 -230t-230 -155.5t-281.5 -57.5t-282 57.5t-230.5 155.5t-154.5 230.5t-56 281.5zM164 731q0 -129 49 -242.5t135 -199.5t200 -135.5t243 -49.5 q131 0 244.5 49.5t197.5 135.5t133 199.5t49 242.5t-49 242.5t-133 198.5t-197.5 134.5t-244.5 49.5q-129 0 -243 -49.5t-200 -134.5t-135 -198.5t-49 -242.5zM207 731q0 119 46 224.5t126 184.5t185.5 124t226.5 45q119 0 225 -45t185 -124t125 -184.5t46 -224.5 q0 -121 -46 -227.5t-125 -185t-185 -125t-225 -46.5q-121 0 -226.5 46.5t-185.5 125t-126 185t-46 227.5zM330 664l112 -177q346 -80 699 0l110 177h-921zM451 1063l151 -189q4 -4 15.5 -0.5t23.5 9.5t20.5 12t8.5 8q-29 57 -47.5 118.5t-53.5 111.5q-6 8 -26.5 -0.5 t-42 -22.5t-38 -28.5t-11.5 -18.5zM463 457q20 -35 51 -74t73 -70.5t92.5 -53t111.5 -21.5q59 0 110 21.5t92 53t73 70.5t52 74q-164 -43 -326.5 -42t-328.5 42zM715 731h155l-77 187zM918 903q-4 -2 4 -8t19 -12t23.5 -9.5t18.5 0.5l147 189q4 4 -11 18.5t-36.5 28.5 t-42 22.5t-26.5 0.5q-39 -49 -55.5 -110.5t-40.5 -119.5zM1290 102v23h84v-23h-31v-77h-22v77h-31zM1384 25v100h31l19 -78l18 78h29v-100h-19v77l-20 -77h-19l-20 77v-77h-19z" />
<glyph unicode="&#xe0;" d="M68 731q0 150 56 282t154.5 230t230.5 155.5t282 57.5t281.5 -57.5t230 -155.5t156 -230t57.5 -282t-57.5 -282t-156 -230t-230 -155.5t-281.5 -57.5t-282 57.5t-230.5 155.5t-154.5 230.5t-56 281.5zM164 731q0 -129 49 -242.5t135 -199.5t200 -135.5t243 -49.5 q131 0 244.5 49.5t197.5 135.5t133 199.5t49 242.5t-49 242.5t-133 198.5t-197.5 134.5t-244.5 49.5q-129 0 -243 -49.5t-200 -134.5t-135 -198.5t-49 -242.5zM207 731q0 119 46 224.5t126 184.5t185.5 124t226.5 45q119 0 225 -45t185 -124t125 -184.5t46 -224.5 q0 -121 -46 -227.5t-125 -185t-185 -125t-225 -46.5q-121 0 -226.5 46.5t-185.5 125t-126 185t-46 227.5zM330 664l112 -177q346 -80 699 0l110 177h-921zM451 1063l151 -189q4 -4 15.5 -0.5t23.5 9.5t20.5 12t8.5 8q-29 57 -47.5 118.5t-53.5 111.5q-6 8 -26.5 -0.5 t-42 -22.5t-38 -28.5t-11.5 -18.5zM463 457q20 -35 51 -74t73 -70.5t92.5 -53t111.5 -21.5q59 0 110 21.5t92 53t73 70.5t52 74q-164 -43 -326.5 -42t-328.5 42zM715 731h155l-77 187zM918 903q-4 -2 4 -8t19 -12t23.5 -9.5t18.5 0.5l147 189q4 4 -11 18.5t-36.5 28.5 t-42 22.5t-26.5 0.5q-39 -49 -55.5 -110.5t-40.5 -119.5zM1290 102v23h84v-23h-31v-77h-22v77h-31zM1384 25v100h31l19 -78l18 78h29v-100h-19v77l-20 -77h-19l-20 77v-77h-19z" />
<glyph unicode="&#xe1;" d="M68 731q0 150 56 282t154.5 230t230.5 155.5t282 57.5t281.5 -57.5t230 -155.5t156 -230t57.5 -282t-57.5 -282t-156 -230t-230 -155.5t-281.5 -57.5t-282 57.5t-230.5 155.5t-154.5 230.5t-56 281.5zM164 731q0 -129 49 -242.5t135 -199.5t200 -135.5t243 -49.5 q131 0 244.5 49.5t197.5 135.5t133 199.5t49 242.5t-49 242.5t-133 198.5t-197.5 134.5t-244.5 49.5q-129 0 -243 -49.5t-200 -134.5t-135 -198.5t-49 -242.5zM207 731q0 119 46 224.5t126 184.5t185.5 124t226.5 45q119 0 225 -45t185 -124t125 -184.5t46 -224.5 q0 -121 -46 -227.5t-125 -185t-185 -125t-225 -46.5q-121 0 -226.5 46.5t-185.5 125t-126 185t-46 227.5zM330 664l112 -177q346 -80 699 0l110 177h-921zM451 1063l151 -189q4 -4 15.5 -0.5t23.5 9.5t20.5 12t8.5 8q-29 57 -47.5 118.5t-53.5 111.5q-6 8 -26.5 -0.5 t-42 -22.5t-38 -28.5t-11.5 -18.5zM463 457q20 -35 51 -74t73 -70.5t92.5 -53t111.5 -21.5q59 0 110 21.5t92 53t73 70.5t52 74q-164 -43 -326.5 -42t-328.5 42zM715 731h155l-77 187zM918 903q-4 -2 4 -8t19 -12t23.5 -9.5t18.5 0.5l147 189q4 4 -11 18.5t-36.5 28.5 t-42 22.5t-26.5 0.5q-39 -49 -55.5 -110.5t-40.5 -119.5zM1290 102v23h84v-23h-31v-77h-22v77h-31zM1384 25v100h31l19 -78l18 78h29v-100h-19v77l-20 -77h-19l-20 77v-77h-19z" />
<glyph unicode="&#xe2;" d="M68 731q0 150 56 282t154.5 230t230.5 155.5t282 57.5t281.5 -57.5t230 -155.5t156 -230t57.5 -282t-57.5 -282t-156 -230t-230 -155.5t-281.5 -57.5t-282 57.5t-230.5 155.5t-154.5 230.5t-56 281.5zM164 731q0 -129 49 -242.5t135 -199.5t200 -135.5t243 -49.5 q131 0 244.5 49.5t197.5 135.5t133 199.5t49 242.5t-49 242.5t-133 198.5t-197.5 134.5t-244.5 49.5q-129 0 -243 -49.5t-200 -134.5t-135 -198.5t-49 -242.5zM207 731q0 119 46 224.5t126 184.5t185.5 124t226.5 45q119 0 225 -45t185 -124t125 -184.5t46 -224.5 q0 -121 -46 -227.5t-125 -185t-185 -125t-225 -46.5q-121 0 -226.5 46.5t-185.5 125t-126 185t-46 227.5zM330 664l112 -177q346 -80 699 0l110 177h-921zM451 1063l151 -189q4 -4 15.5 -0.5t23.5 9.5t20.5 12t8.5 8q-29 57 -47.5 118.5t-53.5 111.5q-6 8 -26.5 -0.5 t-42 -22.5t-38 -28.5t-11.5 -18.5zM463 457q20 -35 51 -74t73 -70.5t92.5 -53t111.5 -21.5q59 0 110 21.5t92 53t73 70.5t52 74q-164 -43 -326.5 -42t-328.5 42zM715 731h155l-77 187zM918 903q-4 -2 4 -8t19 -12t23.5 -9.5t18.5 0.5l147 189q4 4 -11 18.5t-36.5 28.5 t-42 22.5t-26.5 0.5q-39 -49 -55.5 -110.5t-40.5 -119.5zM1290 102v23h84v-23h-31v-77h-22v77h-31zM1384 25v100h31l19 -78l18 78h29v-100h-19v77l-20 -77h-19l-20 77v-77h-19z" />
<glyph unicode="&#xe3;" d="M68 731q0 150 56 282t154.5 230t230.5 155.5t282 57.5t281.5 -57.5t230 -155.5t156 -230t57.5 -282t-57.5 -282t-156 -230t-230 -155.5t-281.5 -57.5t-282 57.5t-230.5 155.5t-154.5 230.5t-56 281.5zM164 731q0 -129 49 -242.5t135 -199.5t200 -135.5t243 -49.5 q131 0 244.5 49.5t197.5 135.5t133 199.5t49 242.5t-49 242.5t-133 198.5t-197.5 134.5t-244.5 49.5q-129 0 -243 -49.5t-200 -134.5t-135 -198.5t-49 -242.5zM207 731q0 119 46 224.5t126 184.5t185.5 124t226.5 45q119 0 225 -45t185 -124t125 -184.5t46 -224.5 q0 -121 -46 -227.5t-125 -185t-185 -125t-225 -46.5q-121 0 -226.5 46.5t-185.5 125t-126 185t-46 227.5zM330 664l112 -177q346 -80 699 0l110 177h-921zM451 1063l151 -189q4 -4 15.5 -0.5t23.5 9.5t20.5 12t8.5 8q-29 57 -47.5 118.5t-53.5 111.5q-6 8 -26.5 -0.5 t-42 -22.5t-38 -28.5t-11.5 -18.5zM463 457q20 -35 51 -74t73 -70.5t92.5 -53t111.5 -21.5q59 0 110 21.5t92 53t73 70.5t52 74q-164 -43 -326.5 -42t-328.5 42zM715 731h155l-77 187zM918 903q-4 -2 4 -8t19 -12t23.5 -9.5t18.5 0.5l147 189q4 4 -11 18.5t-36.5 28.5 t-42 22.5t-26.5 0.5q-39 -49 -55.5 -110.5t-40.5 -119.5zM1290 102v23h84v-23h-31v-77h-22v77h-31zM1384 25v100h31l19 -78l18 78h29v-100h-19v77l-20 -77h-19l-20 77v-77h-19z" />
<glyph unicode="&#xe4;" d="M68 731q0 150 56 282t154.5 230t230.5 155.5t282 57.5t281.5 -57.5t230 -155.5t156 -230t57.5 -282t-57.5 -282t-156 -230t-230 -155.5t-281.5 -57.5t-282 57.5t-230.5 155.5t-154.5 230.5t-56 281.5zM164 731q0 -129 49 -242.5t135 -199.5t200 -135.5t243 -49.5 q131 0 244.5 49.5t197.5 135.5t133 199.5t49 242.5t-49 242.5t-133 198.5t-197.5 134.5t-244.5 49.5q-129 0 -243 -49.5t-200 -134.5t-135 -198.5t-49 -242.5zM207 731q0 119 46 224.5t126 184.5t185.5 124t226.5 45q119 0 225 -45t185 -124t125 -184.5t46 -224.5 q0 -121 -46 -227.5t-125 -185t-185 -125t-225 -46.5q-121 0 -226.5 46.5t-185.5 125t-126 185t-46 227.5zM330 664l112 -177q346 -80 699 0l110 177h-921zM451 1063l151 -189q4 -4 15.5 -0.5t23.5 9.5t20.5 12t8.5 8q-29 57 -47.5 118.5t-53.5 111.5q-6 8 -26.5 -0.5 t-42 -22.5t-38 -28.5t-11.5 -18.5zM463 457q20 -35 51 -74t73 -70.5t92.5 -53t111.5 -21.5q59 0 110 21.5t92 53t73 70.5t52 74q-164 -43 -326.5 -42t-328.5 42zM715 731h155l-77 187zM918 903q-4 -2 4 -8t19 -12t23.5 -9.5t18.5 0.5l147 189q4 4 -11 18.5t-36.5 28.5 t-42 22.5t-26.5 0.5q-39 -49 -55.5 -110.5t-40.5 -119.5zM1290 102v23h84v-23h-31v-77h-22v77h-31zM1384 25v100h31l19 -78l18 78h29v-100h-19v77l-20 -77h-19l-20 77v-77h-19z" />
<glyph unicode="&#xe5;" d="M68 731q0 150 56 282t154.5 230t230.5 155.5t282 57.5t281.5 -57.5t230 -155.5t156 -230t57.5 -282t-57.5 -282t-156 -230t-230 -155.5t-281.5 -57.5t-282 57.5t-230.5 155.5t-154.5 230.5t-56 281.5zM164 731q0 -129 49 -242.5t135 -199.5t200 -135.5t243 -49.5 q131 0 244.5 49.5t197.5 135.5t133 199.5t49 242.5t-49 242.5t-133 198.5t-197.5 134.5t-244.5 49.5q-129 0 -243 -49.5t-200 -134.5t-135 -198.5t-49 -242.5zM207 731q0 119 46 224.5t126 184.5t185.5 124t226.5 45q119 0 225 -45t185 -124t125 -184.5t46 -224.5 q0 -121 -46 -227.5t-125 -185t-185 -125t-225 -46.5q-121 0 -226.5 46.5t-185.5 125t-126 185t-46 227.5zM330 664l112 -177q346 -80 699 0l110 177h-921zM451 1063l151 -189q4 -4 15.5 -0.5t23.5 9.5t20.5 12t8.5 8q-29 57 -47.5 118.5t-53.5 111.5q-6 8 -26.5 -0.5 t-42 -22.5t-38 -28.5t-11.5 -18.5zM463 457q20 -35 51 -74t73 -70.5t92.5 -53t111.5 -21.5q59 0 110 21.5t92 53t73 70.5t52 74q-164 -43 -326.5 -42t-328.5 42zM715 731h155l-77 187zM918 903q-4 -2 4 -8t19 -12t23.5 -9.5t18.5 0.5l147 189q4 4 -11 18.5t-36.5 28.5 t-42 22.5t-26.5 0.5q-39 -49 -55.5 -110.5t-40.5 -119.5zM1290 102v23h84v-23h-31v-77h-22v77h-31zM1384 25v100h31l19 -78l18 78h29v-100h-19v77l-20 -77h-19l-20 77v-77h-19z" />
<glyph unicode="&#xe6;" d="M68 731q0 150 56 282t154.5 230t230.5 155.5t282 57.5t281.5 -57.5t230 -155.5t156 -230t57.5 -282t-57.5 -282t-156 -230t-230 -155.5t-281.5 -57.5t-282 57.5t-230.5 155.5t-154.5 230.5t-56 281.5zM164 731q0 -129 49 -242.5t135 -199.5t200 -135.5t243 -49.5 q131 0 244.5 49.5t197.5 135.5t133 199.5t49 242.5t-49 242.5t-133 198.5t-197.5 134.5t-244.5 49.5q-129 0 -243 -49.5t-200 -134.5t-135 -198.5t-49 -242.5zM207 731q0 119 46 224.5t126 184.5t185.5 124t226.5 45q119 0 225 -45t185 -124t125 -184.5t46 -224.5 q0 -121 -46 -227.5t-125 -185t-185 -125t-225 -46.5q-121 0 -226.5 46.5t-185.5 125t-126 185t-46 227.5zM330 664l112 -177q346 -80 699 0l110 177h-921zM451 1063l151 -189q4 -4 15.5 -0.5t23.5 9.5t20.5 12t8.5 8q-29 57 -47.5 118.5t-53.5 111.5q-6 8 -26.5 -0.5 t-42 -22.5t-38 -28.5t-11.5 -18.5zM463 457q20 -35 51 -74t73 -70.5t92.5 -53t111.5 -21.5q59 0 110 21.5t92 53t73 70.5t52 74q-164 -43 -326.5 -42t-328.5 42zM715 731h155l-77 187zM918 903q-4 -2 4 -8t19 -12t23.5 -9.5t18.5 0.5l147 189q4 4 -11 18.5t-36.5 28.5 t-42 22.5t-26.5 0.5q-39 -49 -55.5 -110.5t-40.5 -119.5zM1290 102v23h84v-23h-31v-77h-22v77h-31zM1384 25v100h31l19 -78l18 78h29v-100h-19v77l-20 -77h-19l-20 77v-77h-19z" />
<glyph unicode="&#xe7;" d="M68 731q0 150 56 282t154.5 230t230.5 155.5t282 57.5t281.5 -57.5t230 -155.5t156 -230t57.5 -282t-57.5 -282t-156 -230t-230 -155.5t-281.5 -57.5t-282 57.5t-230.5 155.5t-154.5 230.5t-56 281.5zM164 731q0 -129 49 -242.5t135 -199.5t200 -135.5t243 -49.5 q131 0 244.5 49.5t197.5 135.5t133 199.5t49 242.5t-49 242.5t-133 198.5t-197.5 134.5t-244.5 49.5q-129 0 -243 -49.5t-200 -134.5t-135 -198.5t-49 -242.5zM207 731q0 119 46 224.5t126 184.5t185.5 124t226.5 45q119 0 225 -45t185 -124t125 -184.5t46 -224.5 q0 -121 -46 -227.5t-125 -185t-185 -125t-225 -46.5q-121 0 -226.5 46.5t-185.5 125t-126 185t-46 227.5zM330 664l112 -177q346 -80 699 0l110 177h-921zM451 1063l151 -189q4 -4 15.5 -0.5t23.5 9.5t20.5 12t8.5 8q-29 57 -47.5 118.5t-53.5 111.5q-6 8 -26.5 -0.5 t-42 -22.5t-38 -28.5t-11.5 -18.5zM463 457q20 -35 51 -74t73 -70.5t92.5 -53t111.5 -21.5q59 0 110 21.5t92 53t73 70.5t52 74q-164 -43 -326.5 -42t-328.5 42zM715 731h155l-77 187zM918 903q-4 -2 4 -8t19 -12t23.5 -9.5t18.5 0.5l147 189q4 4 -11 18.5t-36.5 28.5 t-42 22.5t-26.5 0.5q-39 -49 -55.5 -110.5t-40.5 -119.5zM1290 102v23h84v-23h-31v-77h-22v77h-31zM1384 25v100h31l19 -78l18 78h29v-100h-19v77l-20 -77h-19l-20 77v-77h-19z" />
<glyph unicode="&#xe8;" d="M68 731q0 150 56 282t154.5 230t230.5 155.5t282 57.5t281.5 -57.5t230 -155.5t156 -230t57.5 -282t-57.5 -282t-156 -230t-230 -155.5t-281.5 -57.5t-282 57.5t-230.5 155.5t-154.5 230.5t-56 281.5zM164 731q0 -129 49 -242.5t135 -199.5t200 -135.5t243 -49.5 q131 0 244.5 49.5t197.5 135.5t133 199.5t49 242.5t-49 242.5t-133 198.5t-197.5 134.5t-244.5 49.5q-129 0 -243 -49.5t-200 -134.5t-135 -198.5t-49 -242.5zM207 731q0 119 46 224.5t126 184.5t185.5 124t226.5 45q119 0 225 -45t185 -124t125 -184.5t46 -224.5 q0 -121 -46 -227.5t-125 -185t-185 -125t-225 -46.5q-121 0 -226.5 46.5t-185.5 125t-126 185t-46 227.5zM330 664l112 -177q346 -80 699 0l110 177h-921zM451 1063l151 -189q4 -4 15.5 -0.5t23.5 9.5t20.5 12t8.5 8q-29 57 -47.5 118.5t-53.5 111.5q-6 8 -26.5 -0.5 t-42 -22.5t-38 -28.5t-11.5 -18.5zM463 457q20 -35 51 -74t73 -70.5t92.5 -53t111.5 -21.5q59 0 110 21.5t92 53t73 70.5t52 74q-164 -43 -326.5 -42t-328.5 42zM715 731h155l-77 187zM918 903q-4 -2 4 -8t19 -12t23.5 -9.5t18.5 0.5l147 189q4 4 -11 18.5t-36.5 28.5 t-42 22.5t-26.5 0.5q-39 -49 -55.5 -110.5t-40.5 -119.5zM1290 102v23h84v-23h-31v-77h-22v77h-31zM1384 25v100h31l19 -78l18 78h29v-100h-19v77l-20 -77h-19l-20 77v-77h-19z" />
<glyph unicode="&#xe9;" d="M68 731q0 150 56 282t154.5 230t230.5 155.5t282 57.5t281.5 -57.5t230 -155.5t156 -230t57.5 -282t-57.5 -282t-156 -230t-230 -155.5t-281.5 -57.5t-282 57.5t-230.5 155.5t-154.5 230.5t-56 281.5zM164 731q0 -129 49 -242.5t135 -199.5t200 -135.5t243 -49.5 q131 0 244.5 49.5t197.5 135.5t133 199.5t49 242.5t-49 242.5t-133 198.5t-197.5 134.5t-244.5 49.5q-129 0 -243 -49.5t-200 -134.5t-135 -198.5t-49 -242.5zM207 731q0 119 46 224.5t126 184.5t185.5 124t226.5 45q119 0 225 -45t185 -124t125 -184.5t46 -224.5 q0 -121 -46 -227.5t-125 -185t-185 -125t-225 -46.5q-121 0 -226.5 46.5t-185.5 125t-126 185t-46 227.5zM330 664l112 -177q346 -80 699 0l110 177h-921zM451 1063l151 -189q4 -4 15.5 -0.5t23.5 9.5t20.5 12t8.5 8q-29 57 -47.5 118.5t-53.5 111.5q-6 8 -26.5 -0.5 t-42 -22.5t-38 -28.5t-11.5 -18.5zM463 457q20 -35 51 -74t73 -70.5t92.5 -53t111.5 -21.5q59 0 110 21.5t92 53t73 70.5t52 74q-164 -43 -326.5 -42t-328.5 42zM715 731h155l-77 187zM918 903q-4 -2 4 -8t19 -12t23.5 -9.5t18.5 0.5l147 189q4 4 -11 18.5t-36.5 28.5 t-42 22.5t-26.5 0.5q-39 -49 -55.5 -110.5t-40.5 -119.5zM1290 102v23h84v-23h-31v-77h-22v77h-31zM1384 25v100h31l19 -78l18 78h29v-100h-19v77l-20 -77h-19l-20 77v-77h-19z" />
<glyph unicode="&#xea;" d="M68 731q0 150 56 282t154.5 230t230.5 155.5t282 57.5t281.5 -57.5t230 -155.5t156 -230t57.5 -282t-57.5 -282t-156 -230t-230 -155.5t-281.5 -57.5t-282 57.5t-230.5 155.5t-154.5 230.5t-56 281.5zM164 731q0 -129 49 -242.5t135 -199.5t200 -135.5t243 -49.5 q131 0 244.5 49.5t197.5 135.5t133 199.5t49 242.5t-49 242.5t-133 198.5t-197.5 134.5t-244.5 49.5q-129 0 -243 -49.5t-200 -134.5t-135 -198.5t-49 -242.5zM207 731q0 119 46 224.5t126 184.5t185.5 124t226.5 45q119 0 225 -45t185 -124t125 -184.5t46 -224.5 q0 -121 -46 -227.5t-125 -185t-185 -125t-225 -46.5q-121 0 -226.5 46.5t-185.5 125t-126 185t-46 227.5zM330 664l112 -177q346 -80 699 0l110 177h-921zM451 1063l151 -189q4 -4 15.5 -0.5t23.5 9.5t20.5 12t8.5 8q-29 57 -47.5 118.5t-53.5 111.5q-6 8 -26.5 -0.5 t-42 -22.5t-38 -28.5t-11.5 -18.5zM463 457q20 -35 51 -74t73 -70.5t92.5 -53t111.5 -21.5q59 0 110 21.5t92 53t73 70.5t52 74q-164 -43 -326.5 -42t-328.5 42zM715 731h155l-77 187zM918 903q-4 -2 4 -8t19 -12t23.5 -9.5t18.5 0.5l147 189q4 4 -11 18.5t-36.5 28.5 t-42 22.5t-26.5 0.5q-39 -49 -55.5 -110.5t-40.5 -119.5zM1290 102v23h84v-23h-31v-77h-22v77h-31zM1384 25v100h31l19 -78l18 78h29v-100h-19v77l-20 -77h-19l-20 77v-77h-19z" />
<glyph unicode="&#xeb;" d="M68 731q0 150 56 282t154.5 230t230.5 155.5t282 57.5t281.5 -57.5t230 -155.5t156 -230t57.5 -282t-57.5 -282t-156 -230t-230 -155.5t-281.5 -57.5t-282 57.5t-230.5 155.5t-154.5 230.5t-56 281.5zM164 731q0 -129 49 -242.5t135 -199.5t200 -135.5t243 -49.5 q131 0 244.5 49.5t197.5 135.5t133 199.5t49 242.5t-49 242.5t-133 198.5t-197.5 134.5t-244.5 49.5q-129 0 -243 -49.5t-200 -134.5t-135 -198.5t-49 -242.5zM207 731q0 119 46 224.5t126 184.5t185.5 124t226.5 45q119 0 225 -45t185 -124t125 -184.5t46 -224.5 q0 -121 -46 -227.5t-125 -185t-185 -125t-225 -46.5q-121 0 -226.5 46.5t-185.5 125t-126 185t-46 227.5zM330 664l112 -177q346 -80 699 0l110 177h-921zM451 1063l151 -189q4 -4 15.5 -0.5t23.5 9.5t20.5 12t8.5 8q-29 57 -47.5 118.5t-53.5 111.5q-6 8 -26.5 -0.5 t-42 -22.5t-38 -28.5t-11.5 -18.5zM463 457q20 -35 51 -74t73 -70.5t92.5 -53t111.5 -21.5q59 0 110 21.5t92 53t73 70.5t52 74q-164 -43 -326.5 -42t-328.5 42zM715 731h155l-77 187zM918 903q-4 -2 4 -8t19 -12t23.5 -9.5t18.5 0.5l147 189q4 4 -11 18.5t-36.5 28.5 t-42 22.5t-26.5 0.5q-39 -49 -55.5 -110.5t-40.5 -119.5zM1290 102v23h84v-23h-31v-77h-22v77h-31zM1384 25v100h31l19 -78l18 78h29v-100h-19v77l-20 -77h-19l-20 77v-77h-19z" />
<glyph unicode="&#xec;" d="M68 731q0 150 56 282t154.5 230t230.5 155.5t282 57.5t281.5 -57.5t230 -155.5t156 -230t57.5 -282t-57.5 -282t-156 -230t-230 -155.5t-281.5 -57.5t-282 57.5t-230.5 155.5t-154.5 230.5t-56 281.5zM164 731q0 -129 49 -242.5t135 -199.5t200 -135.5t243 -49.5 q131 0 244.5 49.5t197.5 135.5t133 199.5t49 242.5t-49 242.5t-133 198.5t-197.5 134.5t-244.5 49.5q-129 0 -243 -49.5t-200 -134.5t-135 -198.5t-49 -242.5zM207 731q0 119 46 224.5t126 184.5t185.5 124t226.5 45q119 0 225 -45t185 -124t125 -184.5t46 -224.5 q0 -121 -46 -227.5t-125 -185t-185 -125t-225 -46.5q-121 0 -226.5 46.5t-185.5 125t-126 185t-46 227.5zM330 664l112 -177q346 -80 699 0l110 177h-921zM451 1063l151 -189q4 -4 15.5 -0.5t23.5 9.5t20.5 12t8.5 8q-29 57 -47.5 118.5t-53.5 111.5q-6 8 -26.5 -0.5 t-42 -22.5t-38 -28.5t-11.5 -18.5zM463 457q20 -35 51 -74t73 -70.5t92.5 -53t111.5 -21.5q59 0 110 21.5t92 53t73 70.5t52 74q-164 -43 -326.5 -42t-328.5 42zM715 731h155l-77 187zM918 903q-4 -2 4 -8t19 -12t23.5 -9.5t18.5 0.5l147 189q4 4 -11 18.5t-36.5 28.5 t-42 22.5t-26.5 0.5q-39 -49 -55.5 -110.5t-40.5 -119.5zM1290 102v23h84v-23h-31v-77h-22v77h-31zM1384 25v100h31l19 -78l18 78h29v-100h-19v77l-20 -77h-19l-20 77v-77h-19z" />
<glyph unicode="&#xed;" d="M68 731q0 150 56 282t154.5 230t230.5 155.5t282 57.5t281.5 -57.5t230 -155.5t156 -230t57.5 -282t-57.5 -282t-156 -230t-230 -155.5t-281.5 -57.5t-282 57.5t-230.5 155.5t-154.5 230.5t-56 281.5zM164 731q0 -129 49 -242.5t135 -199.5t200 -135.5t243 -49.5 q131 0 244.5 49.5t197.5 135.5t133 199.5t49 242.5t-49 242.5t-133 198.5t-197.5 134.5t-244.5 49.5q-129 0 -243 -49.5t-200 -134.5t-135 -198.5t-49 -242.5zM207 731q0 119 46 224.5t126 184.5t185.5 124t226.5 45q119 0 225 -45t185 -124t125 -184.5t46 -224.5 q0 -121 -46 -227.5t-125 -185t-185 -125t-225 -46.5q-121 0 -226.5 46.5t-185.5 125t-126 185t-46 227.5zM330 664l112 -177q346 -80 699 0l110 177h-921zM451 1063l151 -189q4 -4 15.5 -0.5t23.5 9.5t20.5 12t8.5 8q-29 57 -47.5 118.5t-53.5 111.5q-6 8 -26.5 -0.5 t-42 -22.5t-38 -28.5t-11.5 -18.5zM463 457q20 -35 51 -74t73 -70.5t92.5 -53t111.5 -21.5q59 0 110 21.5t92 53t73 70.5t52 74q-164 -43 -326.5 -42t-328.5 42zM715 731h155l-77 187zM918 903q-4 -2 4 -8t19 -12t23.5 -9.5t18.5 0.5l147 189q4 4 -11 18.5t-36.5 28.5 t-42 22.5t-26.5 0.5q-39 -49 -55.5 -110.5t-40.5 -119.5zM1290 102v23h84v-23h-31v-77h-22v77h-31zM1384 25v100h31l19 -78l18 78h29v-100h-19v77l-20 -77h-19l-20 77v-77h-19z" />
<glyph unicode="&#xee;" d="M68 731q0 150 56 282t154.5 230t230.5 155.5t282 57.5t281.5 -57.5t230 -155.5t156 -230t57.5 -282t-57.5 -282t-156 -230t-230 -155.5t-281.5 -57.5t-282 57.5t-230.5 155.5t-154.5 230.5t-56 281.5zM164 731q0 -129 49 -242.5t135 -199.5t200 -135.5t243 -49.5 q131 0 244.5 49.5t197.5 135.5t133 199.5t49 242.5t-49 242.5t-133 198.5t-197.5 134.5t-244.5 49.5q-129 0 -243 -49.5t-200 -134.5t-135 -198.5t-49 -242.5zM207 731q0 119 46 224.5t126 184.5t185.5 124t226.5 45q119 0 225 -45t185 -124t125 -184.5t46 -224.5 q0 -121 -46 -227.5t-125 -185t-185 -125t-225 -46.5q-121 0 -226.5 46.5t-185.5 125t-126 185t-46 227.5zM330 664l112 -177q346 -80 699 0l110 177h-921zM451 1063l151 -189q4 -4 15.5 -0.5t23.5 9.5t20.5 12t8.5 8q-29 57 -47.5 118.5t-53.5 111.5q-6 8 -26.5 -0.5 t-42 -22.5t-38 -28.5t-11.5 -18.5zM463 457q20 -35 51 -74t73 -70.5t92.5 -53t111.5 -21.5q59 0 110 21.5t92 53t73 70.5t52 74q-164 -43 -326.5 -42t-328.5 42zM715 731h155l-77 187zM918 903q-4 -2 4 -8t19 -12t23.5 -9.5t18.5 0.5l147 189q4 4 -11 18.5t-36.5 28.5 t-42 22.5t-26.5 0.5q-39 -49 -55.5 -110.5t-40.5 -119.5zM1290 102v23h84v-23h-31v-77h-22v77h-31zM1384 25v100h31l19 -78l18 78h29v-100h-19v77l-20 -77h-19l-20 77v-77h-19z" />
<glyph unicode="&#xef;" d="M68 731q0 150 56 282t154.5 230t230.5 155.5t282 57.5t281.5 -57.5t230 -155.5t156 -230t57.5 -282t-57.5 -282t-156 -230t-230 -155.5t-281.5 -57.5t-282 57.5t-230.5 155.5t-154.5 230.5t-56 281.5zM164 731q0 -129 49 -242.5t135 -199.5t200 -135.5t243 -49.5 q131 0 244.5 49.5t197.5 135.5t133 199.5t49 242.5t-49 242.5t-133 198.5t-197.5 134.5t-244.5 49.5q-129 0 -243 -49.5t-200 -134.5t-135 -198.5t-49 -242.5zM207 731q0 119 46 224.5t126 184.5t185.5 124t226.5 45q119 0 225 -45t185 -124t125 -184.5t46 -224.5 q0 -121 -46 -227.5t-125 -185t-185 -125t-225 -46.5q-121 0 -226.5 46.5t-185.5 125t-126 185t-46 227.5zM330 664l112 -177q346 -80 699 0l110 177h-921zM451 1063l151 -189q4 -4 15.5 -0.5t23.5 9.5t20.5 12t8.5 8q-29 57 -47.5 118.5t-53.5 111.5q-6 8 -26.5 -0.5 t-42 -22.5t-38 -28.5t-11.5 -18.5zM463 457q20 -35 51 -74t73 -70.5t92.5 -53t111.5 -21.5q59 0 110 21.5t92 53t73 70.5t52 74q-164 -43 -326.5 -42t-328.5 42zM715 731h155l-77 187zM918 903q-4 -2 4 -8t19 -12t23.5 -9.5t18.5 0.5l147 189q4 4 -11 18.5t-36.5 28.5 t-42 22.5t-26.5 0.5q-39 -49 -55.5 -110.5t-40.5 -119.5zM1290 102v23h84v-23h-31v-77h-22v77h-31zM1384 25v100h31l19 -78l18 78h29v-100h-19v77l-20 -77h-19l-20 77v-77h-19z" />
<glyph unicode="&#xf0;" d="M68 731q0 150 56 282t154.5 230t230.5 155.5t282 57.5t281.5 -57.5t230 -155.5t156 -230t57.5 -282t-57.5 -282t-156 -230t-230 -155.5t-281.5 -57.5t-282 57.5t-230.5 155.5t-154.5 230.5t-56 281.5zM164 731q0 -129 49 -242.5t135 -199.5t200 -135.5t243 -49.5 q131 0 244.5 49.5t197.5 135.5t133 199.5t49 242.5t-49 242.5t-133 198.5t-197.5 134.5t-244.5 49.5q-129 0 -243 -49.5t-200 -134.5t-135 -198.5t-49 -242.5zM207 731q0 119 46 224.5t126 184.5t185.5 124t226.5 45q119 0 225 -45t185 -124t125 -184.5t46 -224.5 q0 -121 -46 -227.5t-125 -185t-185 -125t-225 -46.5q-121 0 -226.5 46.5t-185.5 125t-126 185t-46 227.5zM330 664l112 -177q346 -80 699 0l110 177h-921zM451 1063l151 -189q4 -4 15.5 -0.5t23.5 9.5t20.5 12t8.5 8q-29 57 -47.5 118.5t-53.5 111.5q-6 8 -26.5 -0.5 t-42 -22.5t-38 -28.5t-11.5 -18.5zM463 457q20 -35 51 -74t73 -70.5t92.5 -53t111.5 -21.5q59 0 110 21.5t92 53t73 70.5t52 74q-164 -43 -326.5 -42t-328.5 42zM715 731h155l-77 187zM918 903q-4 -2 4 -8t19 -12t23.5 -9.5t18.5 0.5l147 189q4 4 -11 18.5t-36.5 28.5 t-42 22.5t-26.5 0.5q-39 -49 -55.5 -110.5t-40.5 -119.5zM1290 102v23h84v-23h-31v-77h-22v77h-31zM1384 25v100h31l19 -78l18 78h29v-100h-19v77l-20 -77h-19l-20 77v-77h-19z" />
<glyph unicode="&#xf1;" d="M68 731q0 150 56 282t154.5 230t230.5 155.5t282 57.5t281.5 -57.5t230 -155.5t156 -230t57.5 -282t-57.5 -282t-156 -230t-230 -155.5t-281.5 -57.5t-282 57.5t-230.5 155.5t-154.5 230.5t-56 281.5zM164 731q0 -129 49 -242.5t135 -199.5t200 -135.5t243 -49.5 q131 0 244.5 49.5t197.5 135.5t133 199.5t49 242.5t-49 242.5t-133 198.5t-197.5 134.5t-244.5 49.5q-129 0 -243 -49.5t-200 -134.5t-135 -198.5t-49 -242.5zM207 731q0 119 46 224.5t126 184.5t185.5 124t226.5 45q119 0 225 -45t185 -124t125 -184.5t46 -224.5 q0 -121 -46 -227.5t-125 -185t-185 -125t-225 -46.5q-121 0 -226.5 46.5t-185.5 125t-126 185t-46 227.5zM330 664l112 -177q346 -80 699 0l110 177h-921zM451 1063l151 -189q4 -4 15.5 -0.5t23.5 9.5t20.5 12t8.5 8q-29 57 -47.5 118.5t-53.5 111.5q-6 8 -26.5 -0.5 t-42 -22.5t-38 -28.5t-11.5 -18.5zM463 457q20 -35 51 -74t73 -70.5t92.5 -53t111.5 -21.5q59 0 110 21.5t92 53t73 70.5t52 74q-164 -43 -326.5 -42t-328.5 42zM715 731h155l-77 187zM918 903q-4 -2 4 -8t19 -12t23.5 -9.5t18.5 0.5l147 189q4 4 -11 18.5t-36.5 28.5 t-42 22.5t-26.5 0.5q-39 -49 -55.5 -110.5t-40.5 -119.5zM1290 102v23h84v-23h-31v-77h-22v77h-31zM1384 25v100h31l19 -78l18 78h29v-100h-19v77l-20 -77h-19l-20 77v-77h-19z" />
<glyph unicode="&#xf2;" d="M68 731q0 150 56 282t154.5 230t230.5 155.5t282 57.5t281.5 -57.5t230 -155.5t156 -230t57.5 -282t-57.5 -282t-156 -230t-230 -155.5t-281.5 -57.5t-282 57.5t-230.5 155.5t-154.5 230.5t-56 281.5zM164 731q0 -129 49 -242.5t135 -199.5t200 -135.5t243 -49.5 q131 0 244.5 49.5t197.5 135.5t133 199.5t49 242.5t-49 242.5t-133 198.5t-197.5 134.5t-244.5 49.5q-129 0 -243 -49.5t-200 -134.5t-135 -198.5t-49 -242.5zM207 731q0 119 46 224.5t126 184.5t185.5 124t226.5 45q119 0 225 -45t185 -124t125 -184.5t46 -224.5 q0 -121 -46 -227.5t-125 -185t-185 -125t-225 -46.5q-121 0 -226.5 46.5t-185.5 125t-126 185t-46 227.5zM330 664l112 -177q346 -80 699 0l110 177h-921zM451 1063l151 -189q4 -4 15.5 -0.5t23.5 9.5t20.5 12t8.5 8q-29 57 -47.5 118.5t-53.5 111.5q-6 8 -26.5 -0.5 t-42 -22.5t-38 -28.5t-11.5 -18.5zM463 457q20 -35 51 -74t73 -70.5t92.5 -53t111.5 -21.5q59 0 110 21.5t92 53t73 70.5t52 74q-164 -43 -326.5 -42t-328.5 42zM715 731h155l-77 187zM918 903q-4 -2 4 -8t19 -12t23.5 -9.5t18.5 0.5l147 189q4 4 -11 18.5t-36.5 28.5 t-42 22.5t-26.5 0.5q-39 -49 -55.5 -110.5t-40.5 -119.5zM1290 102v23h84v-23h-31v-77h-22v77h-31zM1384 25v100h31l19 -78l18 78h29v-100h-19v77l-20 -77h-19l-20 77v-77h-19z" />
<glyph unicode="&#xf3;" d="M68 731q0 150 56 282t154.5 230t230.5 155.5t282 57.5t281.5 -57.5t230 -155.5t156 -230t57.5 -282t-57.5 -282t-156 -230t-230 -155.5t-281.5 -57.5t-282 57.5t-230.5 155.5t-154.5 230.5t-56 281.5zM164 731q0 -129 49 -242.5t135 -199.5t200 -135.5t243 -49.5 q131 0 244.5 49.5t197.5 135.5t133 199.5t49 242.5t-49 242.5t-133 198.5t-197.5 134.5t-244.5 49.5q-129 0 -243 -49.5t-200 -134.5t-135 -198.5t-49 -242.5zM207 731q0 119 46 224.5t126 184.5t185.5 124t226.5 45q119 0 225 -45t185 -124t125 -184.5t46 -224.5 q0 -121 -46 -227.5t-125 -185t-185 -125t-225 -46.5q-121 0 -226.5 46.5t-185.5 125t-126 185t-46 227.5zM330 664l112 -177q346 -80 699 0l110 177h-921zM451 1063l151 -189q4 -4 15.5 -0.5t23.5 9.5t20.5 12t8.5 8q-29 57 -47.5 118.5t-53.5 111.5q-6 8 -26.5 -0.5 t-42 -22.5t-38 -28.5t-11.5 -18.5zM463 457q20 -35 51 -74t73 -70.5t92.5 -53t111.5 -21.5q59 0 110 21.5t92 53t73 70.5t52 74q-164 -43 -326.5 -42t-328.5 42zM715 731h155l-77 187zM918 903q-4 -2 4 -8t19 -12t23.5 -9.5t18.5 0.5l147 189q4 4 -11 18.5t-36.5 28.5 t-42 22.5t-26.5 0.5q-39 -49 -55.5 -110.5t-40.5 -119.5zM1290 102v23h84v-23h-31v-77h-22v77h-31zM1384 25v100h31l19 -78l18 78h29v-100h-19v77l-20 -77h-19l-20 77v-77h-19z" />
<glyph unicode="&#xf4;" d="M68 731q0 150 56 282t154.5 230t230.5 155.5t282 57.5t281.5 -57.5t230 -155.5t156 -230t57.5 -282t-57.5 -282t-156 -230t-230 -155.5t-281.5 -57.5t-282 57.5t-230.5 155.5t-154.5 230.5t-56 281.5zM164 731q0 -129 49 -242.5t135 -199.5t200 -135.5t243 -49.5 q131 0 244.5 49.5t197.5 135.5t133 199.5t49 242.5t-49 242.5t-133 198.5t-197.5 134.5t-244.5 49.5q-129 0 -243 -49.5t-200 -134.5t-135 -198.5t-49 -242.5zM207 731q0 119 46 224.5t126 184.5t185.5 124t226.5 45q119 0 225 -45t185 -124t125 -184.5t46 -224.5 q0 -121 -46 -227.5t-125 -185t-185 -125t-225 -46.5q-121 0 -226.5 46.5t-185.5 125t-126 185t-46 227.5zM330 664l112 -177q346 -80 699 0l110 177h-921zM451 1063l151 -189q4 -4 15.5 -0.5t23.5 9.5t20.5 12t8.5 8q-29 57 -47.5 118.5t-53.5 111.5q-6 8 -26.5 -0.5 t-42 -22.5t-38 -28.5t-11.5 -18.5zM463 457q20 -35 51 -74t73 -70.5t92.5 -53t111.5 -21.5q59 0 110 21.5t92 53t73 70.5t52 74q-164 -43 -326.5 -42t-328.5 42zM715 731h155l-77 187zM918 903q-4 -2 4 -8t19 -12t23.5 -9.5t18.5 0.5l147 189q4 4 -11 18.5t-36.5 28.5 t-42 22.5t-26.5 0.5q-39 -49 -55.5 -110.5t-40.5 -119.5zM1290 102v23h84v-23h-31v-77h-22v77h-31zM1384 25v100h31l19 -78l18 78h29v-100h-19v77l-20 -77h-19l-20 77v-77h-19z" />
<glyph unicode="&#xf5;" d="M68 731q0 150 56 282t154.5 230t230.5 155.5t282 57.5t281.5 -57.5t230 -155.5t156 -230t57.5 -282t-57.5 -282t-156 -230t-230 -155.5t-281.5 -57.5t-282 57.5t-230.5 155.5t-154.5 230.5t-56 281.5zM164 731q0 -129 49 -242.5t135 -199.5t200 -135.5t243 -49.5 q131 0 244.5 49.5t197.5 135.5t133 199.5t49 242.5t-49 242.5t-133 198.5t-197.5 134.5t-244.5 49.5q-129 0 -243 -49.5t-200 -134.5t-135 -198.5t-49 -242.5zM207 731q0 119 46 224.5t126 184.5t185.5 124t226.5 45q119 0 225 -45t185 -124t125 -184.5t46 -224.5 q0 -121 -46 -227.5t-125 -185t-185 -125t-225 -46.5q-121 0 -226.5 46.5t-185.5 125t-126 185t-46 227.5zM330 664l112 -177q346 -80 699 0l110 177h-921zM451 1063l151 -189q4 -4 15.5 -0.5t23.5 9.5t20.5 12t8.5 8q-29 57 -47.5 118.5t-53.5 111.5q-6 8 -26.5 -0.5 t-42 -22.5t-38 -28.5t-11.5 -18.5zM463 457q20 -35 51 -74t73 -70.5t92.5 -53t111.5 -21.5q59 0 110 21.5t92 53t73 70.5t52 74q-164 -43 -326.5 -42t-328.5 42zM715 731h155l-77 187zM918 903q-4 -2 4 -8t19 -12t23.5 -9.5t18.5 0.5l147 189q4 4 -11 18.5t-36.5 28.5 t-42 22.5t-26.5 0.5q-39 -49 -55.5 -110.5t-40.5 -119.5zM1290 102v23h84v-23h-31v-77h-22v77h-31zM1384 25v100h31l19 -78l18 78h29v-100h-19v77l-20 -77h-19l-20 77v-77h-19z" />
<glyph unicode="&#xf6;" d="M68 731q0 150 56 282t154.5 230t230.5 155.5t282 57.5t281.5 -57.5t230 -155.5t156 -230t57.5 -282t-57.5 -282t-156 -230t-230 -155.5t-281.5 -57.5t-282 57.5t-230.5 155.5t-154.5 230.5t-56 281.5zM164 731q0 -129 49 -242.5t135 -199.5t200 -135.5t243 -49.5 q131 0 244.5 49.5t197.5 135.5t133 199.5t49 242.5t-49 242.5t-133 198.5t-197.5 134.5t-244.5 49.5q-129 0 -243 -49.5t-200 -134.5t-135 -198.5t-49 -242.5zM207 731q0 119 46 224.5t126 184.5t185.5 124t226.5 45q119 0 225 -45t185 -124t125 -184.5t46 -224.5 q0 -121 -46 -227.5t-125 -185t-185 -125t-225 -46.5q-121 0 -226.5 46.5t-185.5 125t-126 185t-46 227.5zM330 664l112 -177q346 -80 699 0l110 177h-921zM451 1063l151 -189q4 -4 15.5 -0.5t23.5 9.5t20.5 12t8.5 8q-29 57 -47.5 118.5t-53.5 111.5q-6 8 -26.5 -0.5 t-42 -22.5t-38 -28.5t-11.5 -18.5zM463 457q20 -35 51 -74t73 -70.5t92.5 -53t111.5 -21.5q59 0 110 21.5t92 53t73 70.5t52 74q-164 -43 -326.5 -42t-328.5 42zM715 731h155l-77 187zM918 903q-4 -2 4 -8t19 -12t23.5 -9.5t18.5 0.5l147 189q4 4 -11 18.5t-36.5 28.5 t-42 22.5t-26.5 0.5q-39 -49 -55.5 -110.5t-40.5 -119.5zM1290 102v23h84v-23h-31v-77h-22v77h-31zM1384 25v100h31l19 -78l18 78h29v-100h-19v77l-20 -77h-19l-20 77v-77h-19z" />
<glyph unicode="&#xf7;" d="M68 731q0 150 56 282t154.5 230t230.5 155.5t282 57.5t281.5 -57.5t230 -155.5t156 -230t57.5 -282t-57.5 -282t-156 -230t-230 -155.5t-281.5 -57.5t-282 57.5t-230.5 155.5t-154.5 230.5t-56 281.5zM164 731q0 -129 49 -242.5t135 -199.5t200 -135.5t243 -49.5 q131 0 244.5 49.5t197.5 135.5t133 199.5t49 242.5t-49 242.5t-133 198.5t-197.5 134.5t-244.5 49.5q-129 0 -243 -49.5t-200 -134.5t-135 -198.5t-49 -242.5zM207 731q0 119 46 224.5t126 184.5t185.5 124t226.5 45q119 0 225 -45t185 -124t125 -184.5t46 -224.5 q0 -121 -46 -227.5t-125 -185t-185 -125t-225 -46.5q-121 0 -226.5 46.5t-185.5 125t-126 185t-46 227.5zM330 664l112 -177q346 -80 699 0l110 177h-921zM451 1063l151 -189q4 -4 15.5 -0.5t23.5 9.5t20.5 12t8.5 8q-29 57 -47.5 118.5t-53.5 111.5q-6 8 -26.5 -0.5 t-42 -22.5t-38 -28.5t-11.5 -18.5zM463 457q20 -35 51 -74t73 -70.5t92.5 -53t111.5 -21.5q59 0 110 21.5t92 53t73 70.5t52 74q-164 -43 -326.5 -42t-328.5 42zM715 731h155l-77 187zM918 903q-4 -2 4 -8t19 -12t23.5 -9.5t18.5 0.5l147 189q4 4 -11 18.5t-36.5 28.5 t-42 22.5t-26.5 0.5q-39 -49 -55.5 -110.5t-40.5 -119.5zM1290 102v23h84v-23h-31v-77h-22v77h-31zM1384 25v100h31l19 -78l18 78h29v-100h-19v77l-20 -77h-19l-20 77v-77h-19z" />
<glyph unicode="&#xf8;" d="M68 731q0 150 56 282t154.5 230t230.5 155.5t282 57.5t281.5 -57.5t230 -155.5t156 -230t57.5 -282t-57.5 -282t-156 -230t-230 -155.5t-281.5 -57.5t-282 57.5t-230.5 155.5t-154.5 230.5t-56 281.5zM164 731q0 -129 49 -242.5t135 -199.5t200 -135.5t243 -49.5 q131 0 244.5 49.5t197.5 135.5t133 199.5t49 242.5t-49 242.5t-133 198.5t-197.5 134.5t-244.5 49.5q-129 0 -243 -49.5t-200 -134.5t-135 -198.5t-49 -242.5zM207 731q0 119 46 224.5t126 184.5t185.5 124t226.5 45q119 0 225 -45t185 -124t125 -184.5t46 -224.5 q0 -121 -46 -227.5t-125 -185t-185 -125t-225 -46.5q-121 0 -226.5 46.5t-185.5 125t-126 185t-46 227.5zM330 664l112 -177q346 -80 699 0l110 177h-921zM451 1063l151 -189q4 -4 15.5 -0.5t23.5 9.5t20.5 12t8.5 8q-29 57 -47.5 118.5t-53.5 111.5q-6 8 -26.5 -0.5 t-42 -22.5t-38 -28.5t-11.5 -18.5zM463 457q20 -35 51 -74t73 -70.5t92.5 -53t111.5 -21.5q59 0 110 21.5t92 53t73 70.5t52 74q-164 -43 -326.5 -42t-328.5 42zM715 731h155l-77 187zM918 903q-4 -2 4 -8t19 -12t23.5 -9.5t18.5 0.5l147 189q4 4 -11 18.5t-36.5 28.5 t-42 22.5t-26.5 0.5q-39 -49 -55.5 -110.5t-40.5 -119.5zM1290 102v23h84v-23h-31v-77h-22v77h-31zM1384 25v100h31l19 -78l18 78h29v-100h-19v77l-20 -77h-19l-20 77v-77h-19z" />
<glyph unicode="&#xf9;" d="M68 731q0 150 56 282t154.5 230t230.5 155.5t282 57.5t281.5 -57.5t230 -155.5t156 -230t57.5 -282t-57.5 -282t-156 -230t-230 -155.5t-281.5 -57.5t-282 57.5t-230.5 155.5t-154.5 230.5t-56 281.5zM164 731q0 -129 49 -242.5t135 -199.5t200 -135.5t243 -49.5 q131 0 244.5 49.5t197.5 135.5t133 199.5t49 242.5t-49 242.5t-133 198.5t-197.5 134.5t-244.5 49.5q-129 0 -243 -49.5t-200 -134.5t-135 -198.5t-49 -242.5zM207 731q0 119 46 224.5t126 184.5t185.5 124t226.5 45q119 0 225 -45t185 -124t125 -184.5t46 -224.5 q0 -121 -46 -227.5t-125 -185t-185 -125t-225 -46.5q-121 0 -226.5 46.5t-185.5 125t-126 185t-46 227.5zM330 664l112 -177q346 -80 699 0l110 177h-921zM451 1063l151 -189q4 -4 15.5 -0.5t23.5 9.5t20.5 12t8.5 8q-29 57 -47.5 118.5t-53.5 111.5q-6 8 -26.5 -0.5 t-42 -22.5t-38 -28.5t-11.5 -18.5zM463 457q20 -35 51 -74t73 -70.5t92.5 -53t111.5 -21.5q59 0 110 21.5t92 53t73 70.5t52 74q-164 -43 -326.5 -42t-328.5 42zM715 731h155l-77 187zM918 903q-4 -2 4 -8t19 -12t23.5 -9.5t18.5 0.5l147 189q4 4 -11 18.5t-36.5 28.5 t-42 22.5t-26.5 0.5q-39 -49 -55.5 -110.5t-40.5 -119.5zM1290 102v23h84v-23h-31v-77h-22v77h-31zM1384 25v100h31l19 -78l18 78h29v-100h-19v77l-20 -77h-19l-20 77v-77h-19z" />
<glyph unicode="&#xfa;" d="M68 731q0 150 56 282t154.5 230t230.5 155.5t282 57.5t281.5 -57.5t230 -155.5t156 -230t57.5 -282t-57.5 -282t-156 -230t-230 -155.5t-281.5 -57.5t-282 57.5t-230.5 155.5t-154.5 230.5t-56 281.5zM164 731q0 -129 49 -242.5t135 -199.5t200 -135.5t243 -49.5 q131 0 244.5 49.5t197.5 135.5t133 199.5t49 242.5t-49 242.5t-133 198.5t-197.5 134.5t-244.5 49.5q-129 0 -243 -49.5t-200 -134.5t-135 -198.5t-49 -242.5zM207 731q0 119 46 224.5t126 184.5t185.5 124t226.5 45q119 0 225 -45t185 -124t125 -184.5t46 -224.5 q0 -121 -46 -227.5t-125 -185t-185 -125t-225 -46.5q-121 0 -226.5 46.5t-185.5 125t-126 185t-46 227.5zM330 664l112 -177q346 -80 699 0l110 177h-921zM451 1063l151 -189q4 -4 15.5 -0.5t23.5 9.5t20.5 12t8.5 8q-29 57 -47.5 118.5t-53.5 111.5q-6 8 -26.5 -0.5 t-42 -22.5t-38 -28.5t-11.5 -18.5zM463 457q20 -35 51 -74t73 -70.5t92.5 -53t111.5 -21.5q59 0 110 21.5t92 53t73 70.5t52 74q-164 -43 -326.5 -42t-328.5 42zM715 731h155l-77 187zM918 903q-4 -2 4 -8t19 -12t23.5 -9.5t18.5 0.5l147 189q4 4 -11 18.5t-36.5 28.5 t-42 22.5t-26.5 0.5q-39 -49 -55.5 -110.5t-40.5 -119.5zM1290 102v23h84v-23h-31v-77h-22v77h-31zM1384 25v100h31l19 -78l18 78h29v-100h-19v77l-20 -77h-19l-20 77v-77h-19z" />
<glyph unicode="&#xfb;" d="M68 731q0 150 56 282t154.5 230t230.5 155.5t282 57.5t281.5 -57.5t230 -155.5t156 -230t57.5 -282t-57.5 -282t-156 -230t-230 -155.5t-281.5 -57.5t-282 57.5t-230.5 155.5t-154.5 230.5t-56 281.5zM164 731q0 -129 49 -242.5t135 -199.5t200 -135.5t243 -49.5 q131 0 244.5 49.5t197.5 135.5t133 199.5t49 242.5t-49 242.5t-133 198.5t-197.5 134.5t-244.5 49.5q-129 0 -243 -49.5t-200 -134.5t-135 -198.5t-49 -242.5zM207 731q0 119 46 224.5t126 184.5t185.5 124t226.5 45q119 0 225 -45t185 -124t125 -184.5t46 -224.5 q0 -121 -46 -227.5t-125 -185t-185 -125t-225 -46.5q-121 0 -226.5 46.5t-185.5 125t-126 185t-46 227.5zM330 664l112 -177q346 -80 699 0l110 177h-921zM451 1063l151 -189q4 -4 15.5 -0.5t23.5 9.5t20.5 12t8.5 8q-29 57 -47.5 118.5t-53.5 111.5q-6 8 -26.5 -0.5 t-42 -22.5t-38 -28.5t-11.5 -18.5zM463 457q20 -35 51 -74t73 -70.5t92.5 -53t111.5 -21.5q59 0 110 21.5t92 53t73 70.5t52 74q-164 -43 -326.5 -42t-328.5 42zM715 731h155l-77 187zM918 903q-4 -2 4 -8t19 -12t23.5 -9.5t18.5 0.5l147 189q4 4 -11 18.5t-36.5 28.5 t-42 22.5t-26.5 0.5q-39 -49 -55.5 -110.5t-40.5 -119.5zM1290 102v23h84v-23h-31v-77h-22v77h-31zM1384 25v100h31l19 -78l18 78h29v-100h-19v77l-20 -77h-19l-20 77v-77h-19z" />
<glyph unicode="&#xfc;" d="M68 731q0 150 56 282t154.5 230t230.5 155.5t282 57.5t281.5 -57.5t230 -155.5t156 -230t57.5 -282t-57.5 -282t-156 -230t-230 -155.5t-281.5 -57.5t-282 57.5t-230.5 155.5t-154.5 230.5t-56 281.5zM164 731q0 -129 49 -242.5t135 -199.5t200 -135.5t243 -49.5 q131 0 244.5 49.5t197.5 135.5t133 199.5t49 242.5t-49 242.5t-133 198.5t-197.5 134.5t-244.5 49.5q-129 0 -243 -49.5t-200 -134.5t-135 -198.5t-49 -242.5zM207 731q0 119 46 224.5t126 184.5t185.5 124t226.5 45q119 0 225 -45t185 -124t125 -184.5t46 -224.5 q0 -121 -46 -227.5t-125 -185t-185 -125t-225 -46.5q-121 0 -226.5 46.5t-185.5 125t-126 185t-46 227.5zM330 664l112 -177q346 -80 699 0l110 177h-921zM451 1063l151 -189q4 -4 15.5 -0.5t23.5 9.5t20.5 12t8.5 8q-29 57 -47.5 118.5t-53.5 111.5q-6 8 -26.5 -0.5 t-42 -22.5t-38 -28.5t-11.5 -18.5zM463 457q20 -35 51 -74t73 -70.5t92.5 -53t111.5 -21.5q59 0 110 21.5t92 53t73 70.5t52 74q-164 -43 -326.5 -42t-328.5 42zM715 731h155l-77 187zM918 903q-4 -2 4 -8t19 -12t23.5 -9.5t18.5 0.5l147 189q4 4 -11 18.5t-36.5 28.5 t-42 22.5t-26.5 0.5q-39 -49 -55.5 -110.5t-40.5 -119.5zM1290 102v23h84v-23h-31v-77h-22v77h-31zM1384 25v100h31l19 -78l18 78h29v-100h-19v77l-20 -77h-19l-20 77v-77h-19z" />
<glyph unicode="&#xfd;" d="M68 731q0 150 56 282t154.5 230t230.5 155.5t282 57.5t281.5 -57.5t230 -155.5t156 -230t57.5 -282t-57.5 -282t-156 -230t-230 -155.5t-281.5 -57.5t-282 57.5t-230.5 155.5t-154.5 230.5t-56 281.5zM164 731q0 -129 49 -242.5t135 -199.5t200 -135.5t243 -49.5 q131 0 244.5 49.5t197.5 135.5t133 199.5t49 242.5t-49 242.5t-133 198.5t-197.5 134.5t-244.5 49.5q-129 0 -243 -49.5t-200 -134.5t-135 -198.5t-49 -242.5zM207 731q0 119 46 224.5t126 184.5t185.5 124t226.5 45q119 0 225 -45t185 -124t125 -184.5t46 -224.5 q0 -121 -46 -227.5t-125 -185t-185 -125t-225 -46.5q-121 0 -226.5 46.5t-185.5 125t-126 185t-46 227.5zM330 664l112 -177q346 -80 699 0l110 177h-921zM451 1063l151 -189q4 -4 15.5 -0.5t23.5 9.5t20.5 12t8.5 8q-29 57 -47.5 118.5t-53.5 111.5q-6 8 -26.5 -0.5 t-42 -22.5t-38 -28.5t-11.5 -18.5zM463 457q20 -35 51 -74t73 -70.5t92.5 -53t111.5 -21.5q59 0 110 21.5t92 53t73 70.5t52 74q-164 -43 -326.5 -42t-328.5 42zM715 731h155l-77 187zM918 903q-4 -2 4 -8t19 -12t23.5 -9.5t18.5 0.5l147 189q4 4 -11 18.5t-36.5 28.5 t-42 22.5t-26.5 0.5q-39 -49 -55.5 -110.5t-40.5 -119.5zM1290 102v23h84v-23h-31v-77h-22v77h-31zM1384 25v100h31l19 -78l18 78h29v-100h-19v77l-20 -77h-19l-20 77v-77h-19z" />
<glyph unicode="&#xfe;" d="M68 731q0 150 56 282t154.5 230t230.5 155.5t282 57.5t281.5 -57.5t230 -155.5t156 -230t57.5 -282t-57.5 -282t-156 -230t-230 -155.5t-281.5 -57.5t-282 57.5t-230.5 155.5t-154.5 230.5t-56 281.5zM164 731q0 -129 49 -242.5t135 -199.5t200 -135.5t243 -49.5 q131 0 244.5 49.5t197.5 135.5t133 199.5t49 242.5t-49 242.5t-133 198.5t-197.5 134.5t-244.5 49.5q-129 0 -243 -49.5t-200 -134.5t-135 -198.5t-49 -242.5zM207 731q0 119 46 224.5t126 184.5t185.5 124t226.5 45q119 0 225 -45t185 -124t125 -184.5t46 -224.5 q0 -121 -46 -227.5t-125 -185t-185 -125t-225 -46.5q-121 0 -226.5 46.5t-185.5 125t-126 185t-46 227.5zM330 664l112 -177q346 -80 699 0l110 177h-921zM451 1063l151 -189q4 -4 15.5 -0.5t23.5 9.5t20.5 12t8.5 8q-29 57 -47.5 118.5t-53.5 111.5q-6 8 -26.5 -0.5 t-42 -22.5t-38 -28.5t-11.5 -18.5zM463 457q20 -35 51 -74t73 -70.5t92.5 -53t111.5 -21.5q59 0 110 21.5t92 53t73 70.5t52 74q-164 -43 -326.5 -42t-328.5 42zM715 731h155l-77 187zM918 903q-4 -2 4 -8t19 -12t23.5 -9.5t18.5 0.5l147 189q4 4 -11 18.5t-36.5 28.5 t-42 22.5t-26.5 0.5q-39 -49 -55.5 -110.5t-40.5 -119.5zM1290 102v23h84v-23h-31v-77h-22v77h-31zM1384 25v100h31l19 -78l18 78h29v-100h-19v77l-20 -77h-19l-20 77v-77h-19z" />
<glyph unicode="&#xff;" d="M68 731q0 150 56 282t154.5 230t230.5 155.5t282 57.5t281.5 -57.5t230 -155.5t156 -230t57.5 -282t-57.5 -282t-156 -230t-230 -155.5t-281.5 -57.5t-282 57.5t-230.5 155.5t-154.5 230.5t-56 281.5zM164 731q0 -129 49 -242.5t135 -199.5t200 -135.5t243 -49.5 q131 0 244.5 49.5t197.5 135.5t133 199.5t49 242.5t-49 242.5t-133 198.5t-197.5 134.5t-244.5 49.5q-129 0 -243 -49.5t-200 -134.5t-135 -198.5t-49 -242.5zM207 731q0 119 46 224.5t126 184.5t185.5 124t226.5 45q119 0 225 -45t185 -124t125 -184.5t46 -224.5 q0 -121 -46 -227.5t-125 -185t-185 -125t-225 -46.5q-121 0 -226.5 46.5t-185.5 125t-126 185t-46 227.5zM330 664l112 -177q346 -80 699 0l110 177h-921zM451 1063l151 -189q4 -4 15.5 -0.5t23.5 9.5t20.5 12t8.5 8q-29 57 -47.5 118.5t-53.5 111.5q-6 8 -26.5 -0.5 t-42 -22.5t-38 -28.5t-11.5 -18.5zM463 457q20 -35 51 -74t73 -70.5t92.5 -53t111.5 -21.5q59 0 110 21.5t92 53t73 70.5t52 74q-164 -43 -326.5 -42t-328.5 42zM715 731h155l-77 187zM918 903q-4 -2 4 -8t19 -12t23.5 -9.5t18.5 0.5l147 189q4 4 -11 18.5t-36.5 28.5 t-42 22.5t-26.5 0.5q-39 -49 -55.5 -110.5t-40.5 -119.5zM1290 102v23h84v-23h-31v-77h-22v77h-31zM1384 25v100h31l19 -78l18 78h29v-100h-19v77l-20 -77h-19l-20 77v-77h-19z" />
<glyph unicode="&#x152;" d="M68 731q0 150 56 282t154.5 230t230.5 155.5t282 57.5t281.5 -57.5t230 -155.5t156 -230t57.5 -282t-57.5 -282t-156 -230t-230 -155.5t-281.5 -57.5t-282 57.5t-230.5 155.5t-154.5 230.5t-56 281.5zM164 731q0 -129 49 -242.5t135 -199.5t200 -135.5t243 -49.5 q131 0 244.5 49.5t197.5 135.5t133 199.5t49 242.5t-49 242.5t-133 198.5t-197.5 134.5t-244.5 49.5q-129 0 -243 -49.5t-200 -134.5t-135 -198.5t-49 -242.5zM207 731q0 119 46 224.5t126 184.5t185.5 124t226.5 45q119 0 225 -45t185 -124t125 -184.5t46 -224.5 q0 -121 -46 -227.5t-125 -185t-185 -125t-225 -46.5q-121 0 -226.5 46.5t-185.5 125t-126 185t-46 227.5zM330 664l112 -177q346 -80 699 0l110 177h-921zM451 1063l151 -189q4 -4 15.5 -0.5t23.5 9.5t20.5 12t8.5 8q-29 57 -47.5 118.5t-53.5 111.5q-6 8 -26.5 -0.5 t-42 -22.5t-38 -28.5t-11.5 -18.5zM463 457q20 -35 51 -74t73 -70.5t92.5 -53t111.5 -21.5q59 0 110 21.5t92 53t73 70.5t52 74q-164 -43 -326.5 -42t-328.5 42zM715 731h155l-77 187zM918 903q-4 -2 4 -8t19 -12t23.5 -9.5t18.5 0.5l147 189q4 4 -11 18.5t-36.5 28.5 t-42 22.5t-26.5 0.5q-39 -49 -55.5 -110.5t-40.5 -119.5zM1290 102v23h84v-23h-31v-77h-22v77h-31zM1384 25v100h31l19 -78l18 78h29v-100h-19v77l-20 -77h-19l-20 77v-77h-19z" />
<glyph unicode="&#x153;" d="M68 731q0 150 56 282t154.5 230t230.5 155.5t282 57.5t281.5 -57.5t230 -155.5t156 -230t57.5 -282t-57.5 -282t-156 -230t-230 -155.5t-281.5 -57.5t-282 57.5t-230.5 155.5t-154.5 230.5t-56 281.5zM164 731q0 -129 49 -242.5t135 -199.5t200 -135.5t243 -49.5 q131 0 244.5 49.5t197.5 135.5t133 199.5t49 242.5t-49 242.5t-133 198.5t-197.5 134.5t-244.5 49.5q-129 0 -243 -49.5t-200 -134.5t-135 -198.5t-49 -242.5zM207 731q0 119 46 224.5t126 184.5t185.5 124t226.5 45q119 0 225 -45t185 -124t125 -184.5t46 -224.5 q0 -121 -46 -227.5t-125 -185t-185 -125t-225 -46.5q-121 0 -226.5 46.5t-185.5 125t-126 185t-46 227.5zM330 664l112 -177q346 -80 699 0l110 177h-921zM451 1063l151 -189q4 -4 15.5 -0.5t23.5 9.5t20.5 12t8.5 8q-29 57 -47.5 118.5t-53.5 111.5q-6 8 -26.5 -0.5 t-42 -22.5t-38 -28.5t-11.5 -18.5zM463 457q20 -35 51 -74t73 -70.5t92.5 -53t111.5 -21.5q59 0 110 21.5t92 53t73 70.5t52 74q-164 -43 -326.5 -42t-328.5 42zM715 731h155l-77 187zM918 903q-4 -2 4 -8t19 -12t23.5 -9.5t18.5 0.5l147 189q4 4 -11 18.5t-36.5 28.5 t-42 22.5t-26.5 0.5q-39 -49 -55.5 -110.5t-40.5 -119.5zM1290 102v23h84v-23h-31v-77h-22v77h-31zM1384 25v100h31l19 -78l18 78h29v-100h-19v77l-20 -77h-19l-20 77v-77h-19z" />
<glyph unicode="&#x178;" d="M68 731q0 150 56 282t154.5 230t230.5 155.5t282 57.5t281.5 -57.5t230 -155.5t156 -230t57.5 -282t-57.5 -282t-156 -230t-230 -155.5t-281.5 -57.5t-282 57.5t-230.5 155.5t-154.5 230.5t-56 281.5zM164 731q0 -129 49 -242.5t135 -199.5t200 -135.5t243 -49.5 q131 0 244.5 49.5t197.5 135.5t133 199.5t49 242.5t-49 242.5t-133 198.5t-197.5 134.5t-244.5 49.5q-129 0 -243 -49.5t-200 -134.5t-135 -198.5t-49 -242.5zM207 731q0 119 46 224.5t126 184.5t185.5 124t226.5 45q119 0 225 -45t185 -124t125 -184.5t46 -224.5 q0 -121 -46 -227.5t-125 -185t-185 -125t-225 -46.5q-121 0 -226.5 46.5t-185.5 125t-126 185t-46 227.5zM330 664l112 -177q346 -80 699 0l110 177h-921zM451 1063l151 -189q4 -4 15.5 -0.5t23.5 9.5t20.5 12t8.5 8q-29 57 -47.5 118.5t-53.5 111.5q-6 8 -26.5 -0.5 t-42 -22.5t-38 -28.5t-11.5 -18.5zM463 457q20 -35 51 -74t73 -70.5t92.5 -53t111.5 -21.5q59 0 110 21.5t92 53t73 70.5t52 74q-164 -43 -326.5 -42t-328.5 42zM715 731h155l-77 187zM918 903q-4 -2 4 -8t19 -12t23.5 -9.5t18.5 0.5l147 189q4 4 -11 18.5t-36.5 28.5 t-42 22.5t-26.5 0.5q-39 -49 -55.5 -110.5t-40.5 -119.5zM1290 102v23h84v-23h-31v-77h-22v77h-31zM1384 25v100h31l19 -78l18 78h29v-100h-19v77l-20 -77h-19l-20 77v-77h-19z" />
<glyph unicode="&#x2c6;" d="M68 731q0 150 56 282t154.5 230t230.5 155.5t282 57.5t281.5 -57.5t230 -155.5t156 -230t57.5 -282t-57.5 -282t-156 -230t-230 -155.5t-281.5 -57.5t-282 57.5t-230.5 155.5t-154.5 230.5t-56 281.5zM164 731q0 -129 49 -242.5t135 -199.5t200 -135.5t243 -49.5 q131 0 244.5 49.5t197.5 135.5t133 199.5t49 242.5t-49 242.5t-133 198.5t-197.5 134.5t-244.5 49.5q-129 0 -243 -49.5t-200 -134.5t-135 -198.5t-49 -242.5zM207 731q0 119 46 224.5t126 184.5t185.5 124t226.5 45q119 0 225 -45t185 -124t125 -184.5t46 -224.5 q0 -121 -46 -227.5t-125 -185t-185 -125t-225 -46.5q-121 0 -226.5 46.5t-185.5 125t-126 185t-46 227.5zM330 664l112 -177q346 -80 699 0l110 177h-921zM451 1063l151 -189q4 -4 15.5 -0.5t23.5 9.5t20.5 12t8.5 8q-29 57 -47.5 118.5t-53.5 111.5q-6 8 -26.5 -0.5 t-42 -22.5t-38 -28.5t-11.5 -18.5zM463 457q20 -35 51 -74t73 -70.5t92.5 -53t111.5 -21.5q59 0 110 21.5t92 53t73 70.5t52 74q-164 -43 -326.5 -42t-328.5 42zM715 731h155l-77 187zM918 903q-4 -2 4 -8t19 -12t23.5 -9.5t18.5 0.5l147 189q4 4 -11 18.5t-36.5 28.5 t-42 22.5t-26.5 0.5q-39 -49 -55.5 -110.5t-40.5 -119.5zM1290 102v23h84v-23h-31v-77h-22v77h-31zM1384 25v100h31l19 -78l18 78h29v-100h-19v77l-20 -77h-19l-20 77v-77h-19z" />
<glyph unicode="&#x2dc;" d="M68 731q0 150 56 282t154.5 230t230.5 155.5t282 57.5t281.5 -57.5t230 -155.5t156 -230t57.5 -282t-57.5 -282t-156 -230t-230 -155.5t-281.5 -57.5t-282 57.5t-230.5 155.5t-154.5 230.5t-56 281.5zM164 731q0 -129 49 -242.5t135 -199.5t200 -135.5t243 -49.5 q131 0 244.5 49.5t197.5 135.5t133 199.5t49 242.5t-49 242.5t-133 198.5t-197.5 134.5t-244.5 49.5q-129 0 -243 -49.5t-200 -134.5t-135 -198.5t-49 -242.5zM207 731q0 119 46 224.5t126 184.5t185.5 124t226.5 45q119 0 225 -45t185 -124t125 -184.5t46 -224.5 q0 -121 -46 -227.5t-125 -185t-185 -125t-225 -46.5q-121 0 -226.5 46.5t-185.5 125t-126 185t-46 227.5zM330 664l112 -177q346 -80 699 0l110 177h-921zM451 1063l151 -189q4 -4 15.5 -0.5t23.5 9.5t20.5 12t8.5 8q-29 57 -47.5 118.5t-53.5 111.5q-6 8 -26.5 -0.5 t-42 -22.5t-38 -28.5t-11.5 -18.5zM463 457q20 -35 51 -74t73 -70.5t92.5 -53t111.5 -21.5q59 0 110 21.5t92 53t73 70.5t52 74q-164 -43 -326.5 -42t-328.5 42zM715 731h155l-77 187zM918 903q-4 -2 4 -8t19 -12t23.5 -9.5t18.5 0.5l147 189q4 4 -11 18.5t-36.5 28.5 t-42 22.5t-26.5 0.5q-39 -49 -55.5 -110.5t-40.5 -119.5zM1290 102v23h84v-23h-31v-77h-22v77h-31zM1384 25v100h31l19 -78l18 78h29v-100h-19v77l-20 -77h-19l-20 77v-77h-19z" />
<glyph unicode="&#x2000;" horiz-adv-x="766" />
<glyph unicode="&#x2001;" horiz-adv-x="1532" />
<glyph unicode="&#x2002;" horiz-adv-x="766" />
<glyph unicode="&#x2003;" horiz-adv-x="1532" />
<glyph unicode="&#x2004;" horiz-adv-x="510" />
<glyph unicode="&#x2005;" horiz-adv-x="383" />
<glyph unicode="&#x2006;" horiz-adv-x="255" />
<glyph unicode="&#x2007;" horiz-adv-x="255" />
<glyph unicode="&#x2008;" horiz-adv-x="191" />
<glyph unicode="&#x2009;" horiz-adv-x="306" />
<glyph unicode="&#x200a;" horiz-adv-x="85" />
<glyph unicode="&#x2010;" horiz-adv-x="649" d="M82 524v269h485v-269h-485z" />
<glyph unicode="&#x2011;" horiz-adv-x="649" d="M82 524v269h485v-269h-485z" />
<glyph unicode="&#x2012;" horiz-adv-x="649" d="M82 524v269h485v-269h-485z" />
<glyph unicode="&#x2013;" d="M68 731q0 150 56 282t154.5 230t230.5 155.5t282 57.5t281.5 -57.5t230 -155.5t156 -230t57.5 -282t-57.5 -282t-156 -230t-230 -155.5t-281.5 -57.5t-282 57.5t-230.5 155.5t-154.5 230.5t-56 281.5zM164 731q0 -129 49 -242.5t135 -199.5t200 -135.5t243 -49.5 q131 0 244.5 49.5t197.5 135.5t133 199.5t49 242.5t-49 242.5t-133 198.5t-197.5 134.5t-244.5 49.5q-129 0 -243 -49.5t-200 -134.5t-135 -198.5t-49 -242.5zM207 731q0 119 46 224.5t126 184.5t185.5 124t226.5 45q119 0 225 -45t185 -124t125 -184.5t46 -224.5 q0 -121 -46 -227.5t-125 -185t-185 -125t-225 -46.5q-121 0 -226.5 46.5t-185.5 125t-126 185t-46 227.5zM330 664l112 -177q346 -80 699 0l110 177h-921zM451 1063l151 -189q4 -4 15.5 -0.5t23.5 9.5t20.5 12t8.5 8q-29 57 -47.5 118.5t-53.5 111.5q-6 8 -26.5 -0.5 t-42 -22.5t-38 -28.5t-11.5 -18.5zM463 457q20 -35 51 -74t73 -70.5t92.5 -53t111.5 -21.5q59 0 110 21.5t92 53t73 70.5t52 74q-164 -43 -326.5 -42t-328.5 42zM715 731h155l-77 187zM918 903q-4 -2 4 -8t19 -12t23.5 -9.5t18.5 0.5l147 189q4 4 -11 18.5t-36.5 28.5 t-42 22.5t-26.5 0.5q-39 -49 -55.5 -110.5t-40.5 -119.5zM1290 102v23h84v-23h-31v-77h-22v77h-31zM1384 25v100h31l19 -78l18 78h29v-100h-19v77l-20 -77h-19l-20 77v-77h-19z" />
<glyph unicode="&#x2014;" d="M68 731q0 150 56 282t154.5 230t230.5 155.5t282 57.5t281.5 -57.5t230 -155.5t156 -230t57.5 -282t-57.5 -282t-156 -230t-230 -155.5t-281.5 -57.5t-282 57.5t-230.5 155.5t-154.5 230.5t-56 281.5zM164 731q0 -129 49 -242.5t135 -199.5t200 -135.5t243 -49.5 q131 0 244.5 49.5t197.5 135.5t133 199.5t49 242.5t-49 242.5t-133 198.5t-197.5 134.5t-244.5 49.5q-129 0 -243 -49.5t-200 -134.5t-135 -198.5t-49 -242.5zM207 731q0 119 46 224.5t126 184.5t185.5 124t226.5 45q119 0 225 -45t185 -124t125 -184.5t46 -224.5 q0 -121 -46 -227.5t-125 -185t-185 -125t-225 -46.5q-121 0 -226.5 46.5t-185.5 125t-126 185t-46 227.5zM330 664l112 -177q346 -80 699 0l110 177h-921zM451 1063l151 -189q4 -4 15.5 -0.5t23.5 9.5t20.5 12t8.5 8q-29 57 -47.5 118.5t-53.5 111.5q-6 8 -26.5 -0.5 t-42 -22.5t-38 -28.5t-11.5 -18.5zM463 457q20 -35 51 -74t73 -70.5t92.5 -53t111.5 -21.5q59 0 110 21.5t92 53t73 70.5t52 74q-164 -43 -326.5 -42t-328.5 42zM715 731h155l-77 187zM918 903q-4 -2 4 -8t19 -12t23.5 -9.5t18.5 0.5l147 189q4 4 -11 18.5t-36.5 28.5 t-42 22.5t-26.5 0.5q-39 -49 -55.5 -110.5t-40.5 -119.5zM1290 102v23h84v-23h-31v-77h-22v77h-31zM1384 25v100h31l19 -78l18 78h29v-100h-19v77l-20 -77h-19l-20 77v-77h-19z" />
<glyph unicode="&#x2018;" d="M68 731q0 150 56 282t154.5 230t230.5 155.5t282 57.5t281.5 -57.5t230 -155.5t156 -230t57.5 -282t-57.5 -282t-156 -230t-230 -155.5t-281.5 -57.5t-282 57.5t-230.5 155.5t-154.5 230.5t-56 281.5zM164 731q0 -129 49 -242.5t135 -199.5t200 -135.5t243 -49.5 q131 0 244.5 49.5t197.5 135.5t133 199.5t49 242.5t-49 242.5t-133 198.5t-197.5 134.5t-244.5 49.5q-129 0 -243 -49.5t-200 -134.5t-135 -198.5t-49 -242.5zM207 731q0 119 46 224.5t126 184.5t185.5 124t226.5 45q119 0 225 -45t185 -124t125 -184.5t46 -224.5 q0 -121 -46 -227.5t-125 -185t-185 -125t-225 -46.5q-121 0 -226.5 46.5t-185.5 125t-126 185t-46 227.5zM330 664l112 -177q346 -80 699 0l110 177h-921zM451 1063l151 -189q4 -4 15.5 -0.5t23.5 9.5t20.5 12t8.5 8q-29 57 -47.5 118.5t-53.5 111.5q-6 8 -26.5 -0.5 t-42 -22.5t-38 -28.5t-11.5 -18.5zM463 457q20 -35 51 -74t73 -70.5t92.5 -53t111.5 -21.5q59 0 110 21.5t92 53t73 70.5t52 74q-164 -43 -326.5 -42t-328.5 42zM715 731h155l-77 187zM918 903q-4 -2 4 -8t19 -12t23.5 -9.5t18.5 0.5l147 189q4 4 -11 18.5t-36.5 28.5 t-42 22.5t-26.5 0.5q-39 -49 -55.5 -110.5t-40.5 -119.5zM1290 102v23h84v-23h-31v-77h-22v77h-31zM1384 25v100h31l19 -78l18 78h29v-100h-19v77l-20 -77h-19l-20 77v-77h-19z" />
<glyph unicode="&#x2019;" d="M68 731q0 150 56 282t154.5 230t230.5 155.5t282 57.5t281.5 -57.5t230 -155.5t156 -230t57.5 -282t-57.5 -282t-156 -230t-230 -155.5t-281.5 -57.5t-282 57.5t-230.5 155.5t-154.5 230.5t-56 281.5zM164 731q0 -129 49 -242.5t135 -199.5t200 -135.5t243 -49.5 q131 0 244.5 49.5t197.5 135.5t133 199.5t49 242.5t-49 242.5t-133 198.5t-197.5 134.5t-244.5 49.5q-129 0 -243 -49.5t-200 -134.5t-135 -198.5t-49 -242.5zM207 731q0 119 46 224.5t126 184.5t185.5 124t226.5 45q119 0 225 -45t185 -124t125 -184.5t46 -224.5 q0 -121 -46 -227.5t-125 -185t-185 -125t-225 -46.5q-121 0 -226.5 46.5t-185.5 125t-126 185t-46 227.5zM330 664l112 -177q346 -80 699 0l110 177h-921zM451 1063l151 -189q4 -4 15.5 -0.5t23.5 9.5t20.5 12t8.5 8q-29 57 -47.5 118.5t-53.5 111.5q-6 8 -26.5 -0.5 t-42 -22.5t-38 -28.5t-11.5 -18.5zM463 457q20 -35 51 -74t73 -70.5t92.5 -53t111.5 -21.5q59 0 110 21.5t92 53t73 70.5t52 74q-164 -43 -326.5 -42t-328.5 42zM715 731h155l-77 187zM918 903q-4 -2 4 -8t19 -12t23.5 -9.5t18.5 0.5l147 189q4 4 -11 18.5t-36.5 28.5 t-42 22.5t-26.5 0.5q-39 -49 -55.5 -110.5t-40.5 -119.5zM1290 102v23h84v-23h-31v-77h-22v77h-31zM1384 25v100h31l19 -78l18 78h29v-100h-19v77l-20 -77h-19l-20 77v-77h-19z" />
<glyph unicode="&#x201a;" d="M68 731q0 150 56 282t154.5 230t230.5 155.5t282 57.5t281.5 -57.5t230 -155.5t156 -230t57.5 -282t-57.5 -282t-156 -230t-230 -155.5t-281.5 -57.5t-282 57.5t-230.5 155.5t-154.5 230.5t-56 281.5zM164 731q0 -129 49 -242.5t135 -199.5t200 -135.5t243 -49.5 q131 0 244.5 49.5t197.5 135.5t133 199.5t49 242.5t-49 242.5t-133 198.5t-197.5 134.5t-244.5 49.5q-129 0 -243 -49.5t-200 -134.5t-135 -198.5t-49 -242.5zM207 731q0 119 46 224.5t126 184.5t185.5 124t226.5 45q119 0 225 -45t185 -124t125 -184.5t46 -224.5 q0 -121 -46 -227.5t-125 -185t-185 -125t-225 -46.5q-121 0 -226.5 46.5t-185.5 125t-126 185t-46 227.5zM330 664l112 -177q346 -80 699 0l110 177h-921zM451 1063l151 -189q4 -4 15.5 -0.5t23.5 9.5t20.5 12t8.5 8q-29 57 -47.5 118.5t-53.5 111.5q-6 8 -26.5 -0.5 t-42 -22.5t-38 -28.5t-11.5 -18.5zM463 457q20 -35 51 -74t73 -70.5t92.5 -53t111.5 -21.5q59 0 110 21.5t92 53t73 70.5t52 74q-164 -43 -326.5 -42t-328.5 42zM715 731h155l-77 187zM918 903q-4 -2 4 -8t19 -12t23.5 -9.5t18.5 0.5l147 189q4 4 -11 18.5t-36.5 28.5 t-42 22.5t-26.5 0.5q-39 -49 -55.5 -110.5t-40.5 -119.5zM1290 102v23h84v-23h-31v-77h-22v77h-31zM1384 25v100h31l19 -78l18 78h29v-100h-19v77l-20 -77h-19l-20 77v-77h-19z" />
<glyph unicode="&#x201c;" d="M68 731q0 150 56 282t154.5 230t230.5 155.5t282 57.5t281.5 -57.5t230 -155.5t156 -230t57.5 -282t-57.5 -282t-156 -230t-230 -155.5t-281.5 -57.5t-282 57.5t-230.5 155.5t-154.5 230.5t-56 281.5zM164 731q0 -129 49 -242.5t135 -199.5t200 -135.5t243 -49.5 q131 0 244.5 49.5t197.5 135.5t133 199.5t49 242.5t-49 242.5t-133 198.5t-197.5 134.5t-244.5 49.5q-129 0 -243 -49.5t-200 -134.5t-135 -198.5t-49 -242.5zM207 731q0 119 46 224.5t126 184.5t185.5 124t226.5 45q119 0 225 -45t185 -124t125 -184.5t46 -224.5 q0 -121 -46 -227.5t-125 -185t-185 -125t-225 -46.5q-121 0 -226.5 46.5t-185.5 125t-126 185t-46 227.5zM330 664l112 -177q346 -80 699 0l110 177h-921zM451 1063l151 -189q4 -4 15.5 -0.5t23.5 9.5t20.5 12t8.5 8q-29 57 -47.5 118.5t-53.5 111.5q-6 8 -26.5 -0.5 t-42 -22.5t-38 -28.5t-11.5 -18.5zM463 457q20 -35 51 -74t73 -70.5t92.5 -53t111.5 -21.5q59 0 110 21.5t92 53t73 70.5t52 74q-164 -43 -326.5 -42t-328.5 42zM715 731h155l-77 187zM918 903q-4 -2 4 -8t19 -12t23.5 -9.5t18.5 0.5l147 189q4 4 -11 18.5t-36.5 28.5 t-42 22.5t-26.5 0.5q-39 -49 -55.5 -110.5t-40.5 -119.5zM1290 102v23h84v-23h-31v-77h-22v77h-31zM1384 25v100h31l19 -78l18 78h29v-100h-19v77l-20 -77h-19l-20 77v-77h-19z" />
<glyph unicode="&#x201d;" d="M68 731q0 150 56 282t154.5 230t230.5 155.5t282 57.5t281.5 -57.5t230 -155.5t156 -230t57.5 -282t-57.5 -282t-156 -230t-230 -155.5t-281.5 -57.5t-282 57.5t-230.5 155.5t-154.5 230.5t-56 281.5zM164 731q0 -129 49 -242.5t135 -199.5t200 -135.5t243 -49.5 q131 0 244.5 49.5t197.5 135.5t133 199.5t49 242.5t-49 242.5t-133 198.5t-197.5 134.5t-244.5 49.5q-129 0 -243 -49.5t-200 -134.5t-135 -198.5t-49 -242.5zM207 731q0 119 46 224.5t126 184.5t185.5 124t226.5 45q119 0 225 -45t185 -124t125 -184.5t46 -224.5 q0 -121 -46 -227.5t-125 -185t-185 -125t-225 -46.5q-121 0 -226.5 46.5t-185.5 125t-126 185t-46 227.5zM330 664l112 -177q346 -80 699 0l110 177h-921zM451 1063l151 -189q4 -4 15.5 -0.5t23.5 9.5t20.5 12t8.5 8q-29 57 -47.5 118.5t-53.5 111.5q-6 8 -26.5 -0.5 t-42 -22.5t-38 -28.5t-11.5 -18.5zM463 457q20 -35 51 -74t73 -70.5t92.5 -53t111.5 -21.5q59 0 110 21.5t92 53t73 70.5t52 74q-164 -43 -326.5 -42t-328.5 42zM715 731h155l-77 187zM918 903q-4 -2 4 -8t19 -12t23.5 -9.5t18.5 0.5l147 189q4 4 -11 18.5t-36.5 28.5 t-42 22.5t-26.5 0.5q-39 -49 -55.5 -110.5t-40.5 -119.5zM1290 102v23h84v-23h-31v-77h-22v77h-31zM1384 25v100h31l19 -78l18 78h29v-100h-19v77l-20 -77h-19l-20 77v-77h-19z" />
<glyph unicode="&#x201e;" d="M68 731q0 150 56 282t154.5 230t230.5 155.5t282 57.5t281.5 -57.5t230 -155.5t156 -230t57.5 -282t-57.5 -282t-156 -230t-230 -155.5t-281.5 -57.5t-282 57.5t-230.5 155.5t-154.5 230.5t-56 281.5zM164 731q0 -129 49 -242.5t135 -199.5t200 -135.5t243 -49.5 q131 0 244.5 49.5t197.5 135.5t133 199.5t49 242.5t-49 242.5t-133 198.5t-197.5 134.5t-244.5 49.5q-129 0 -243 -49.5t-200 -134.5t-135 -198.5t-49 -242.5zM207 731q0 119 46 224.5t126 184.5t185.5 124t226.5 45q119 0 225 -45t185 -124t125 -184.5t46 -224.5 q0 -121 -46 -227.5t-125 -185t-185 -125t-225 -46.5q-121 0 -226.5 46.5t-185.5 125t-126 185t-46 227.5zM330 664l112 -177q346 -80 699 0l110 177h-921zM451 1063l151 -189q4 -4 15.5 -0.5t23.5 9.5t20.5 12t8.5 8q-29 57 -47.5 118.5t-53.5 111.5q-6 8 -26.5 -0.5 t-42 -22.5t-38 -28.5t-11.5 -18.5zM463 457q20 -35 51 -74t73 -70.5t92.5 -53t111.5 -21.5q59 0 110 21.5t92 53t73 70.5t52 74q-164 -43 -326.5 -42t-328.5 42zM715 731h155l-77 187zM918 903q-4 -2 4 -8t19 -12t23.5 -9.5t18.5 0.5l147 189q4 4 -11 18.5t-36.5 28.5 t-42 22.5t-26.5 0.5q-39 -49 -55.5 -110.5t-40.5 -119.5zM1290 102v23h84v-23h-31v-77h-22v77h-31zM1384 25v100h31l19 -78l18 78h29v-100h-19v77l-20 -77h-19l-20 77v-77h-19z" />
<glyph unicode="&#x2022;" d="M68 731q0 150 56 282t154.5 230t230.5 155.5t282 57.5t281.5 -57.5t230 -155.5t156 -230t57.5 -282t-57.5 -282t-156 -230t-230 -155.5t-281.5 -57.5t-282 57.5t-230.5 155.5t-154.5 230.5t-56 281.5zM164 731q0 -129 49 -242.5t135 -199.5t200 -135.5t243 -49.5 q131 0 244.5 49.5t197.5 135.5t133 199.5t49 242.5t-49 242.5t-133 198.5t-197.5 134.5t-244.5 49.5q-129 0 -243 -49.5t-200 -134.5t-135 -198.5t-49 -242.5zM207 731q0 119 46 224.5t126 184.5t185.5 124t226.5 45q119 0 225 -45t185 -124t125 -184.5t46 -224.5 q0 -121 -46 -227.5t-125 -185t-185 -125t-225 -46.5q-121 0 -226.5 46.5t-185.5 125t-126 185t-46 227.5zM330 664l112 -177q346 -80 699 0l110 177h-921zM451 1063l151 -189q4 -4 15.5 -0.5t23.5 9.5t20.5 12t8.5 8q-29 57 -47.5 118.5t-53.5 111.5q-6 8 -26.5 -0.5 t-42 -22.5t-38 -28.5t-11.5 -18.5zM463 457q20 -35 51 -74t73 -70.5t92.5 -53t111.5 -21.5q59 0 110 21.5t92 53t73 70.5t52 74q-164 -43 -326.5 -42t-328.5 42zM715 731h155l-77 187zM918 903q-4 -2 4 -8t19 -12t23.5 -9.5t18.5 0.5l147 189q4 4 -11 18.5t-36.5 28.5 t-42 22.5t-26.5 0.5q-39 -49 -55.5 -110.5t-40.5 -119.5zM1290 102v23h84v-23h-31v-77h-22v77h-31zM1384 25v100h31l19 -78l18 78h29v-100h-19v77l-20 -77h-19l-20 77v-77h-19z" />
<glyph unicode="&#x2026;" d="M68 731q0 150 56 282t154.5 230t230.5 155.5t282 57.5t281.5 -57.5t230 -155.5t156 -230t57.5 -282t-57.5 -282t-156 -230t-230 -155.5t-281.5 -57.5t-282 57.5t-230.5 155.5t-154.5 230.5t-56 281.5zM164 731q0 -129 49 -242.5t135 -199.5t200 -135.5t243 -49.5 q131 0 244.5 49.5t197.5 135.5t133 199.5t49 242.5t-49 242.5t-133 198.5t-197.5 134.5t-244.5 49.5q-129 0 -243 -49.5t-200 -134.5t-135 -198.5t-49 -242.5zM207 731q0 119 46 224.5t126 184.5t185.5 124t226.5 45q119 0 225 -45t185 -124t125 -184.5t46 -224.5 q0 -121 -46 -227.5t-125 -185t-185 -125t-225 -46.5q-121 0 -226.5 46.5t-185.5 125t-126 185t-46 227.5zM330 664l112 -177q346 -80 699 0l110 177h-921zM451 1063l151 -189q4 -4 15.5 -0.5t23.5 9.5t20.5 12t8.5 8q-29 57 -47.5 118.5t-53.5 111.5q-6 8 -26.5 -0.5 t-42 -22.5t-38 -28.5t-11.5 -18.5zM463 457q20 -35 51 -74t73 -70.5t92.5 -53t111.5 -21.5q59 0 110 21.5t92 53t73 70.5t52 74q-164 -43 -326.5 -42t-328.5 42zM715 731h155l-77 187zM918 903q-4 -2 4 -8t19 -12t23.5 -9.5t18.5 0.5l147 189q4 4 -11 18.5t-36.5 28.5 t-42 22.5t-26.5 0.5q-39 -49 -55.5 -110.5t-40.5 -119.5zM1290 102v23h84v-23h-31v-77h-22v77h-31zM1384 25v100h31l19 -78l18 78h29v-100h-19v77l-20 -77h-19l-20 77v-77h-19z" />
<glyph unicode="&#x202f;" horiz-adv-x="306" />
<glyph unicode="&#x2039;" d="M68 731q0 150 56 282t154.5 230t230.5 155.5t282 57.5t281.5 -57.5t230 -155.5t156 -230t57.5 -282t-57.5 -282t-156 -230t-230 -155.5t-281.5 -57.5t-282 57.5t-230.5 155.5t-154.5 230.5t-56 281.5zM164 731q0 -129 49 -242.5t135 -199.5t200 -135.5t243 -49.5 q131 0 244.5 49.5t197.5 135.5t133 199.5t49 242.5t-49 242.5t-133 198.5t-197.5 134.5t-244.5 49.5q-129 0 -243 -49.5t-200 -134.5t-135 -198.5t-49 -242.5zM207 731q0 119 46 224.5t126 184.5t185.5 124t226.5 45q119 0 225 -45t185 -124t125 -184.5t46 -224.5 q0 -121 -46 -227.5t-125 -185t-185 -125t-225 -46.5q-121 0 -226.5 46.5t-185.5 125t-126 185t-46 227.5zM330 664l112 -177q346 -80 699 0l110 177h-921zM451 1063l151 -189q4 -4 15.5 -0.5t23.5 9.5t20.5 12t8.5 8q-29 57 -47.5 118.5t-53.5 111.5q-6 8 -26.5 -0.5 t-42 -22.5t-38 -28.5t-11.5 -18.5zM463 457q20 -35 51 -74t73 -70.5t92.5 -53t111.5 -21.5q59 0 110 21.5t92 53t73 70.5t52 74q-164 -43 -326.5 -42t-328.5 42zM715 731h155l-77 187zM918 903q-4 -2 4 -8t19 -12t23.5 -9.5t18.5 0.5l147 189q4 4 -11 18.5t-36.5 28.5 t-42 22.5t-26.5 0.5q-39 -49 -55.5 -110.5t-40.5 -119.5zM1290 102v23h84v-23h-31v-77h-22v77h-31zM1384 25v100h31l19 -78l18 78h29v-100h-19v77l-20 -77h-19l-20 77v-77h-19z" />
<glyph unicode="&#x203a;" d="M68 731q0 150 56 282t154.5 230t230.5 155.5t282 57.5t281.5 -57.5t230 -155.5t156 -230t57.5 -282t-57.5 -282t-156 -230t-230 -155.5t-281.5 -57.5t-282 57.5t-230.5 155.5t-154.5 230.5t-56 281.5zM164 731q0 -129 49 -242.5t135 -199.5t200 -135.5t243 -49.5 q131 0 244.5 49.5t197.5 135.5t133 199.5t49 242.5t-49 242.5t-133 198.5t-197.5 134.5t-244.5 49.5q-129 0 -243 -49.5t-200 -134.5t-135 -198.5t-49 -242.5zM207 731q0 119 46 224.5t126 184.5t185.5 124t226.5 45q119 0 225 -45t185 -124t125 -184.5t46 -224.5 q0 -121 -46 -227.5t-125 -185t-185 -125t-225 -46.5q-121 0 -226.5 46.5t-185.5 125t-126 185t-46 227.5zM330 664l112 -177q346 -80 699 0l110 177h-921zM451 1063l151 -189q4 -4 15.5 -0.5t23.5 9.5t20.5 12t8.5 8q-29 57 -47.5 118.5t-53.5 111.5q-6 8 -26.5 -0.5 t-42 -22.5t-38 -28.5t-11.5 -18.5zM463 457q20 -35 51 -74t73 -70.5t92.5 -53t111.5 -21.5q59 0 110 21.5t92 53t73 70.5t52 74q-164 -43 -326.5 -42t-328.5 42zM715 731h155l-77 187zM918 903q-4 -2 4 -8t19 -12t23.5 -9.5t18.5 0.5l147 189q4 4 -11 18.5t-36.5 28.5 t-42 22.5t-26.5 0.5q-39 -49 -55.5 -110.5t-40.5 -119.5zM1290 102v23h84v-23h-31v-77h-22v77h-31zM1384 25v100h31l19 -78l18 78h29v-100h-19v77l-20 -77h-19l-20 77v-77h-19z" />
<glyph unicode="&#x205f;" horiz-adv-x="383" />
<glyph unicode="&#x20ac;" d="M68 731q0 150 56 282t154.5 230t230.5 155.5t282 57.5t281.5 -57.5t230 -155.5t156 -230t57.5 -282t-57.5 -282t-156 -230t-230 -155.5t-281.5 -57.5t-282 57.5t-230.5 155.5t-154.5 230.5t-56 281.5zM164 731q0 -129 49 -242.5t135 -199.5t200 -135.5t243 -49.5 q131 0 244.5 49.5t197.5 135.5t133 199.5t49 242.5t-49 242.5t-133 198.5t-197.5 134.5t-244.5 49.5q-129 0 -243 -49.5t-200 -134.5t-135 -198.5t-49 -242.5zM207 731q0 119 46 224.5t126 184.5t185.5 124t226.5 45q119 0 225 -45t185 -124t125 -184.5t46 -224.5 q0 -121 -46 -227.5t-125 -185t-185 -125t-225 -46.5q-121 0 -226.5 46.5t-185.5 125t-126 185t-46 227.5zM330 664l112 -177q346 -80 699 0l110 177h-921zM451 1063l151 -189q4 -4 15.5 -0.5t23.5 9.5t20.5 12t8.5 8q-29 57 -47.5 118.5t-53.5 111.5q-6 8 -26.5 -0.5 t-42 -22.5t-38 -28.5t-11.5 -18.5zM463 457q20 -35 51 -74t73 -70.5t92.5 -53t111.5 -21.5q59 0 110 21.5t92 53t73 70.5t52 74q-164 -43 -326.5 -42t-328.5 42zM715 731h155l-77 187zM918 903q-4 -2 4 -8t19 -12t23.5 -9.5t18.5 0.5l147 189q4 4 -11 18.5t-36.5 28.5 t-42 22.5t-26.5 0.5q-39 -49 -55.5 -110.5t-40.5 -119.5zM1290 102v23h84v-23h-31v-77h-22v77h-31zM1384 25v100h31l19 -78l18 78h29v-100h-19v77l-20 -77h-19l-20 77v-77h-19z" />
<glyph unicode="&#x2122;" d="M68 731q0 150 56 282t154.5 230t230.5 155.5t282 57.5t281.5 -57.5t230 -155.5t156 -230t57.5 -282t-57.5 -282t-156 -230t-230 -155.5t-281.5 -57.5t-282 57.5t-230.5 155.5t-154.5 230.5t-56 281.5zM164 731q0 -129 49 -242.5t135 -199.5t200 -135.5t243 -49.5 q131 0 244.5 49.5t197.5 135.5t133 199.5t49 242.5t-49 242.5t-133 198.5t-197.5 134.5t-244.5 49.5q-129 0 -243 -49.5t-200 -134.5t-135 -198.5t-49 -242.5zM207 731q0 119 46 224.5t126 184.5t185.5 124t226.5 45q119 0 225 -45t185 -124t125 -184.5t46 -224.5 q0 -121 -46 -227.5t-125 -185t-185 -125t-225 -46.5q-121 0 -226.5 46.5t-185.5 125t-126 185t-46 227.5zM330 664l112 -177q346 -80 699 0l110 177h-921zM451 1063l151 -189q4 -4 15.5 -0.5t23.5 9.5t20.5 12t8.5 8q-29 57 -47.5 118.5t-53.5 111.5q-6 8 -26.5 -0.5 t-42 -22.5t-38 -28.5t-11.5 -18.5zM463 457q20 -35 51 -74t73 -70.5t92.5 -53t111.5 -21.5q59 0 110 21.5t92 53t73 70.5t52 74q-164 -43 -326.5 -42t-328.5 42zM715 731h155l-77 187zM918 903q-4 -2 4 -8t19 -12t23.5 -9.5t18.5 0.5l147 189q4 4 -11 18.5t-36.5 28.5 t-42 22.5t-26.5 0.5q-39 -49 -55.5 -110.5t-40.5 -119.5zM1290 102v23h84v-23h-31v-77h-22v77h-31zM1384 25v100h31l19 -78l18 78h29v-100h-19v77l-20 -77h-19l-20 77v-77h-19z" />
<glyph unicode="&#x25fc;" horiz-adv-x="1484" d="M0 0v1485h1485v-1485h-1485z" />
</font>
</defs>
</svg>
